<?xml version="1.0" standalone="no"?>
<!DOCTYPE svg PUBLIC "-//W3C//DTD SVG 1.1//EN" "http://www.w3.org/Graphics/SVG/1.1/DTD/svg11.dtd" >
<svg xmlns="http://www.w3.org/2000/svg" xmlns:xlink="http://www.w3.org/1999/xlink" version="1.1">
<metadata>
Created by FontForge 20160405 at Wed Sep 21 02:21:05 2016
 By www-data
Copyright (c) 1992 Adobe Systems Incorporated.  All Rights Reserved.Myriad is a trademark of Adobe Systems Incorporated.
</metadata>
<defs>
<font id="MyriadSetPro-UltralightItalic" horiz-adv-x="0" >
  <font-face 
    font-family="MyriadSetPro-UltralightItalic"
    font-weight="300"
    font-style="italic"
    font-stretch="normal"
    units-per-em="1000"
    panose-1="2 0 1 3 5 0 0 2 0 4"
    ascent="800"
    descent="-200"
    x-height="476"
    cap-height="674"
    bbox="-590 -319 1265 1093"
    underline-thickness="50"
    underline-position="-150"
    unicode-range="U+000A-FB06"
  />
<missing-glyph horiz-adv-x="500" 
d="M80 0l146 754h356l-146 -754h-356zM108 25h307l138 706h-307z" />
    <glyph glyph-name="ff" unicode="ff" horiz-adv-x="514" 
d="M426 731q64 0 126 -32q49 32 102 32q17 0 30 -3.5t24 -8.5l-9 -18q-21 8 -54 8q-39 0 -66.5 -15.5t-46 -41.5t-29.5 -60t-18 -72l-8 -40h132l-4 -19h-132l-89 -461h-22l89 461h-246l-89 -461h-22l89 461h-72l4 19h72l8 40q19 99 80.5 155t150.5 56zM462 519q9 46 26 86.5
t44 74.5q-23 11 -54 20t-63 9q-43 0 -76.5 -14.5t-58 -40t-40.5 -60t-23 -74.5l-8 -40h246z" />
    <glyph glyph-name="fi" unicode="fi" horiz-adv-x="476" 
d="M96 0l89 461h-72l4 19h72l8 43q9 45 26.5 83t44.5 66t63.5 43.5t82.5 15.5q26 0 50.5 -8t39.5 -19q-8 -13 -11 -15l-2 -3q-14 10 -37 16.5t-54 6.5q-43 0 -74 -15t-52.5 -41t-34.5 -60.5t-20 -72.5l-8 -40h278l-93 -480h-22l89 461h-256l-89 -461h-22z" />
    <glyph glyph-name="fl" unicode="fl" horiz-adv-x="476" 
d="M96 0l89 461h-72l4 19h72l6 34q11 57 34 100t61 72q29 21 62.5 33t78.5 12q30 0 56.5 -7t45.5 -17l-137 -707h-22l133 689h-2q-15 9 -37 14.5t-54 5.5q-46 0 -79.5 -15.5t-56.5 -41.5t-37.5 -60t-21.5 -71l-8 -41h131l-4 -19h-131l-89 -461h-22z" />
    <glyph glyph-name=".notdef" horiz-adv-x="500" 
d="M80 0l146 754h356l-146 -754h-356zM108 25h307l138 706h-307z" />
    <glyph glyph-name=".null" 
 />
    <glyph glyph-name=".null" 
 />
    <glyph glyph-name="nonmarkingreturn" horiz-adv-x="333" 
 />
    <glyph glyph-name="uni000A" unicode="&#xa;" horiz-adv-x="214" 
 />
    <glyph glyph-name="space" unicode=" " horiz-adv-x="219" 
 />
    <glyph glyph-name="exclam" unicode="!" horiz-adv-x="206" 
d="M131 183l87 491h32l-103 -491h-16zM130 14q-2 -10 -10 -17.5t-19 -7.5t-16 7.5t-3 17.5q2 11 10 18.5t19 7.5t16 -7.5t3 -18.5z" />
    <glyph glyph-name="quotedbl" unicode="&#x22;" horiz-adv-x="300" 
d="M238 691l-45 -201h-14q7 53 14 101t15 100h30zM366 691q-13 -51 -25 -101l-24 -100h-13l32 201h30z" />
    <glyph glyph-name="numbersign" unicode="#" horiz-adv-x="458" 
d="M333 232l60 190h-133l-61 -190h134zM103 0l67 212h-85l4 20h89l60 190h-90l3 19h93l68 208h21l-67 -208h134l68 208h20l-67 -208h85l-3 -19h-89l-59 -190h90l-4 -19h-93q-17 -52 -34.5 -106t-33.5 -107h-23l68 213h-133q-17 -52 -34 -106t-34 -107h-21z" />
    <glyph glyph-name="dollar" unicode="$" horiz-adv-x="479" 
d="M206 -87l20 107q-41 0 -76.5 10t-56.5 28q5 7 7 10.5t6 8.5q23 -16 55.5 -25.5t67.5 -9.5q29 0 57 10.5t51.5 28.5t40 42t21.5 51q11 56 -13.5 91t-78.5 64q-65 30 -98 67t-22 96q11 58 56.5 95.5t109.5 46.5l20 106h22l-20 -105q42 -2 68 -12t43 -21l-15 -18
q-15 11 -43 19.5t-66 8.5q-34 0 -61.5 -13t-47 -31.5t-30.5 -38.5t-14 -33q-5 -27 -1 -47t17.5 -36.5t36 -31.5t54.5 -31q31 -16 54 -32.5t37 -37t18.5 -45.5t-1.5 -57q-5 -28 -19.5 -54t-37 -47t-52.5 -36t-67 -21l-20 -107h-22z" />
    <glyph glyph-name="percent" unicode="%" horiz-adv-x="730" 
d="M161 -13l516 676h22l-516 -676h-22zM645 382q27 0 48.5 -11.5t35 -34.5t17 -59t-5.5 -84q-20 -102 -68 -150.5t-104 -48.5q-25 0 -45.5 12t-33.5 36t-17 59.5t5 82.5q10 51 28 88.5t40.5 61.5t48 36t51.5 12zM642 362q-26 0 -49 -13.5t-41.5 -37t-32.5 -55t-21 -67.5
q-15 -82 6 -128.5t69 -46.5q29 0 53.5 15t43 39.5t31.5 56.5t20 66q6 34 5.5 65t-9.5 54.5t-27 37.5t-48 14zM297 660q27 0 48.5 -11.5t35 -34.5t16.5 -58.5t-6 -84.5q-20 -102 -67.5 -149.5t-102.5 -47.5q-25 0 -46 11t-34.5 34t-17.5 58.5t5 85.5q10 51 28 88t40.5 61.5
t48.5 36t52 11.5zM294 641q-26 0 -49 -13.5t-42.5 -37t-33.5 -55.5t-21 -68q-8 -38 -7 -69.5t11 -54.5t28 -36t44 -13q29 0 53 13.5t42.5 37t31.5 55.5t21 69q7 34 6.5 65.5t-9.5 55t-27.5 37.5t-47.5 14z" />
    <glyph glyph-name="ampersand" unicode="&#x26;" horiz-adv-x="553" 
d="M507 0q-14 18 -27.5 37.5t-33.5 45.5q-65 -52 -118.5 -71t-106.5 -19q-40 0 -71 13.5t-51 37.5t-28 57t0 71q13 68 62 118.5t117 86.5q-22 45 -31.5 81.5t-1.5 73.5q6 29 21 56.5t37.5 49t51.5 34.5t64 13q50 0 78 -34t17 -94q-5 -26 -19 -50.5t-38.5 -47.5t-60.5 -45.5
t-85 -45.5l164 -252q41 48 73.5 104t57.5 126h22q-29 -77 -63.5 -137.5t-76.5 -106.5q19 -25 31.5 -41.5t21 -28t14 -19t10.5 -13.5h-30zM227 13q57 0 110 24t95 62q-35 51 -61 90t-45.5 69.5t-35 54.5t-30.5 46q-21 -12 -47 -28.5t-50.5 -39t-43.5 -51t-26 -63.5
q-7 -37 -0.5 -67t24 -51.5t46 -33.5t64.5 -12zM379 665q-37 0 -63 -17t-43 -39.5t-25.5 -43.5t-10.5 -30q-5 -23 -3 -43t8 -38.5t14.5 -35.5t16.5 -34q37 18 70 36.5t58 38.5t41.5 43.5t21.5 51.5q4 21 1.5 40.5t-12.5 35.5t-28 25.5t-46 9.5z" />
    <glyph glyph-name="quotesingle" unicode="'" horiz-adv-x="177" 
d="M243 691q-14 -54 -25 -103t-25 -103h-20q7 51 16 103.5t17 102.5h37z" />
    <glyph glyph-name="parenleft" unicode="(" horiz-adv-x="264" 
d="M371 697q-37 -39 -70 -83.5t-60.5 -95.5t-48.5 -109.5t-34 -126.5q-13 -66 -13.5 -123.5t7.5 -108t23.5 -94.5t35.5 -83h-20q-20 32 -36.5 73t-26 91.5t-9.5 111.5t14 134q14 74 38 135.5t53 112t62 92t65 74.5h20z" />
    <glyph glyph-name="parenright" unicode=")" horiz-adv-x="264" 
d="M7 -127q37 39 69.5 82.5t59.5 94t47.5 108.5t34.5 127q13 68 14.5 126t-6 108.5t-23 94.5t-36.5 83h20q19 -33 35.5 -73.5t26.5 -91t10 -112t-14 -135.5t-38 -134.5t-53.5 -111t-62.5 -91.5t-64 -75h-20z" />
    <glyph glyph-name="asterisk" unicode="*" horiz-adv-x="389" 
d="M423 667l-118 -132l157 9l-5 -27l-151 10q15 -29 31.5 -63.5t33.5 -64.5l-31 -17l-41 139l-104 -140q-6 4 -10 8.5t-8 7.5l113 127q-33 -3 -74.5 -4.5t-77.5 -3.5l5 28l150 -11q-14 27 -31.5 64t-32.5 68q9 5 15 8t13 7l44 -141q21 32 48 70.5t50 71.5z" />
    <glyph glyph-name="plus" unicode="+" horiz-adv-x="596" 
d="M416 528l-49 -253h244l-4 -21h-244l-49 -254h-23l49 254h-244l4 21h244l49 253h23z" />
    <glyph glyph-name="comma" unicode="," horiz-adv-x="150" 
d="M8 -128q7 11 18 35t23.5 52.5t23.5 57t18 49.5l39 10q-10 -25 -25.5 -57.5t-31.5 -62.5t-29 -52.5t-17 -27.5z" />
    <glyph glyph-name="uni002D" unicode="-" horiz-adv-x="297" 
d="M318 285l-5 -26h-226l5 26h226z" />
    <glyph glyph-name="period" unicode="." horiz-adv-x="152" 
d="M109 19q-2 -10 -10 -17.5t-19 -7.5t-16 7.5t-3 17.5q2 11 10 18.5t19 7.5t16 -7.5t3 -18.5z" />
    <glyph glyph-name="slash" unicode="/" horiz-adv-x="346" 
d="M-3 -41l451 726h28l-455 -726h-24z" />
    <glyph glyph-name="zero" unicode="0" horiz-adv-x="460" 
d="M227 -11q-41 0 -72.5 20t-49 62t-19 107.5t16.5 156.5q17 89 44 151t60 101t71.5 56.5t79.5 17.5q40 0 72 -17.5t50 -56.5t21 -101t-14 -151q-18 -91 -45.5 -156.5t-61 -107.5t-73 -62t-80.5 -20zM232 11q44 0 81 24t66.5 67t50.5 101t34 126q13 66 14.5 122.5
t-10.5 98.5t-40 65.5t-74 23.5t-83 -23.5t-66 -65.5t-49.5 -98.5t-33.5 -122.5q-13 -68 -14 -126t11.5 -101t40.5 -67t72 -24z" />
    <glyph glyph-name="one" unicode="1" horiz-adv-x="460" 
d="M354 624h-2l-115 -64l-5 18l126 72h21l-126 -650h-20z" />
    <glyph glyph-name="two" unicode="2" horiz-adv-x="460" 
d="M47 0l3 16l64 59q82 69 143 124.5t103 103t66 91t33 89.5q6 28 5 56t-14 50.5t-38 36.5t-69 14q-23 0 -44.5 -5.5t-40.5 -14t-34 -18t-26 -18.5l-10 13q34 28 74.5 46t88.5 18t76 -17t42 -43t15.5 -57t-3.5 -59q-10 -48 -35 -93t-67 -94t-101.5 -104t-138.5 -122l-55 -49
v-2h327l-4 -21h-360z" />
    <glyph glyph-name="three" unicode="3" horiz-adv-x="479" 
d="M71 49q14 -13 47.5 -25.5t79.5 -12.5q53 0 90 17t61 42.5t36.5 54.5t17.5 53q8 44 -3.5 75.5t-36 51.5t-59 29.5t-72.5 9.5h-34l4 21h37q29 0 62 8t61.5 26t49.5 45.5t29 66.5q5 26 2.5 49t-15 41t-35.5 28.5t-59 10.5t-70 -13.5t-59 -31.5l-6 20q22 16 59 31t79 15
q43 0 70 -13t41 -34t16.5 -47.5t-2.5 -53.5q-10 -54 -46 -95t-104 -61v-2q28 -6 52.5 -20.5t40 -36.5t21.5 -51.5t-2 -66.5q-6 -34 -22.5 -68.5t-45 -61.5t-71.5 -44t-102 -17q-45 0 -76.5 12t-46.5 25z" />
    <glyph glyph-name="four" unicode="4" horiz-adv-x="479" 
d="M317 0l39 201h-309l2 14l412 435h2l-84 -429h103l-3 -20h-103l-39 -201h-20zM359 221l57 291q4 23 8.5 44t10.5 42l-3 1q-21 -28 -37.5 -44.5t-30.5 -32.5l-283 -299l-1 -2h279z" />
    <glyph glyph-name="five" unicode="5" horiz-adv-x="479" 
d="M504 630h-238l-82 -233q17 2 31.5 3.5t37.5 1.5q38 0 72.5 -11t59 -35.5t35 -63t-0.5 -94.5q-10 -49 -34 -88t-56 -66t-70 -41t-76 -14q-46 0 -80 11.5t-49 25.5l12 23q18 -14 47 -26.5t74 -12.5q38 0 73 14t63 38.5t48 59t28 74.5q8 41 3 74.5t-23.5 58.5t-50.5 38.5
t-80 13.5q-29 0 -53 -3l-40 -5l96 277h257z" />
    <glyph glyph-name="six" unicode="6" horiz-adv-x="479" 
d="M316 419q45 0 77 -15.5t50.5 -43.5t23.5 -66t-3 -82q-8 -41 -28 -81t-49.5 -71.5t-69 -51t-86.5 -19.5q-39 0 -71 16.5t-52.5 50.5t-26.5 84.5t7 117.5q17 90 54 162.5t89.5 124t119 81.5t143.5 35l-3 -21q-61 -2 -119 -24t-106.5 -63t-85.5 -99.5t-57 -133.5h2
q29 39 78.5 69t112.5 30zM240 10q35 0 68 14t60 39.5t46 63t28 83.5q10 48 3.5 83.5t-25 58.5t-47 34.5t-63.5 11.5q-51 0 -99 -26.5t-84 -74.5q-5 -8 -11 -19.5t-8 -21.5q-10 -55 -7 -100.5t19.5 -78t46 -50t72.5 -17.5h1z" />
    <glyph glyph-name="seven" unicode="7" horiz-adv-x="479" 
d="M542 650l-4 -18l-415 -632h-21l412 628v2h-328l4 20h352z" />
    <glyph glyph-name="eight" unicode="8" horiz-adv-x="479" 
d="M368 661q36 0 62.5 -12.5t43 -33.5t21.5 -48.5t-1 -57.5q-4 -21 -13.5 -43t-27 -43t-44 -40t-64.5 -35l-1 -4q67 -30 93 -71t13 -104q-9 -46 -31 -80t-52.5 -56t-67 -33t-72.5 -11q-40 0 -72 12t-52.5 34.5t-28.5 54t-1 69.5q14 69 60.5 115t115.5 72l1 4
q-55 26 -73.5 65.5t-10.5 83.5q8 39 27 69t46 51t59.5 31.5t68.5 10.5h1zM231 11q78 0 131.5 41t66.5 110q15 75 -24 115.5t-121 63.5q-80 -23 -128.5 -70t-59.5 -105q-7 -31 -2 -59.5t21.5 -49.5t45.5 -33.5t69 -12.5h1zM358 639q-34 0 -62.5 -10.5t-51 -29t-36.5 -42.5
t-19 -51q-14 -65 21 -101t102 -52q61 22 105 58.5t55 96.5q5 24 2 47.5t-16.5 42t-37 30t-61.5 11.5h-1z" />
    <glyph glyph-name="nine" unicode="9" horiz-adv-x="460" 
d="M101 10q4 -1 5 -0.5t6 0.5q49 0 101 17t100 55.5t88.5 99.5t66.5 149h-2q-41 -47 -89.5 -69t-102.5 -22q-45 0 -75 17t-47 44.5t-20.5 62.5t3.5 71q9 45 29.5 86t51 72t70.5 49.5t87 18.5q36 0 66 -16.5t47.5 -51t22 -87t-9.5 -123.5q-20 -105 -62.5 -180t-96 -122.5
t-115 -69.5t-121.5 -22h-7zM359 639q-36 0 -69 -15t-60 -42t-46.5 -64.5t-28.5 -82.5q-8 -41 -2 -73t22.5 -54.5t42.5 -34t60 -11.5q57 0 106.5 26.5t81.5 68.5q4 5 7.5 11.5t5.5 13.5q22 119 -6.5 188t-112.5 69h-1z" />
    <glyph glyph-name="colon" unicode=":" horiz-adv-x="136" 
d="M100 19q-2 -10 -10 -17.5t-19 -7.5t-16 7.5t-3 17.5q2 11 10 18.5t19 7.5t16 -7.5t3 -18.5zM175 406q-2 -10 -9.5 -17.5t-18.5 -7.5t-16.5 7.5t-3.5 17.5q3 11 10.5 18.5t18.5 7.5t16.5 -7.5t2.5 -18.5z" />
    <glyph glyph-name="semicolon" unicode=";" horiz-adv-x="152" 
d="M195 406q-2 -10 -9.5 -17.5t-18.5 -7.5t-16.5 7.5t-3.5 17.5q3 11 10.5 18.5t18.5 7.5t16.5 -7.5t2.5 -18.5zM8 -128q7 11 18 35t23.5 52.5t23.5 57t18 49.5l39 10q-10 -25 -25.5 -57.5t-31.5 -62.5t-29 -52.5t-17 -27.5z" />
    <glyph glyph-name="less" unicode="&#x3c;" horiz-adv-x="596" 
d="M132 276q125 62 247.5 122.5t247.5 121.5l-5 -23l-478 -232l387 -235l-4 -23q-52 31 -101.5 61.5t-98.5 60.5t-98.5 60.5t-101.5 61.5z" />
    <glyph glyph-name="equal" unicode="=" horiz-adv-x="596" 
d="M116 355l4 21h511l-4 -21h-511zM78 160l3 20h511l-3 -20h-511z" />
    <glyph glyph-name="greater" unicode="&#x3e;" horiz-adv-x="596" 
d="M574 251q-125 -61 -247 -121.5t-247 -122.5l4 23l479 233l-388 234l5 23q103 -63 199 -122t200 -122z" />
    <glyph glyph-name="question" unicode="?" horiz-adv-x="375" 
d="M186 179l1 3v4.5t1 4.5q0 14 3 31q6 33 31 75.5t62 81.5q48 48 80 86.5t40 82.5q11 54 -16 84t-89 30q-26 0 -52.5 -8.5t-48.5 -20.5l-8 20q52 33 124 33q36 0 61 -11.5t39 -30t18.5 -43t-0.5 -50.5q-9 -46 -41 -87t-81 -89q-40 -41 -63.5 -78t-30.5 -74q-2 -10 -2 -19.5
t-1 -14.5v-5t-1 -5h-26zM161 -11q-29 0 -23 35q3 16 14 25.5t24 9.5q14 0 20 -9.5t3 -25.5q-3 -17 -13.5 -26t-24.5 -9z" />
    <glyph glyph-name="at" unicode="@" horiz-adv-x="693" 
d="M573 488q-11 4 -25 7t-41 3q-43 0 -84 -17.5t-74.5 -48t-57.5 -71t-33 -86.5q-8 -40 8 -66.5t60 -26.5q29 0 59 17t56 42t46.5 54.5t31.5 55.5zM497 28q-40 -21 -84.5 -31t-89.5 -10q-60 0 -108.5 21.5t-80 61.5t-43 97t2.5 128q15 79 54 150t95 124.5t128 85t153 31.5
q63 0 109 -21.5t73.5 -59t36 -89.5t-3.5 -113q-11 -59 -34 -104.5t-51.5 -76.5t-60 -47.5t-60.5 -16.5q-12 0 -23.5 6t-19 18.5t-9 31.5t6.5 45l-3 -1q-43 -51 -84.5 -74t-89.5 -23q-18 0 -34 8t-27 23t-15.5 36.5t0.5 48.5q9 46 35.5 90t65 78t86 54.5t98.5 20.5
q27 0 46.5 -4t37.5 -12l-73 -178q-9 -21 -14.5 -39t-8.5 -33q-7 -36 3 -53.5t32 -18.5q23 -1 49.5 14t50.5 43t43 66.5t28 84.5q12 61 5 112t-31.5 88t-67 57t-101.5 20q-66 0 -131 -27.5t-120 -77t-95 -118t-56 -150.5q-12 -63 -1.5 -116t40 -91t74.5 -59.5t102 -21.5
q48 0 86.5 12.5t73.5 31.5z" />
    <glyph glyph-name="A" unicode="A" horiz-adv-x="558" 
d="M33 0l376 674h11l115 -674h-24l-44 251h-272l-141 -251h-21zM207 272h259l-61 354z" />
    <glyph glyph-name="B" unicode="B" horiz-adv-x="469" 
d="M213 666q30 5 58.5 9t58.5 4q95 0 139.5 -39t28.5 -124q-5 -25 -19.5 -51t-36.5 -47.5t-50 -37t-60 -20.5q46 -9 73 -28t41.5 -43t17 -51t-2.5 -52q-19 -94 -93 -142.5t-195 -48.5q-22 0 -43.5 1.5t-45.5 3.5zM105 20q17 -2 34.5 -3t35.5 -1q107 0 176.5 40t87.5 130
q14 73 -28 115t-131 48h-111zM173 370h111q35 0 67.5 11.5t58.5 31t44 46t24 57.5q14 75 -25.5 108.5t-127.5 33.5q-26 0 -50 -3t-47 -6z" />
    <glyph glyph-name="C" unicode="C" horiz-adv-x="548" 
d="M517 21q-37 -15 -83 -23.5t-92 -8.5q-70 2 -122.5 26t-83.5 68.5t-40 108.5t7 146q15 78 51 142t88.5 109.5t119.5 70.5t144 25q36 0 68.5 -6.5t61.5 -23.5l-11 -20q-28 14 -61 21t-59 7q-72 0 -135 -21.5t-112.5 -63t-84 -102t-49.5 -138.5q-14 -75 -7 -135t36 -103
t77.5 -66t116.5 -23q45 0 89 8t78 22z" />
    <glyph glyph-name="D" unicode="D" horiz-adv-x="620" 
d="M213 664q25 5 50 8t48 4.5t44 2t37 0.5q153 0 220 -86t35 -251q-17 -85 -55.5 -149t-92.5 -108q-65 -53 -139 -71t-160 -18q-23 0 -54 1t-62 3zM386 658q-42 0 -79.5 -2.5t-76.5 -9.5l-121 -625q11 -1 25.5 -2t28 -1.5t24.5 -0.5h17q81 0 151 16.5t133 66.5
q52 41 88 105.5t50 136.5q31 158 -33 237t-207 79z" />
    <glyph glyph-name="E" unicode="E" horiz-adv-x="442" 
d="M411 21l-4 -21h-323l131 674h307l-5 -21h-286l-55 -286h270l-4 -21h-270l-63 -325h302z" />
    <glyph glyph-name="F" unicode="F" horiz-adv-x="434" 
d="M174 359h261l-4 -21h-261l-65 -338h-21l131 674h306l-5 -21h-285z" />
    <glyph glyph-name="G" unicode="G" horiz-adv-x="595" 
d="M571 301h-166l4 21h188l-58 -297q-94 -36 -183 -36q-72 0 -126 24t-88 69t-44.5 109t5.5 145q15 77 52 141.5t90.5 110.5t120 71.5t139.5 25.5q35 0 72 -6.5t64 -23.5l-10 -19q-26 15 -61.5 21.5t-68.5 6.5q-55 0 -115 -19t-112.5 -59t-92.5 -102t-57 -148
q-15 -75 -5.5 -135.5t39.5 -102.5t81 -64.5t120 -22.5q44 0 83.5 7t77.5 21z" />
    <glyph glyph-name="H" unicode="H" horiz-adv-x="602" 
d="M215 674h21l-59 -301h392l59 301h21l-131 -674h-21l68 352h-392l-68 -352h-21z" />
    <glyph glyph-name="I" unicode="I" horiz-adv-x="195" 
d="M218 674h21l-131 -674h-21z" />
    <glyph glyph-name="J" unicode="J" horiz-adv-x="316" 
d="M18 22q10 -5 28.5 -9t33.5 -4q35 0 68 14.5t57 41.5q13 15 22.5 35.5t16 42t11 42t7.5 36.5l89 453h21l-89 -453q-3 -17 -7.5 -39t-12 -45t-18.5 -45t-26 -40q-27 -31 -64.5 -47t-77.5 -16q-16 0 -35 3.5t-32 9.5z" />
    <glyph glyph-name="K" unicode="K" horiz-adv-x="459" 
d="M215 674h21l-68 -349l383 349h29l-315 -285l207 -389h-23l-201 373l-87 -80l1 3l-57 -296h-21z" />
    <glyph glyph-name="L" unicode="L" horiz-adv-x="427" 
d="M409 0h-322l131 674h21l-127 -653h301z" />
    <glyph glyph-name="M" unicode="M" horiz-adv-x="747" 
d="M65 0l178 674h21l114 -637l365 637h24l-84 -674h-21l77 632l-363 -635h-14l-113 627l-163 -624h-21z" />
    <glyph glyph-name="N" unicode="N" horiz-adv-x="609" 
d="M215 674h13l284 -629l123 629h21l-131 -674h-16l-283 624l-121 -624h-21z" />
    <glyph glyph-name="O" unicode="O" horiz-adv-x="639" 
d="M646 336q14 74 7.5 134.5t-33 103.5t-69.5 66t-102 23q-57 0 -110 -24.5t-96 -67.5t-74 -102.5t-45 -130.5q-14 -72 -7 -132.5t32 -103.5t67.5 -67t98.5 -24q60 0 113.5 24t97.5 67t75 102.5t45 131.5zM454 685q63 0 110 -25.5t74.5 -71t35 -110t-7.5 -142.5
q-15 -74 -48 -137.5t-83 -111.5q-47 -48 -105 -73t-120 -25q-57 0 -102 25t-74 71q-31 48 -38.5 111.5t7.5 141.5q15 75 48.5 139t80.5 110t104 72t118 26z" />
    <glyph glyph-name="P" unicode="P" horiz-adv-x="477" 
d="M212 663q28 8 57.5 11.5t57.5 3.5q115 0 163.5 -49.5t31.5 -136.5q-6 -31 -24.5 -66.5t-52 -65.5t-83 -49.5t-118.5 -19.5q-20 0 -42 2.5t-39 7.5l-58 -301h-21zM398 652q-32 6 -67 6q-30 0 -56.5 -3t-44.5 -7l-63 -324q14 -6 37 -9t46 -4q40 0 72.5 7.5t58.5 20
t44.5 28.5t31.5 32q34 43 44 93q11 56 -12 100t-91 60z" />
    <glyph glyph-name="Q" unicode="Q" horiz-adv-x="639" 
d="M454 685q63 0 110 -25.5t74.5 -71t35 -110t-7.5 -142.5q-15 -74 -48 -137.5t-83 -111.5q-68 -70 -160 -90l186 -47l-8 -19l-234 58h-9q-57 0 -102 25t-74 71q-31 48 -38.5 111.5t7.5 141.5q15 75 48.5 139t80.5 110t104 72t118 26zM645 336q14 74 7.5 134.5t-33 103.5
t-69.5 66t-102 23q-57 0 -109.5 -24.5t-95.5 -67.5t-74 -102.5t-45 -130.5q-14 -72 -7 -132.5t32 -103.5t67 -67t98 -24q60 0 113.5 24t97.5 67t75 102.5t45 131.5z" />
    <glyph glyph-name="R" unicode="R" horiz-adv-x="473" 
d="M213 664q30 6 61.5 10.5t65.5 4.5q38 0 75.5 -7.5t64 -27t39 -54.5t1.5 -91q-12 -63 -57 -108.5t-110 -61.5q78 -32 79 -141q2 -46 3.5 -78t2 -53.5t2.5 -34.5t6 -22h-24q-2 11 -3.5 24t-3 34t-2 51.5t-3.5 75.5q-2 68 -33.5 101.5t-101.5 33.5h-108l-62 -320h-21z
M504 542q-1 35 -16.5 57.5t-39.5 35.5t-53.5 18t-60.5 5q-29 0 -56 -3t-48 -7l-59 -307h116q39 0 74.5 11t63.5 31.5t48 50.5t27 69q5 22 4 39z" />
    <glyph glyph-name="S" unicode="S" horiz-adv-x="432" 
d="M58 54q20 -20 57.5 -33t75.5 -13q37 0 71 11.5t61.5 33.5t46.5 52.5t26 67.5q6 32 1 57t-20.5 45t-41.5 37t-61 33q-43 20 -68.5 40t-38 41.5t-15 44t2.5 46.5q7 36 27 66.5t48.5 52.5t63.5 34.5t72 12.5q26 0 55.5 -7t51.5 -24l-10 -19q-20 16 -48.5 23t-52.5 7
q-33 0 -64 -10.5t-56 -29t-42.5 -44.5t-23.5 -58q-6 -31 0.5 -54t22 -41.5t38.5 -33t50 -28.5q39 -18 66.5 -36t43.5 -40.5t21 -50t-2 -63.5q-7 -40 -28.5 -74.5t-52 -59t-68.5 -38.5t-80 -14q-22 0 -43.5 3.5t-40.5 10t-33.5 14.5t-21.5 17z" />
    <glyph glyph-name="T" unicode="T" horiz-adv-x="435" 
d="M576 650h-222l-126 -650h-21l126 650h-222l4 21h465z" />
    <glyph glyph-name="U" unicode="U" horiz-adv-x="601" 
d="M236 674l-82 -418q-6 -31 -9 -73.5t8.5 -80.5t43 -64.5t95.5 -26.5q68 0 113.5 26t75 64t44 80t20.5 75l82 418h21l-82 -418q-11 -56 -33 -105t-56.5 -85t-81.5 -56.5t-108 -20.5q-47 0 -78 13t-49.5 35t-26.5 50t-10 57.5t2 58.5t8 53l82 418h21z" />
    <glyph glyph-name="V" unicode="V" horiz-adv-x="473" 
d="M615 674l-379 -674h-14l-91 674h24l83 -632l353 632h24z" />
    <glyph glyph-name="W" unicode="W" horiz-adv-x="791" 
d="M918 674l-335 -674h-16l-48 626l-308 -626h-16l-49 674h21l45 -624l309 624h19l44 -626l313 626h21z" />
    <glyph glyph-name="X" unicode="X" horiz-adv-x="521" 
d="M317 341l-144 333h26l131 -315l261 315h23l-273 -333l145 -341h-24l-139 320l-265 -320h-24z" />
    <glyph glyph-name="Y" unicode="Y" horiz-adv-x="473" 
d="M606 674l-300 -381l-56 -293h-21l56 293l-136 381h24l128 -357l279 357h26z" />
    <glyph glyph-name="Z" unicode="Z" horiz-adv-x="515" 
d="M67 21h420l-4 -21h-447l4 21l537 632h-381l5 21h407l-4 -19z" />
    <glyph glyph-name="bracketleft" unicode="[" horiz-adv-x="264" 
d="M77 -115l156 801h152l-3 -17h-128l-150 -767h128l-3 -17h-152z" />
    <glyph glyph-name="backslash" unicode="\" horiz-adv-x="343" 
d="M310 -41l-167 726h25l169 -726h-27z" />
    <glyph glyph-name="bracketright" unicode="]" horiz-adv-x="264" 
d="M302 686l-156 -801h-152l3 17h127l150 767h-128l3 17h153z" />
    <glyph glyph-name="asciicircum" unicode="^" horiz-adv-x="596" 
d="M534 202l-107 434l-277 -434h-26l288 447h33l114 -447h-25z" />
    <glyph glyph-name="underscore" unicode="_" horiz-adv-x="500" 
d="M481 -98l-4 -21h-493l4 21h493z" />
    <glyph glyph-name="grave" unicode="`" horiz-adv-x="300" 
d="M222 677q14 -31 34 -68.5t34 -69.5h-20l-9 16t-22 38t-27.5 45.5t-24.5 38.5h35z" />
    <glyph glyph-name="a" unicode="a" horiz-adv-x="428" 
d="M334 0q0 10 3.5 34t8.5 50q-4 -4 -7.5 -8.5t-5.5 -6.5q-41 -46 -82.5 -61t-74.5 -15q-28 0 -51 7t-39 22.5t-22.5 39.5t0.5 58q7 36 26.5 67t55.5 54t89.5 36.5t128.5 13.5h20l6 33q3 15 4.5 40t-7.5 49t-30.5 41t-65.5 17q-29 0 -61 -10t-65 -30l-8 16q35 23 70 33.5
t67 10.5q39 0 63 -12.5t37.5 -32t17.5 -42t3.5 -42t-3 -34t-3.5 -16.5l-20 -106q-2 -7 -7 -33t-11 -58.5t-10.5 -64.5t-4.5 -50h-22zM320 79q8 9 14 17t11.5 20.5t10 32t10.5 49.5l14 72q0 -1 -1 -1t-1 1q-34 2 -80.5 -2t-90 -19t-78 -45.5t-44.5 -83.5q-6 -28 -0.5 -48.5
t19 -33.5t33.5 -19t43 -6q12 0 28 2.5t34.5 9.5t38 20t39.5 34z" />
    <glyph glyph-name="b" unicode="b" horiz-adv-x="518" 
d="M275 10q41 0 77.5 17t66 47t50.5 71t30 90q10 52 6 94.5t-21.5 73t-48.5 47t-75 16.5q-39 0 -72.5 -16t-60 -41t-44 -55.5t-22.5 -59.5l-22 -112q-6 -32 -1 -63t22 -55t45.5 -39t69.5 -15zM121 95q-6 -29 -11 -53.5t-10 -41.5h-21q5 17 11.5 46t12.5 58t10.5 51t4.5 23
l103 531h20l-64 -333q12 18 30.5 38t42 36.5t53.5 27t67 10.5q46 0 79 -18.5t52.5 -52.5t24.5 -80t-6 -102q-10 -52 -33 -97t-56 -78t-74 -52t-86 -19q-64 0 -99.5 31t-50.5 75z" />
    <glyph glyph-name="c" unicode="c" horiz-adv-x="428" 
d="M473 439q-20 14 -49 21.5t-63 7.5q-39 0 -79 -15.5t-74.5 -44.5t-61 -72t-36.5 -98q-11 -55 -3 -97.5t28.5 -71.5t52.5 -43.5t69 -14.5q76 0 137 28l1 -21q-32 -14 -69 -21t-74 -7q-41 0 -76 15.5t-58.5 47t-32 78t3.5 107.5q11 60 40 106.5t67.5 79t83 49t86.5 16.5
q36 0 67.5 -8.5t50.5 -21.5z" />
    <glyph glyph-name="d" unicode="d" horiz-adv-x="518" 
d="M417 0q1 17 5.5 43t10.5 55q-33 -48 -84 -78.5t-107 -30.5q-37 0 -70 16t-55.5 47t-31 77.5t2.5 106.5q11 54 36 100t59 79.5t75.5 53t85.5 19.5q56 0 93 -28t52 -70l62 319h20l-103 -531q0 -1 -4.5 -23t-9.5 -51t-9.5 -58t-5.5 -46h-22zM246 10q38 0 72 15.5t61.5 40
t45.5 56.5t25 65l25 127q5 27 -2 54t-24.5 49t-45 36t-63.5 14q-37 0 -74 -15.5t-69 -45.5q-34 -32 -56 -76t-32 -94q-9 -49 -3.5 -90.5t23.5 -71.5t48 -47t69 -17z" />
    <glyph glyph-name="e" unicode="e" horiz-adv-x="468" 
d="M397 19q-33 -16 -68.5 -23t-74.5 -7q-49 1 -85 19t-57.5 50t-27.5 77.5t5 102.5q10 54 34.5 100t58.5 79t75.5 52t86.5 20q42 0 67.5 -15t40.5 -35t21 -42q7 -21 8 -60t-7 -81h-361l-3 -18q-22 -112 22 -170t141 -58q32 0 64 8t58 22zM339 468q-36 0 -70 -14t-63 -39
t-51 -60t-35 -77l337 -2q2 28 2.5 46.5t-0.5 27.5q-4 51 -35 84.5t-85 33.5z" />
    <glyph glyph-name="f" unicode="f" horiz-adv-x="224" 
d="M416 685q-20 14 -48 14q-40 0 -67.5 -14.5t-46.5 -39.5t-30 -56.5t-18 -66.5l-9 -46h132l-4 -19h-132l-88 -457h-21l88 457h-69l4 19h69l9 46q5 24 15 58t31 64.5t55 52.5t87 22q14 0 28 -3.5t23 -9.5z" />
    <glyph glyph-name="g" unicode="g" horiz-adv-x="515" 
d="M67 -148q23 -21 57.5 -30t65.5 -9q89 0 148 53t81 166l14 71q-34 -48 -83 -77t-104 -29q-45 0 -79 19t-54.5 51.5t-27 76.5t3.5 94q10 54 35 99.5t60 79.5t77.5 53t88.5 19q55 0 89.5 -29t49.5 -69q4 24 9.5 47.5t10.5 37.5h19q-4 -18 -10.5 -48t-12 -58.5t-9.5 -49
t-4 -21.5l-52 -267q-23 -117 -89 -178.5t-165 -61.5q-33 0 -67.5 9t-62.5 31zM459 238l15 77q5 27 -1.5 54t-23 49t-43 36t-61.5 14q-42 0 -80 -17.5t-69.5 -48t-54 -72.5t-31.5 -92q-11 -57 -2.5 -98t29 -68t50.5 -40t63 -13q35 0 67.5 13.5t59.5 36.5t46 53.5t26 65.5z
" />
    <glyph glyph-name="h" unicode="h" horiz-adv-x="506" 
d="M99 0h-20l137 708h20l-63 -325q36 52 83 79t107 27q51 0 83.5 -27.5t42.5 -75.5q3 -24 0.5 -48.5t-6.5 -46.5l-56 -291h-20l56 291q7 35 7.5 55.5t-4.5 38.5q-2 9 -8 23.5t-18.5 27.5t-33 22.5t-51.5 9.5q-45 0 -79.5 -17.5t-59.5 -43.5t-40 -55.5t-19 -52.5z" />
    <glyph glyph-name="i" unicode="i" horiz-adv-x="183" 
d="M173 476l-92 -476h21l92 476h-21zM233 622q-1 -8 -7.5 -13.5t-16.5 -5.5q-11 0 -15.5 5.5t-3.5 13.5q4 20 26 20q21 0 17 -20z" />
    <glyph glyph-name="j" unicode="j" horiz-adv-x="211" 
d="M-77 -184q47 0 77 19t49.5 49t30 66t17.5 71l88 455h21l-88 -455q-7 -36 -19 -75.5t-34 -72.5t-56 -55t-87 -23zM245 622q-1 -8 -7.5 -13.5t-16.5 -5.5q-11 0 -15.5 5.5t-3.5 13.5q4 20 26 20q21 0 17 -20z" />
    <glyph glyph-name="k" unicode="k" horiz-adv-x="382" 
d="M201 264l-60 -53l-41 -211h-21l137 708h21l-91 -467l276 235h28l-230 -198l168 -278h-27z" />
    <glyph glyph-name="l" unicode="l" horiz-adv-x="195" 
d="M245 708l-137 -708h-21l137 708h21z" />
    <glyph glyph-name="m" unicode="m" horiz-adv-x="791" 
d="M143 304q2 10 6.5 34t9 51t8.5 51.5t4 35.5h22q-1 -15 -5 -39.5t-9 -50.5q27 44 73 73.5t94 29.5q109 0 125 -114q29 55 77.5 84.5t98.5 29.5q106 0 126 -103q5 -24 1.5 -48.5t-7.5 -46.5l-56 -291h-21l56 291q18 91 -13 134t-91 43q-42 0 -70.5 -17t-43.5 -31
q-17 -17 -28 -32t-18 -30t-11 -31t-8 -36l-56 -291h-21l56 291q18 94 -11 135.5t-88 41.5q-40 0 -71 -17.5t-54 -43t-37 -55t-18 -53.5l-58 -299h-21z" />
    <glyph glyph-name="n" unicode="n" horiz-adv-x="510" 
d="M194 476q-1 -15 -5.5 -39.5t-9.5 -50.5q35 50 82 76.5t106 26.5q51 0 83.5 -27.5t42.5 -75.5q3 -24 0 -48.5t-7 -46.5l-56 -291h-20l56 291q7 35 7.5 55.5t-4.5 38.5q-2 9 -7.5 23.5t-18 27.5t-33 22.5t-51.5 9.5q-44 0 -78.5 -17.5t-59.5 -43.5t-40 -55.5t-19 -52.5
l-58 -299h-20l59 304q2 10 6.5 34t9 51t8.5 51.5t4 35.5h23z" />
    <glyph glyph-name="o" unicode="o" horiz-adv-x="509" 
d="M491 237q9 51 4 93t-24 72.5t-50.5 47.5t-73.5 17t-80.5 -17.5t-70 -48t-54.5 -72.5t-32 -92q-11 -55 -4 -97.5t27 -71.5t50.5 -43.5t66.5 -14.5q45 0 85 17t71.5 47.5t53 72t31.5 90.5zM351 488q45 0 80 -18.5t56.5 -51.5t28 -79t-3.5 -102q-11 -54 -36.5 -99.5
t-60.5 -78.5t-78.5 -52t-90.5 -19t-81 19.5t-54.5 53.5t-26 79.5t4.5 96.5q10 54 35.5 99.5t60.5 79.5t77.5 53t88.5 19z" />
    <glyph glyph-name="p" unicode="p" horiz-adv-x="515" 
d="M267 -11q-63 0 -98 28t-50 75l-56 -290h-21l97 497q0 1 4 20.5t9.5 47t11 57.5t7.5 52h21q-1 -17 -7 -47t-11 -54q13 18 31.5 38t41.5 36.5t53 27.5t66 11q46 0 79.5 -18.5t53 -52.5t24.5 -80t-6 -102q-10 -52 -33.5 -97t-56.5 -78t-74 -52t-86 -19zM273 10q41 0 77.5 17
t65.5 47t50 71t30 90q10 52 6.5 94.5t-21 73t-48.5 47t-75 16.5q-38 0 -71 -16t-59.5 -41t-44.5 -55t-24 -59l-22 -113q-6 -32 -1 -63t22 -55t45.5 -39t69.5 -15z" />
    <glyph glyph-name="q" unicode="q" horiz-adv-x="517" 
d="M490 390q5 24 9.5 47t9.5 39h21q-4 -18 -11 -48t-13 -58.5t-10 -49t-4 -21.5l-97 -497h-21l58 296q-34 -51 -84.5 -80t-104.5 -29q-37 0 -70 16t-56 47t-31.5 77.5t2.5 106.5q11 54 36 100t59.5 79.5t76 53t85.5 19.5q56 0 93.5 -27t51.5 -71zM247 10q39 0 72.5 15.5
t60.5 40t44.5 56.5t24.5 65l25 127q5 27 -1.5 54t-23 49t-44 36t-64.5 14q-38 0 -75 -15.5t-69 -45.5q-34 -32 -56 -76t-32 -94q-9 -49 -3.5 -90.5t23.5 -71.5t48 -47t70 -17z" />
    <glyph glyph-name="r" unicode="r" horiz-adv-x="268" 
d="M345 468q-4 1 -7.5 1h-6.5q-37 0 -66.5 -19.5t-51.5 -48t-35.5 -60.5t-18.5 -58l-55 -283h-21l58 301q0 1 4 22t9 49t10.5 57t6.5 47h21q-1 -17 -5.5 -45.5t-9.5 -52.5q11 21 27.5 41t37 36t44.5 25.5t51 9.5h13z" />
    <glyph glyph-name="s" unicode="s" horiz-adv-x="344" 
d="M356 442q-14 12 -36.5 18.5t-45.5 6.5q-14 0 -33 -4.5t-38.5 -16t-35 -30.5t-21.5 -48q-8 -39 12.5 -64t72.5 -46q22 -9 40.5 -21t31 -28.5t17.5 -37.5t-1 -49q-3 -19 -14.5 -42t-33 -43.5t-53 -34t-73.5 -13.5q-29 0 -52.5 8.5t-43.5 23.5l10 20q18 -13 41 -21.5
t50 -8.5q37 0 63.5 11t44 27.5t27.5 36t13 35.5q5 25 1 43t-15 31.5t-28 24t-38 19.5q-18 8 -37.5 18t-33.5 24t-21 35t-1 51q7 35 25.5 58t41.5 37t46.5 20t39.5 6q54 0 89 -26z" />
    <glyph glyph-name="t" unicode="t" horiz-adv-x="287" 
d="M255 3q-35 -12 -62 -12q-35 0 -51.5 14.5t-20.5 38t-0.5 54t9.5 61.5l58 298h-82l4 21h82l18 91l22 7l-19 -98h140l-4 -21h-140l-58 -298l-9.5 -57t-1.5 -47.5t16.5 -32t41.5 -11.5q24 0 54 11z" />
    <glyph glyph-name="u" unicode="u" horiz-adv-x="502" 
d="M402 0q1 16 6 41.5t10 51.5q-23 -32 -57 -58q-17 -14 -49.5 -29t-72.5 -15q-76 0 -109 50.5t-14 147.5l56 289h21l-56 -289q-17 -89 12 -133t94 -44q37 0 64.5 13.5t43.5 25.5q33 24 53.5 56.5t29.5 69.5l58 301h21l-12 -66l-46 -235l-15 -79q-6 -28 -11 -55t-6 -43h-21z
" />
    <glyph glyph-name="v" unicode="v" horiz-adv-x="423" 
d="M201 0l-92 476h23l85 -441l262 441h24l-281 -476h-21z" />
    <glyph glyph-name="w" unicode="w" horiz-adv-x="695" 
d="M453 476l63 -437l229 437h21l-247 -476h-19l-66 446l-245 -446h-19l-53 476h21l50 -437l239 437h26z" />
    <glyph glyph-name="x" unicode="x" horiz-adv-x="394" 
d="M349 0l-113 225l-199 -225h-24l216 243l-113 233h27l103 -214l189 214h25l-207 -233l120 -243h-24z" />
    <glyph glyph-name="y" unicode="y" horiz-adv-x="410" 
d="M-18 -200q18 7 41.5 21.5t50.5 39t56 60.5t59 87l7 11l-91 457h22l86 -428q16 27 41 69t53.5 89t56.5 94.5t50.5 86t37 63t14.5 26.5h24l-244 -410q-16 -26 -25 -41.5t-12 -20.5q-31 -54 -62 -92.5t-59.5 -65t-55 -42t-47.5 -24.5z" />
    <glyph glyph-name="z" unicode="z" horiz-adv-x="378" 
d="M128 476h330l-4 -21l-404 -434h320l-4 -21h-352l3 16l410 439h-303z" />
    <glyph glyph-name="braceleft" unicode="{" horiz-adv-x="264" 
d="M93 294q28 1 46.5 9.5t30.5 21t18 28t9 32.5q5 20 6.5 40.5t1.5 38.5v12q1 23 2 45t5 43q13 64 57 93t100 29h2l-3 -17h-8q-59 -2 -87 -29t-39 -80q-4 -19 -4.5 -35t-1.5 -32l-2 -31l-2 -34t-4 -34q-9 -47 -31.5 -73.5t-72.5 -34.5q43 -8 57.5 -33.5t4.5 -73.5
q-3 -15 -8.5 -32t-11.5 -34q-9 -32 -17 -55t-13 -46q-21 -107 82 -110h8l-3 -17h-2q-27 0 -50 7t-38 22t-21 39.5t1 60.5q9 44 27.5 87t26.5 87q3 14 2 29.5t-8 28.5t-22 22t-41 10z" />
    <glyph glyph-name="bar" unicode="|" horiz-adv-x="210" 
d="M264 752l-197 -1010h-23l197 1010h23z" />
    <glyph glyph-name="braceright" unicode="}" horiz-adv-x="264" 
d="M286 278q-27 -1 -46 -10t-31 -22t-18.5 -28.5t-9.5 -29.5q-5 -23 -6.5 -46t-1.5 -44l-1 -12q0 -18 -1.5 -36.5t-5.5 -36.5q-7 -38 -22 -62.5t-35.5 -39t-46 -20.5t-53.5 -6l2 17h7q55 3 84.5 28.5t39.5 79.5q4 19 5 36.5t2 34.5l2 30q2 17 2.5 34t3.5 32q8 45 31.5 74.5
t65.5 34.5q-40 11 -51 36.5t-2 71.5q3 17 9 34t11 34q9 30 17 52.5t13 45.5q11 53 -7.5 80t-75.5 29h-7l4 17q29 0 52.5 -6t38.5 -20.5t20.5 -38t-1.5 -57.5q-4 -22 -11.5 -44t-15.5 -44t-15.5 -44.5t-12.5 -46.5q-3 -17 -3 -32.5t7 -28t22.5 -21t43.5 -9.5z" />
    <glyph glyph-name="asciitilde" unicode="~" horiz-adv-x="596" 
d="M105 229q10 51 44 81t77 30q40 0 73 -14t65 -31t64.5 -31t71.5 -14q36 0 58.5 24.5t32.5 64.5h18q-6 -29 -18 -50t-28 -34.5t-34.5 -20t-36.5 -6.5q-40 0 -73 14t-65 30.5t-64.5 30.5t-70.5 14q-75 0 -95 -88h-19z" />
    <glyph glyph-name="uni00A0.nbspace" unicode="&#xa0;" horiz-adv-x="214" 
 />
    <glyph glyph-name="exclamdown" unicode="&#xa1;" horiz-adv-x="206" 
d="M170 297l-89 -493h-34l103 493h20zM194 467q11 0 16 -7t3 -21q-3 -14 -11.5 -21t-19.5 -7q-24 0 -18 28q5 28 30 28z" />
    <glyph glyph-name="cent" unicode="&#xa2;" horiz-adv-x="479" 
d="M267 -16l21 106q-52 5 -82.5 20.5t-50.5 43.5q-20 26 -26.5 68.5t5.5 102.5q9 49 32 90.5t55.5 73t73 52t86.5 26.5l20 105h20l-20 -105q38 0 65.5 -7.5t43.5 -16.5l-13 -19q-15 9 -42.5 15t-62.5 6q-44 0 -83 -18t-69.5 -48.5t-52 -70.5t-29.5 -83q-10 -52 -4 -91.5
t25.5 -66.5t51 -40.5t72.5 -13.5q43 0 73 7.5t50 15.5l1 -19q-15 -8 -46 -16t-73 -11l-21 -106h-20z" />
    <glyph glyph-name="sterling" unicode="&#xa3;" horiz-adv-x="479" 
d="M64 0l2 13q66 33 106 87t53 118q5 26 7.5 49t3.5 54h-106l4 19h106q-1 32 1.5 69t8.5 69q8 42 27.5 75.5t46 57.5t59 36.5t66.5 12.5q32 0 53.5 -5t35.5 -13l-14 -21q-13 8 -34 13.5t-50 5.5q-69 0 -108.5 -44.5t-53.5 -113.5q-8 -42 -10 -76t-2 -66h147l-4 -19h-144
q-1 -4 -2 -13t-2 -13q-2 -17 -4 -34.5t-5 -33.5q-12 -62 -46 -114t-85 -89q78 0 161.5 -1t162.5 -1l-4 -22h-377z" />
    <glyph glyph-name="currency" unicode="&#xa4;" horiz-adv-x="479" 
d="M181 408q20 57 49 103.5t65 79.5t79 51t91 18q42 0 69.5 -8.5t40.5 -16.5q-5 -8 -6.5 -12.5t-4.5 -9.5q-20 13 -46.5 19t-56.5 6q-85 0 -150.5 -59t-107.5 -171h269l-12 -24h-264q-6 -20 -9 -34t-6 -31q-2 -9 -3.5 -16t-3.5 -26h240l-11 -23h-233q-6 -116 33.5 -179
t124.5 -63q26 0 55 8.5t54 20.5l3 -21q-22 -14 -54 -22.5t-69 -8.5q-40 0 -73.5 15.5t-57 47.5t-34 82.5t-5.5 119.5h-65l8 23h60q2 19 3.5 26.5t3.5 16.5q3 17 6 30.5t9 33.5h-66l11 24h64z" />
    <glyph glyph-name="yen" unicode="&#xa5;" horiz-adv-x="479" 
d="M226 0l37 192h-160l3 16h160l20 101h-160l3 17h146q-27 78 -55.5 161t-54.5 162h27l77 -234q8 -23 16 -44.5t13 -44.5h3q17 22 36 46.5t36 45.5l172 231h27l-249 -323h146l-3 -17h-160l-20 -101h160l-3 -16h-160l-37 -192h-20z" />
    <glyph glyph-name="brokenbar" unicode="&#xa6;" horiz-adv-x="210" 
d="M151 170l-67 -340h-20l67 340h20zM249 675l-66 -340h-20l66 340h20z" />
    <glyph glyph-name="section" unicode="&#xa7;" horiz-adv-x="486" 
d="M166 357q-3 -17 0 -32.5t14.5 -30t33 -28.5t55.5 -27q36 -15 61 -27.5t46 -27.5q31 22 50.5 48.5t25.5 57.5q8 38 -11.5 66.5t-75.5 51.5q-30 11 -58 23.5t-53 31.5q-41 -29 -62 -53t-26 -53zM490 636q-16 12 -41.5 19.5t-61.5 7.5q-25 0 -49.5 -7t-44.5 -20t-34.5 -31.5
t-18.5 -42.5q-7 -36 10 -58.5t46 -38.5t63.5 -29.5t63.5 -31t45.5 -43.5t8.5 -66q-8 -38 -30 -68t-60 -57q11 -13 19.5 -36.5t2.5 -52.5q-6 -33 -23.5 -58.5t-42.5 -43t-57 -26.5t-68 -9q-41 0 -72 9.5t-49 23.5l15 20q14 -14 43 -23t72 -9q25 0 51 7t47.5 20.5t37.5 34
t21 47.5q8 41 -9 66t-46.5 42t-65.5 30.5t-65.5 31t-46.5 43t-9 67.5q5 25 26.5 56.5t72.5 65.5q-17 14 -24 34t-3 43q4 30 19.5 53.5t39 40t53.5 25.5t64 9q39 0 68.5 -7.5t46.5 -20.5z" />
    <glyph glyph-name="dieresis" unicode="&#xa8;" horiz-adv-x="300" 
d="M164 617q2 9 9.5 15t15.5 6t12.5 -6t2.5 -15q-2 -8 -8.5 -14t-14.5 -6t-13.5 6t-3.5 14zM342 617q2 9 9.5 15t15.5 6t12.5 -6t2.5 -15q-2 -8 -8.5 -14t-14.5 -6t-13.5 6t-3.5 14z" />
    <glyph glyph-name="copyright" unicode="&#xa9;" horiz-adv-x="677" 
d="M465 648q63 0 113.5 -24t83 -65.5t44.5 -98t0 -120.5q-13 -65 -47 -121.5t-82 -98.5t-107 -66t-122 -24t-113 24t-82 66t-44 98.5t1 121.5q12 64 45.5 120t81.5 98t106.5 66t121.5 24zM555 476q-11 6 -33.5 13t-57.5 7q-41 0 -73.5 -13t-56.5 -34.5t-39.5 -50.5
t-21.5 -61q-6 -33 -1.5 -62t20.5 -51t43.5 -34.5t68.5 -12.5q64 0 106 22q1 -5 0.5 -8.5t0.5 -8.5q-29 -15 -60.5 -20.5t-60.5 -5.5q-42 0 -72.5 13.5t-48.5 37.5t-23.5 56.5t1.5 70.5q8 42 30 76t52 57.5t66 36.5t72 13q35 0 60.5 -6.5t39.5 -14.5zM461 627
q-57 1 -111 -21.5t-98 -62t-75 -93t-43 -114.5q-12 -60 -1 -112.5t40.5 -90.5t75 -60t104.5 -22q57 -1 111 20.5t98.5 60.5t75.5 92.5t43 115.5q12 61 1 113.5t-40.5 91t-76 60.5t-104.5 22z" />
    <glyph glyph-name="ordfeminine" unicode="&#xaa;" horiz-adv-x="321" 
d="M306 273l3 54q-8 -11 -21 -21.5t-28.5 -18.5t-33 -13.5t-33.5 -5.5q-44 0 -65.5 25.5t-14.5 60.5q10 49 63.5 79.5t148.5 26.5h12l3 17q2 12 1.5 28t-7.5 31t-23.5 25t-46.5 10q-46 0 -80 -23l-5 14q22 14 45 20t45 6q32 0 51 -10t28 -27.5t9.5 -41t-4.5 -50.5l-22 -116
q-3 -18 -6 -37.5t-5 -33.5zM334 443h-9q-28 1 -59.5 -1.5t-59 -12t-47.5 -27t-26 -46.5q-7 -35 13.5 -52.5t52.5 -17.5q29 0 55 14.5t42 31.5q20 20 22 33z" />
    <glyph glyph-name="guillemotleft" unicode="&#xab;" horiz-adv-x="388" 
d="M113 249l103 -174h-25l-102 174q43 44 85.5 87.5t84.5 86.5h25zM262 249l104 -174h-26l-101 174l169 174h24z" />
    <glyph glyph-name="logicalnot" unicode="&#xac;" horiz-adv-x="596" 
d="M631 376l-47 -242h-24l43 221h-487l4 21h511z" />
    <glyph glyph-name="uni00AD" unicode="&#xad;" horiz-adv-x="596" 
d="M612 278l-5 -25h-512l5 25h512z" />
    <glyph glyph-name="registered" unicode="&#xae;" horiz-adv-x="510" 
d="M388 682q45 0 82 -16.5t61 -46t33 -70.5t0 -90q-9 -47 -34 -88t-60 -71t-78 -47.5t-89 -17.5t-82.5 17.5t-60 47.5t-32 71t0.5 88q9 46 33.5 87t59 71t77.5 47.5t89 17.5zM385 662q-40 0 -78.5 -16t-70 -43.5t-54.5 -64.5t-31 -79t0 -79t29.5 -65t54.5 -44t74 -16
q39 0 77.5 16t70.5 43.5t55 64.5t31 79t-0.5 79.5t-30 65t-54 43.5t-73.5 16zM271 331h-24l49 246q17 4 34.5 5t28.5 1q18 0 34 -4t27 -12t16.5 -21.5t1.5 -32.5q-5 -25 -22.5 -38.5t-43.5 -21.5q22 -6 29.5 -22t5.5 -42q1 -28 1.5 -39.5t2.5 -18.5h-23q-3 6 -4 23.5t0 38.5
q0 26 -13.5 37t-42.5 11h-36zM296 459h37q29 0 52.5 11.5t29.5 40.5q2 10 0 19.5t-9 17t-20.5 12.5t-34.5 5q-12 0 -20 -0.5t-15 -1.5z" />
    <glyph glyph-name="macron" unicode="&#xaf;" horiz-adv-x="300" 
d="M369 621l-3 -18h-194l3 18h194z" />
    <glyph glyph-name="degree" unicode="&#xb0;" horiz-adv-x="293" 
d="M288 686q27 0 46 -9.5t30.5 -25t15 -36.5t-0.5 -43q-6 -27 -20 -49t-33.5 -37.5t-42 -24t-44.5 -8.5q-51 0 -75 33.5t-15 79.5q5 26 18 48t32 38t42 25t47 9zM281 671q-24 0 -43.5 -9.5t-34.5 -24.5t-24.5 -33.5t-12.5 -36.5q-8 -43 14 -70.5t63 -27.5q21 0 40.5 7.5
t35.5 21t27 32t15 40.5q3 16 1.5 33.5t-10 32.5t-26 25t-45.5 10z" />
    <glyph glyph-name="plusminus" unicode="&#xb1;" horiz-adv-x="596" 
d="M421 565l-42 -216h246l-3 -18h-246l-44 -224h-20l44 224h-243l3 18h243l42 216h20zM561 17l-3 -17h-509l3 17h509z" />
    <glyph glyph-name="twosuperior" unicode="&#xb2;" horiz-adv-x="330" 
d="M117 291l66 53q78 63 125 112t55 94q4 19 2 35.5t-11 28.5t-26 19t-44 7q-26 0 -46.5 -9t-36.5 -19l-6 14q19 14 43 23.5t53 9.5q30 0 50 -9.5t31 -24.5t14 -32.5t0 -33.5q-11 -57 -57.5 -107.5t-119.5 -108.5l-60 -49h193l-4 -20h-224z" />
    <glyph glyph-name="threesuperior" unicode="&#xb3;" horiz-adv-x="316" 
d="M197 636q17 9 41 16.5t50 7.5t43.5 -7t27 -19t12.5 -27t0 -30q-7 -33 -33.5 -61t-75.5 -36q53 -5 74.5 -33t13.5 -69q-4 -20 -16.5 -39.5t-32.5 -35t-47.5 -25t-60.5 -9.5q-27 0 -49 6t-36 15l9 14q14 -8 32.5 -13.5t44.5 -5.5q31 0 55.5 8.5t41 22t26.5 30t13 31.5
q5 26 -3.5 44t-25.5 29t-40 16t-47 5h-11l3 17h13q16 0 37 4.5t41 15t35 27t20 40.5q3 13 0.5 25t-11 21.5t-23.5 15.5t-37 6q-23 0 -45 -6t-36 -14z" />
    <glyph glyph-name="acute" unicode="&#xb4;" horiz-adv-x="300" 
d="M381 677q-35 -32 -69.5 -68.5t-69.5 -68.5h-19l121 137h37z" />
    <glyph glyph-name="uni00B5" unicode="&#xb5;" horiz-adv-x="519" 
d="M465 113q-5 -30 -10 -59t-8 -54h-28l14 95q-34 -51 -81 -78.5t-111 -27.5q-10 0 -25 1.5t-30.5 8t-28.5 19t-20 34.5l-8 16q-13 -63 -28 -136.5t-27 -136.5h-33l133 685h33l-55 -284q-7 -34 -6.5 -67t11.5 -58.5t34.5 -41t64.5 -15.5q33 0 64 14t56.5 36t43 49.5
t22.5 54.5l61 312h34z" />
    <glyph glyph-name="paragraph" unicode="&#xb6;" horiz-adv-x="486" 
d="M245 -53l64 326h-18q-33 0 -65 11.5t-55.5 35t-35 58.5t-3.5 82q6 39 25.5 77t55.5 69t90 50t129 19q30 0 51.5 -1.5t38.5 -3.5l-141 -723h-21l138 708h-93l-138 -708h-22z" />
    <glyph glyph-name="periodcentered" unicode="&#xb7;" horiz-adv-x="173" 
d="M133 237q-14 0 -20.5 10.5t-3.5 25.5q2 15 13.5 25.5t25.5 10.5t20 -10.5t4 -25.5q-4 -17 -14.5 -26.5t-24.5 -9.5z" />
    <glyph glyph-name="cedilla" unicode="&#xb8;" horiz-adv-x="300" 
d="M176 2l-43 -55q26 -5 40 -23.5t9 -41.5q-8 -37 -34 -51t-61 -14q-24 0 -48 11l10 19q11 -5 21.5 -7.5t24.5 -2.5q22 0 40 9t23 35q4 26 -12.5 36.5t-46.5 15.5l53 69h24z" />
    <glyph glyph-name="onesuperior" unicode="&#xb9;" horiz-adv-x="288" 
d="M212 274l71 368l-82 -37l-2 12q23 11 41 19t41 19h20l-74 -381h-15z" />
    <glyph glyph-name="ordmasculine" unicode="&#xba;" horiz-adv-x="334" 
d="M285 589q66 0 95 -44.5t15 -115.5q-8 -42 -27.5 -72.5t-44 -50.5t-52 -29.5t-51.5 -9.5q-61 0 -93.5 42.5t-18.5 115.5q7 38 25.5 68.5t43 51.5t53 32.5t55.5 11.5zM280 570q-32 0 -58 -13t-44.5 -33.5t-31 -46t-17.5 -51.5q-6 -30 -0.5 -56t19 -45t33.5 -29.5t44 -10.5
q27 0 51.5 10.5t44.5 29.5t34.5 45.5t20.5 57.5q4 23 2.5 48t-12 46t-31.5 34.5t-55 13.5z" />
    <glyph glyph-name="guillemotright" unicode="&#xbb;" horiz-adv-x="388" 
d="M124 423h25l102 -174q-42 -43 -85 -86.5t-85 -87.5h-25l171 174zM273 423h26q25 -42 51 -87.5t51 -87.5q-43 -43 -85.5 -86t-84.5 -87h-25l170 174z" />
    <glyph glyph-name="onequarter" unicode="&#xbc;" horiz-adv-x="706" 
d="M106 -11l514 672h25l-514 -672h-25zM240 626h-2l-114 -64l-6 18l126 72h21l-74 -384h-20zM578 -2l24 121h-209l2 14l285 295h2l-56 -289h73l-4 -20h-73l-24 -121h-20zM606 139q42 216 48 237q-24 -27 -227 -235v-2h179z" />
    <glyph glyph-name="onehalf" unicode="&#xbd;" horiz-adv-x="411" 
d="M106 -11l514 672h25l-514 -672h-25zM240 626h-2l-114 -64l-6 18l126 72h21l-74 -384h-20zM418 22l66 53q78 63 125 112t55 94q4 19 2 35.5t-11 28.5t-26 19t-44 7q-26 0 -46.5 -9t-36.5 -19l-6 14q19 14 43 23.5t53 9.5q30 0 50 -9.5t31 -24.5t14 -32.5t0 -33.5
q-11 -57 -57.5 -107.5t-119.5 -108.5l-60 -49h193l-4 -20h-224z" />
    <glyph glyph-name="threequarters" unicode="&#xbe;" horiz-adv-x="706" 
d="M106 -11l514 672h25l-514 -672h-25zM578 -2l24 121h-209l2 14l285 295h2l-56 -289h73l-4 -20h-73l-24 -121h-20zM606 139q42 216 48 237q-24 -27 -227 -235v-2h179zM197 636q17 9 41 16.5t50 7.5t43.5 -7t27 -19t12.5 -27t0 -30q-7 -33 -33.5 -61t-75.5 -36
q53 -5 74.5 -33t13.5 -69q-4 -20 -16.5 -39.5t-32.5 -35t-47.5 -25t-60.5 -9.5q-27 0 -49 6t-36 15l9 14q14 -8 32.5 -13.5t44.5 -5.5q31 0 55.5 8.5t41 22t26.5 30t13 31.5q5 26 -3.5 44t-25.5 29t-40 16t-47 5h-11l3 17h13q16 0 37 4.5t41 15t35 27t20 40.5q3 13 0.5 25
t-11 21.5t-23.5 15.5t-37 6q-23 0 -45 -6t-36 -14z" />
    <glyph glyph-name="questiondown" unicode="&#xbf;" horiz-adv-x="375" 
d="M299 288v-3q0 -5 -1 -8q0 -6 -0.5 -14.5t-2.5 -16.5q-6 -33 -31 -75.5t-62 -81.5q-48 -48 -79.5 -87.5t-39.5 -81.5q-11 -54 15.5 -84.5t88.5 -30.5q26 0 53.5 7t49.5 19l6 -16q-52 -33 -124 -33q-36 0 -61 11.5t-39.5 30t-18.5 43t1 50.5q9 45 41 86.5t81 89.5
q78 78 92 152q2 10 3 19.5t2 14.5q0 2 -0.5 4.5t-0.5 4.5h27zM322 472q11 0 16 -7t3 -21q-3 -14 -11.5 -21t-19.5 -7q-24 0 -18 28q5 28 30 28z" />
    <glyph glyph-name="Agrave" unicode="&#xc0;" horiz-adv-x="558" 
d="M33 0l376 674h11l115 -674h-24l-44 251h-272l-141 -251h-21zM207 272h259l-61 354zM405 824q14 -31 34 -68.5t34 -69.5h-20l-9 16t-22 38t-27.5 45.5t-24.5 38.5h35z" />
    <glyph glyph-name="Aacute" unicode="&#xc1;" horiz-adv-x="574" 
d="M33 0l376 674h11l115 -674h-24l-44 251h-272l-141 -251h-21zM207 272h259l-61 354zM567 846q-35 -32 -69.5 -68.5t-69.5 -68.5h-19l121 137h37z" />
    <glyph glyph-name="Acircumflex" unicode="&#xc2;" horiz-adv-x="558" 
d="M33 0l376 674h11l115 -674h-24l-44 251h-272l-141 -251h-21zM207 272h259l-61 354zM454 814l5.5 -9t13.5 -22.5t17 -29t17 -29t13.5 -22l5.5 -8.5h-24l-63 107l-109 -107h-21l119 120h26z" />
    <glyph glyph-name="Atilde" unicode="&#xc3;" horiz-adv-x="574" 
d="M33 0l376 674h11l115 -674h-24l-44 251h-272l-141 -251h-21zM207 272h259l-61 354zM324 723q7 27 23.5 47.5t39.5 20.5q15 0 27 -6.5t22.5 -14t22.5 -13.5t27 -6q32 0 43 43h16q-7 -27 -21.5 -44t-40.5 -17q-15 0 -27 6t-23 13.5t-22.5 13.5t-26.5 6q-17 0 -26 -14.5
t-17 -34.5h-17z" />
    <glyph glyph-name="Adieresis" unicode="&#xc4;" horiz-adv-x="558" 
d="M33 0l376 674h11l115 -674h-24l-44 251h-272l-141 -251h-21zM207 272h259l-61 354zM331 775q2 9 9.5 15t15.5 6t12.5 -6t2.5 -15q-2 -8 -8.5 -14t-14.5 -6t-13.5 6t-3.5 14zM509 775q2 9 9.5 15t15.5 6t12.5 -6t2.5 -15q-2 -8 -8.5 -14t-14.5 -6t-13.5 6t-3.5 14z" />
    <glyph glyph-name="Aring" unicode="&#xc5;" horiz-adv-x="558" 
d="M33 0l376 674h11l115 -674h-24l-44 251h-272l-141 -251h-21zM207 272h259l-61 354zM516 736q-3 -18 -12.5 -33t-23 -26.5t-30 -18t-33.5 -6.5t-31 6.5t-23 18t-12.5 26.5t-0.5 33q7 35 36 59t64 24t54 -24t12 -59zM371 736q-5 -28 9.5 -45.5t40.5 -17.5q27 0 48.5 17.5
t26.5 45.5q5 26 -9 44.5t-41 18.5q-26 0 -48 -18.5t-27 -44.5z" />
    <glyph glyph-name="AE" unicode="&#xc6;" horiz-adv-x="724" 
d="M8 0l221 333l226 341h350l-1 -1l-3 -19h-295l-27 -290h254l-4 -20h-249l-24 -324h243l-3 -20h-268l21 279h-233q-60 -93 -95 -146t-53.5 -81t-25 -37.5t-9.5 -14.5h-25zM448 298l36 361h-17l-235 -361h216z" />
    <glyph glyph-name="Ccedilla" unicode="&#xc7;" horiz-adv-x="548" 
d="M517 21q-37 -15 -83 -23.5t-92 -8.5q-70 2 -122.5 26t-83.5 68.5t-40 108.5t7 146q15 78 51 142t88.5 109.5t119.5 70.5t144 25q36 0 68.5 -6.5t61.5 -23.5l-11 -20q-28 14 -61 21t-59 7q-72 0 -135 -21.5t-112.5 -63t-84 -102t-49.5 -138.5q-14 -75 -7 -135t36 -103
t77.5 -66t116.5 -23q45 0 89 8t78 22zM346 4l-43 -55q26 -5 40 -23.5t9 -41.5q-8 -37 -34 -51t-61 -14q-24 0 -48 11l10 19q11 -5 21.5 -7.5t24.5 -2.5q22 0 40 9t23 35q4 26 -12.5 36.5t-46.5 15.5l53 69h24z" />
    <glyph glyph-name="Egrave" unicode="&#xc8;" horiz-adv-x="456" 
d="M411 21l-4 -21h-323l131 674h307l-5 -21h-286l-55 -286h270l-4 -21h-270l-63 -325h302zM352 847q14 -31 34 -68.5t34 -69.5h-20l-9 16t-22 38t-27.5 45.5t-24.5 38.5h35z" />
    <glyph glyph-name="Eacute" unicode="&#xc9;" horiz-adv-x="442" 
d="M411 21l-4 -21h-323l131 674h307l-5 -21h-286l-55 -286h270l-4 -21h-270l-63 -325h302zM509 846q-35 -32 -69.5 -68.5t-69.5 -68.5h-19l121 137h37z" />
    <glyph glyph-name="Ecircumflex" unicode="&#xca;" horiz-adv-x="456" 
d="M417 831l5.5 -9t13.5 -22.5t17 -29t17 -29t13.5 -22l5.5 -8.5h-24l-63 107l-109 -107h-21l119 120h26zM411 21l-4 -21h-323l131 674h307l-5 -21h-286l-55 -286h270l-4 -21h-270l-63 -325h302z" />
    <glyph glyph-name="Edieresis" unicode="&#xcb;" horiz-adv-x="442" 
d="M411 21l-4 -21h-323l131 674h307l-5 -21h-286l-55 -286h270l-4 -21h-270l-63 -325h302zM285 764q2 9 9.5 15t15.5 6t12.5 -6t2.5 -15q-2 -8 -8.5 -14t-14.5 -6t-13.5 6t-3.5 14zM463 764q2 9 9.5 15t15.5 6t12.5 -6t2.5 -15q-2 -8 -8.5 -14t-14.5 -6t-13.5 6t-3.5 14z
" />
    <glyph glyph-name="Igrave" unicode="&#xcc;" horiz-adv-x="208" 
d="M252.664 673.991l-143.522 -673.991h-22l143.522 673.991h22zM191 847q14 -31 34 -68.5t34 -69.5h-20l-9 16t-22 38t-27.5 45.5t-24.5 38.5h35z" />
    <glyph glyph-name="Iacute" unicode="&#xcd;" horiz-adv-x="208" 
d="M379 846q-35 -32 -69.5 -68.5t-69.5 -68.5h-19l121 137h37zM252.664 673.991l-143.522 -673.991h-22l143.522 673.991h22z" />
    <glyph glyph-name="Icircumflex" unicode="&#xce;" horiz-adv-x="208" 
d="M252.664 673.991l-143.522 -673.991h-22l143.522 673.991h22zM275 831l5.5 -9t13.5 -22.5t17 -29t17 -29t13.5 -22l5.5 -8.5h-24l-63 107l-109 -107h-21l119 120h26z" />
    <glyph glyph-name="Idieresis" unicode="&#xcf;" horiz-adv-x="208" 
d="M252.664 673.991l-143.522 -673.991h-22l143.522 673.991h22zM138 764q2 9 9.5 15t15.5 6t12.5 -6t2.5 -15q-2 -8 -8.5 -14t-14.5 -6t-13.5 6t-3.5 14zM316 764q2 9 9.5 15t15.5 6t12.5 -6t2.5 -15q-2 -8 -8.5 -14t-14.5 -6t-13.5 6t-3.5 14z" />
    <glyph glyph-name="Eth" unicode="&#xd0;" horiz-adv-x="636" 
d="M64 353h88l61 311q25 5 50 8t48 4.5t44 2t37 0.5q153 0 220 -86t35 -251q-17 -85 -55.5 -149t-92.5 -108q-65 -53 -139 -71t-160 -18q-23 0 -54 1t-62 3l64 334h-88zM386 658q-42 0 -79.5 -2.5t-76.5 -9.5l-57 -293h229l-4 -19h-229l-60 -313q11 -1 25.5 -2t28 -1.5
t24.5 -0.5h17q81 0 151 16.5t133 66.5q52 41 88 105.5t50 136.5q31 158 -33 237t-207 79z" />
    <glyph glyph-name="Ntilde" unicode="&#xd1;" horiz-adv-x="609" 
d="M215 674h13l284 -629l123 629h21l-131 -674h-16l-283 624l-121 -624h-21zM366 729q7 27 23.5 47.5t39.5 20.5q15 0 27 -6.5t22.5 -14t22.5 -13.5t27 -6q32 0 43 43h16q-7 -27 -21.5 -44t-40.5 -17q-15 0 -27 6t-23 13.5t-22.5 13.5t-26.5 6q-17 0 -26 -14.5t-17 -34.5
h-17z" />
    <glyph glyph-name="Ograve" unicode="&#xd2;" horiz-adv-x="654" 
d="M646 336q14 74 7.5 134.5t-33 103.5t-69.5 66t-102 23q-57 0 -110 -24.5t-96 -67.5t-74 -102.5t-45 -130.5q-14 -72 -7 -132.5t32 -103.5t67.5 -67t98.5 -24q60 0 113.5 24t97.5 67t75 102.5t45 131.5zM454 685q63 0 110 -25.5t74.5 -71t35 -110t-7.5 -142.5
q-15 -74 -48 -137.5t-83 -111.5q-47 -48 -105 -73t-120 -25q-57 0 -102 25t-74 71q-31 48 -38.5 111.5t7.5 141.5q15 75 48.5 139t80.5 110t104 72t118 26zM427 847q14 -31 34 -68.5t34 -69.5h-20l-9 16t-22 38t-27.5 45.5t-24.5 38.5h35z" />
    <glyph glyph-name="Oacute" unicode="&#xd3;" horiz-adv-x="639" 
d="M646 336q14 74 7.5 134.5t-33 103.5t-69.5 66t-102 23q-57 0 -110 -24.5t-96 -67.5t-74 -102.5t-45 -130.5q-14 -72 -7 -132.5t32 -103.5t67.5 -67t98.5 -24q60 0 113.5 24t97.5 67t75 102.5t45 131.5zM454 685q63 0 110 -25.5t74.5 -71t35 -110t-7.5 -142.5
q-15 -74 -48 -137.5t-83 -111.5q-47 -48 -105 -73t-120 -25q-57 0 -102 25t-74 71q-31 48 -38.5 111.5t7.5 141.5q15 75 48.5 139t80.5 110t104 72t118 26zM605 847q-35 -32 -69.5 -68.5t-69.5 -68.5h-19l121 137h37z" />
    <glyph glyph-name="Ocircumflex" unicode="&#xd4;" horiz-adv-x="654" 
d="M646 336q14 74 7.5 134.5t-33 103.5t-69.5 66t-102 23q-57 0 -110 -24.5t-96 -67.5t-74 -102.5t-45 -130.5q-14 -72 -7 -132.5t32 -103.5t67.5 -67t98.5 -24q60 0 113.5 24t97.5 67t75 102.5t45 131.5zM454 685q63 0 110 -25.5t74.5 -71t35 -110t-7.5 -142.5
q-15 -74 -48 -137.5t-83 -111.5q-47 -48 -105 -73t-120 -25q-57 0 -102 25t-74 71q-31 48 -38.5 111.5t7.5 141.5q15 75 48.5 139t80.5 110t104 72t118 26zM493 831l5.5 -9t13.5 -22.5t17 -29t17 -29t13.5 -22l5.5 -8.5h-24l-63 107l-109 -107h-21l119 120h26z" />
    <glyph glyph-name="Otilde" unicode="&#xd5;" horiz-adv-x="639" 
d="M646 336q14 74 7.5 134.5t-33 103.5t-69.5 66t-102 23q-57 0 -110 -24.5t-96 -67.5t-74 -102.5t-45 -130.5q-14 -72 -7 -132.5t32 -103.5t67.5 -67t98.5 -24q60 0 113.5 24t97.5 67t75 102.5t45 131.5zM454 685q63 0 110 -25.5t74.5 -71t35 -110t-7.5 -142.5
q-15 -74 -48 -137.5t-83 -111.5q-47 -48 -105 -73t-120 -25q-57 0 -102 25t-74 71q-31 48 -38.5 111.5t7.5 141.5q15 75 48.5 139t80.5 110t104 72t118 26zM362 726q7 27 23.5 47.5t39.5 20.5q15 0 27 -6.5t22.5 -14t22.5 -13.5t27 -6q32 0 43 43h16q-7 -27 -21.5 -44
t-40.5 -17q-15 0 -27 6t-23 13.5t-22.5 13.5t-26.5 6q-17 0 -26 -14.5t-17 -34.5h-17z" />
    <glyph glyph-name="Odieresis" unicode="&#xd6;" horiz-adv-x="639" 
d="M646 336q14 74 7.5 134.5t-33 103.5t-69.5 66t-102 23q-57 0 -110 -24.5t-96 -67.5t-74 -102.5t-45 -130.5q-14 -72 -7 -132.5t32 -103.5t67.5 -67t98.5 -24q60 0 113.5 24t97.5 67t75 102.5t45 131.5zM454 685q63 0 110 -25.5t74.5 -71t35 -110t-7.5 -142.5
q-15 -74 -48 -137.5t-83 -111.5q-47 -48 -105 -73t-120 -25q-57 0 -102 25t-74 71q-31 48 -38.5 111.5t7.5 141.5q15 75 48.5 139t80.5 110t104 72t118 26zM365 775q2 9 9.5 15t15.5 6t12.5 -6t2.5 -15q-2 -8 -8.5 -14t-14.5 -6t-13.5 6t-3.5 14zM543 775q2 9 9.5 15t15.5 6
t12.5 -6t2.5 -15q-2 -8 -8.5 -14t-14.5 -6t-13.5 6t-3.5 14z" />
    <glyph glyph-name="multiply" unicode="&#xd7;" horiz-adv-x="596" 
d="M168 517l188 -240q69 57 140.5 119.5t140.5 120.5l14 -16l-283 -240q46 -58 94.5 -120t94.5 -120l-21 -17l-186 239q-69 -57 -141 -119t-141 -120l-13 17l281 240q-46 57 -94 119t-94 121z" />
    <glyph glyph-name="Oslash" unicode="&#xd8;" horiz-adv-x="654" 
d="M146 80q-29 51 -39 114t4 137q16 83 51.5 149t84 111.5t106 69.5t118.5 24q46 0 86.5 -16t78.5 -55q2 3 4.5 5t9.5 9.5t21 23t39 44.5l12 -10l-78 -86q29 -51 41 -116.5t-2 -140.5q-17 -89 -54.5 -155.5t-86 -110.5t-105 -66t-112.5 -22q-47 0 -90.5 20t-80.5 57l-79 -83
l-10 9zM331 9q64 0 119 28t98 74.5t72 105.5t41 121q12 60 5 124t-36 121l-462 -499q29 -34 70.5 -54.5t92.5 -20.5zM130 332q-13 -65 -4.5 -127t36.5 -110l459 503q-31 35 -70 52.5t-90 17.5q-66 0 -121.5 -29.5t-98 -77t-71 -108t-40.5 -121.5z" />
    <glyph glyph-name="Ugrave" unicode="&#xd9;" horiz-adv-x="613" 
d="M236 674l-82 -418q-6 -31 -9 -73.5t8.5 -80.5t43 -64.5t95.5 -26.5q68 0 113.5 26t75 64t44 80t20.5 75l82 418h21l-82 -418q-11 -56 -33 -105t-56.5 -85t-81.5 -56.5t-108 -20.5q-47 0 -78 13t-49.5 35t-26.5 50t-10 57.5t2 58.5t8 53l82 418h21zM417 847
q14 -31 34 -68.5t34 -69.5h-20l-9 16t-22 38t-27.5 45.5t-24.5 38.5h35z" />
    <glyph glyph-name="Uacute" unicode="&#xda;" horiz-adv-x="601" 
d="M236 674l-82 -418q-6 -31 -9 -73.5t8.5 -80.5t43 -64.5t95.5 -26.5q68 0 113.5 26t75 64t44 80t20.5 75l82 418h21l-82 -418q-11 -56 -33 -105t-56.5 -85t-81.5 -56.5t-108 -20.5q-47 0 -78 13t-49.5 35t-26.5 50t-10 57.5t2 58.5t8 53l82 418h21zM561 847
q-35 -32 -69.5 -68.5t-69.5 -68.5h-19l121 137h37z" />
    <glyph glyph-name="Ucircumflex" unicode="&#xdb;" horiz-adv-x="613" 
d="M236 674l-82 -418q-6 -31 -9 -73.5t8.5 -80.5t43 -64.5t95.5 -26.5q68 0 113.5 26t75 64t44 80t20.5 75l82 418h21l-82 -418q-11 -56 -33 -105t-56.5 -85t-81.5 -56.5t-108 -20.5q-47 0 -78 13t-49.5 35t-26.5 50t-10 57.5t2 58.5t8 53l82 418h21zM480 831l5.5 -9
t13.5 -22.5t17 -29t17 -29t13.5 -22l5.5 -8.5h-24l-63 107l-109 -107h-21l119 120h26z" />
    <glyph glyph-name="Udieresis" unicode="&#xdc;" horiz-adv-x="601" 
d="M236 674l-82 -418q-6 -31 -9 -73.5t8.5 -80.5t43 -64.5t95.5 -26.5q68 0 113.5 26t75 64t44 80t20.5 75l82 418h21l-82 -418q-11 -56 -33 -105t-56.5 -85t-81.5 -56.5t-108 -20.5q-47 0 -78 13t-49.5 35t-26.5 50t-10 57.5t2 58.5t8 53l82 418h21zM351 776q2 9 9.5 15
t15.5 6t12.5 -6t2.5 -15q-2 -8 -8.5 -14t-14.5 -6t-13.5 6t-3.5 14zM529 776q2 9 9.5 15t15.5 6t12.5 -6t2.5 -15q-2 -8 -8.5 -14t-14.5 -6t-13.5 6t-3.5 14z" />
    <glyph glyph-name="Yacute" unicode="&#xdd;" horiz-adv-x="473" 
d="M606 674l-300 -381l-56 -293h-21l56 293l-136 381h24l128 -357l279 357h26zM536 845q-35 -32 -69.5 -68.5t-69.5 -68.5h-19l121 137h37z" />
    <glyph glyph-name="Thorn" unicode="&#xde;" horiz-adv-x="492" 
d="M223 674h21l-29 -146q38 8 67 10t52 2q58 0 96.5 -14t60.5 -40q17 -22 23.5 -52t-0.5 -65q-9 -47 -33 -84t-60 -62.5t-82 -38.5t-99 -13q-20 0 -44.5 2t-48.5 6l-34 -179h-21zM152 202q29 -8 50.5 -9t43.5 -1q102 0 165.5 45t79.5 125q8 41 -0.5 71t-30.5 49.5
t-55.5 28.5t-76.5 9q-35 0 -66 -4t-51 -9z" />
    <glyph glyph-name="germandbls" unicode="&#xdf;" horiz-adv-x="508" 
d="M87 0l92 474q16 86 43.5 136t65.5 79v-1q29 22 59 32t66 10q28 0 53.5 -9.5t43 -29t24.5 -49t0 -68.5q-5 -26 -16 -48t-21 -33q-43 -16 -69.5 -41.5t-32.5 -60.5q-3 -17 -1.5 -29t7 -23t14 -21.5t19.5 -23.5l5 -7q13 -16 25 -32t19.5 -34t10.5 -39t-2 -46
q-13 -67 -64.5 -107t-124.5 -40q-25 0 -49 5t-43 13q4 8 6.5 12t5.5 10q42 -19 86 -19q33 0 59.5 9.5t46 25.5t32 37.5t17.5 45.5q8 42 -3.5 74.5t-35.5 61.5q-28 32 -44 61t-9 65q8 38 37 70.5t80 53.5q14 24 20 54q14 72 -17 106.5t-90 34.5q-74 0 -125 -55t-76 -182
l-91 -472h-23z" />
    <glyph glyph-name="agrave" unicode="&#xe0;" horiz-adv-x="446" 
d="M334 0q0 10 3.5 34t8.5 50q-4 -4 -7.5 -8.5t-5.5 -6.5q-41 -46 -82.5 -61t-74.5 -15q-28 0 -51 7t-39 22.5t-22.5 39.5t0.5 58q7 36 26.5 67t55.5 54t89.5 36.5t128.5 13.5h20l6 33q3 15 4.5 40t-7.5 49t-30.5 41t-65.5 17q-29 0 -61 -10t-65 -30l-8 16q35 23 70 33.5
t67 10.5q39 0 63 -12.5t37.5 -32t17.5 -42t3.5 -42t-3 -34t-3.5 -16.5l-20 -106q-2 -7 -7 -33t-11 -58.5t-10.5 -64.5t-4.5 -50h-22zM320 79q8 9 14 17t11.5 20.5t10 32t10.5 49.5l14 72q0 -1 -1 -1t-1 1q-34 2 -80.5 -2t-90 -19t-78 -45.5t-44.5 -83.5q-6 -28 -0.5 -48.5
t19 -33.5t33.5 -19t43 -6q12 0 28 2.5t34.5 9.5t38 20t39.5 34zM269 678q14 -31 34 -68.5t34 -69.5h-20l-9 16t-22 38t-27.5 45.5t-24.5 38.5h35z" />
    <glyph glyph-name="aacute" unicode="&#xe1;" horiz-adv-x="428" 
d="M334 0q0 10 3.5 34t8.5 50q-4 -4 -7.5 -8.5t-5.5 -6.5q-41 -46 -82.5 -61t-74.5 -15q-28 0 -51 7t-39 22.5t-22.5 39.5t0.5 58q7 36 26.5 67t55.5 54t89.5 36.5t128.5 13.5h20l6 33q3 15 4.5 40t-7.5 49t-30.5 41t-65.5 17q-29 0 -61 -10t-65 -30l-8 16q35 23 70 33.5
t67 10.5q39 0 63 -12.5t37.5 -32t17.5 -42t3.5 -42t-3 -34t-3.5 -16.5l-20 -106q-2 -7 -7 -33t-11 -58.5t-10.5 -64.5t-4.5 -50h-22zM320 79q8 9 14 17t11.5 20.5t10 32t10.5 49.5l14 72q0 -1 -1 -1t-1 1q-34 2 -80.5 -2t-90 -19t-78 -45.5t-44.5 -83.5q-6 -28 -0.5 -48.5
t19 -33.5t33.5 -19t43 -6q12 0 28 2.5t34.5 9.5t38 20t39.5 34zM447 677q-35 -32 -69.5 -68.5t-69.5 -68.5h-19l121 137h37z" />
    <glyph glyph-name="acircumflex" unicode="&#xe2;" horiz-adv-x="446" 
d="M334 0q0 10 3.5 34t8.5 50q-4 -4 -7.5 -8.5t-5.5 -6.5q-41 -46 -82.5 -61t-74.5 -15q-28 0 -51 7t-39 22.5t-22.5 39.5t0.5 58q7 36 26.5 67t55.5 54t89.5 36.5t128.5 13.5h20l6 33q3 15 4.5 40t-7.5 49t-30.5 41t-65.5 17q-29 0 -61 -10t-65 -30l-8 16q35 23 70 33.5
t67 10.5q39 0 63 -12.5t37.5 -32t17.5 -42t3.5 -42t-3 -34t-3.5 -16.5l-20 -106q-2 -7 -7 -33t-11 -58.5t-10.5 -64.5t-4.5 -50h-22zM320 79q8 9 14 17t11.5 20.5t10 32t10.5 49.5l14 72q0 -1 -1 -1t-1 1q-34 2 -80.5 -2t-90 -19t-78 -45.5t-44.5 -83.5q-6 -28 -0.5 -48.5
t19 -33.5t33.5 -19t43 -6q12 0 28 2.5t34.5 9.5t38 20t39.5 34zM345 660l5.5 -9t13.5 -22.5t17 -29t17 -29t13.5 -22l5.5 -8.5h-24l-63 107l-109 -107h-21l119 120h26z" />
    <glyph glyph-name="atilde" unicode="&#xe3;" horiz-adv-x="446" 
d="M334 0q0 10 3.5 34t8.5 50q-4 -4 -7.5 -8.5t-5.5 -6.5q-41 -46 -82.5 -61t-74.5 -15q-28 0 -51 7t-39 22.5t-22.5 39.5t0.5 58q7 36 26.5 67t55.5 54t89.5 36.5t128.5 13.5h20l6 33q3 15 4.5 40t-7.5 49t-30.5 41t-65.5 17q-29 0 -61 -10t-65 -30l-8 16q35 23 70 33.5
t67 10.5q39 0 63 -12.5t37.5 -32t17.5 -42t3.5 -42t-3 -34t-3.5 -16.5l-20 -106q-2 -7 -7 -33t-11 -58.5t-10.5 -64.5t-4.5 -50h-22zM320 79q8 9 14 17t11.5 20.5t10 32t10.5 49.5l14 72q0 -1 -1 -1t-1 1q-34 2 -80.5 -2t-90 -19t-78 -45.5t-44.5 -83.5q-6 -28 -0.5 -48.5
t19 -33.5t33.5 -19t43 -6q12 0 28 2.5t34.5 9.5t38 20t39.5 34zM215 565q7 27 23.5 47.5t39.5 20.5q15 0 27 -6.5t22.5 -14t22.5 -13.5t27 -6q32 0 43 43h16q-7 -27 -21.5 -44t-40.5 -17q-15 0 -27 6t-23 13.5t-22.5 13.5t-26.5 6q-17 0 -26 -14.5t-17 -34.5h-17z" />
    <glyph glyph-name="adieresis" unicode="&#xe4;" horiz-adv-x="446" 
d="M334 0q0 10 3.5 34t8.5 50q-4 -4 -7.5 -8.5t-5.5 -6.5q-41 -46 -82.5 -61t-74.5 -15q-28 0 -51 7t-39 22.5t-22.5 39.5t0.5 58q7 36 26.5 67t55.5 54t89.5 36.5t128.5 13.5h20l6 33q3 15 4.5 40t-7.5 49t-30.5 41t-65.5 17q-29 0 -61 -10t-65 -30l-8 16q35 23 70 33.5
t67 10.5q39 0 63 -12.5t37.5 -32t17.5 -42t3.5 -42t-3 -34t-3.5 -16.5l-20 -106q-2 -7 -7 -33t-11 -58.5t-10.5 -64.5t-4.5 -50h-22zM320 79q8 9 14 17t11.5 20.5t10 32t10.5 49.5l14 72q0 -1 -1 -1t-1 1q-34 2 -80.5 -2t-90 -19t-78 -45.5t-44.5 -83.5q-6 -28 -0.5 -48.5
t19 -33.5t33.5 -19t43 -6q12 0 28 2.5t34.5 9.5t38 20t39.5 34zM223 608q2 9 9.5 15t15.5 6t12.5 -6t2.5 -15q-2 -8 -8.5 -14t-14.5 -6t-13.5 6t-3.5 14zM401 608q2 9 9.5 15t15.5 6t12.5 -6t2.5 -15q-2 -8 -8.5 -14t-14.5 -6t-13.5 6t-3.5 14z" />
    <glyph glyph-name="aring" unicode="&#xe5;" horiz-adv-x="446" 
d="M334 0q0 10 3.5 34t8.5 50q-4 -4 -7.5 -8.5t-5.5 -6.5q-41 -46 -82.5 -61t-74.5 -15q-28 0 -51 7t-39 22.5t-22.5 39.5t0.5 58q7 36 26.5 67t55.5 54t89.5 36.5t128.5 13.5h20l6 33q3 15 4.5 40t-7.5 49t-30.5 41t-65.5 17q-29 0 -61 -10t-65 -30l-8 16q35 23 70 33.5
t67 10.5q39 0 63 -12.5t37.5 -32t17.5 -42t3.5 -42t-3 -34t-3.5 -16.5l-20 -106q-2 -7 -7 -33t-11 -58.5t-10.5 -64.5t-4.5 -50h-22zM320 79q8 9 14 17t11.5 20.5t10 32t10.5 49.5l14 72q0 -1 -1 -1t-1 1q-34 2 -80.5 -2t-90 -19t-78 -45.5t-44.5 -83.5q-6 -28 -0.5 -48.5
t19 -33.5t33.5 -19t43 -6q12 0 28 2.5t34.5 9.5t38 20t39.5 34zM408 622q-3 -18 -12.5 -33t-23 -26.5t-30 -18t-33.5 -6.5t-31 6.5t-23 18t-12.5 26.5t-0.5 33q7 35 36 59t64 24t54 -24t12 -59zM263 622q-5 -28 9.5 -45.5t40.5 -17.5q27 0 48.5 17.5t26.5 45.5q5 26 -9 44.5
t-41 18.5q-26 0 -48 -18.5t-27 -44.5z" />
    <glyph glyph-name="ae" unicode="&#xe6;" horiz-adv-x="739" 
d="M416 263q-14 -62 -10.5 -109.5t22 -80t50 -49t73.5 -16.5q50 0 80 8.5t46 16.5l2 -18q-23 -11 -57.5 -18t-79.5 -7q-29 0 -55 9t-46.5 27t-34 44.5t-17.5 60.5l-2 7q-18 -38 -42 -65.5t-52 -46t-58 -27.5t-60 -9q-34 0 -56.5 10.5t-35.5 27.5t-16.5 39.5t1.5 45.5
q17 82 95.5 127t230.5 41h5l7 36q3 14 3 39.5t-10.5 51t-35.5 44t-72 18.5q-32 0 -62 -10t-54 -24q-1 2 -1 6q-1 3 -1 7t-1 9q35 16 70 23.5t58 7.5q64 0 95.5 -37.5t32.5 -99.5l1 1q35 70 89.5 103.5t110.5 33.5q54 0 83 -24.5t41.5 -58t12 -68.5t-5.5 -57l-4 -20zM396 263
h-5q-40 1 -88.5 -2.5t-93 -18t-77.5 -44t-43 -79.5q-11 -57 16 -83.5t75 -26.5q31 0 59.5 9.5t52 26t41.5 37t30 43.5q5 9 9.5 27.5t6.5 29.5zM740 281q7 26 5.5 58.5t-14.5 61.5t-39 49t-68 20t-76.5 -18.5t-61 -46.5t-43.5 -61t-24 -63h318h3z" />
    <glyph glyph-name="ccedilla" unicode="&#xe7;" horiz-adv-x="428" 
d="M473 439q-20 14 -49 21.5t-63 7.5q-39 0 -79 -15.5t-74.5 -44.5t-61 -72t-36.5 -98q-11 -55 -3 -97.5t28.5 -71.5t52.5 -43.5t69 -14.5q76 0 137 28l1 -21q-32 -14 -69 -21t-74 -7q-41 0 -76 15.5t-58.5 47t-32 78t3.5 107.5q11 60 40 106.5t67.5 79t83 49t86.5 16.5
q36 0 67.5 -8.5t50.5 -21.5zM261 -9l-43 -55q26 -5 40 -23.5t9 -41.5q-8 -37 -34 -51t-61 -14q-24 0 -48 11l10 19q11 -5 21.5 -7.5t24.5 -2.5q22 0 40 9t23 35q4 26 -12.5 36.5t-46.5 15.5l53 69h24z" />
    <glyph glyph-name="egrave" unicode="&#xe8;" horiz-adv-x="474" 
d="M397 19q-33 -16 -68.5 -23t-74.5 -7q-49 1 -85 19t-57.5 50t-27.5 77.5t5 102.5q10 54 34.5 100t58.5 79t75.5 52t86.5 20q42 0 67.5 -15t40.5 -35t21 -42q7 -21 8 -60t-7 -81h-361l-3 -18q-22 -112 22 -170t141 -58q32 0 64 8t58 22zM339 468q-36 0 -70 -14t-63 -39
t-51 -60t-35 -77l337 -2q2 28 2.5 46.5t-0.5 27.5q-4 51 -35 84.5t-85 33.5zM321 677q14 -31 34 -68.5t34 -69.5h-20l-9 16t-22 38t-27.5 45.5t-24.5 38.5h35z" />
    <glyph glyph-name="eacute" unicode="&#xe9;" horiz-adv-x="468" 
d="M397 19q-33 -16 -68.5 -23t-74.5 -7q-49 1 -85 19t-57.5 50t-27.5 77.5t5 102.5q10 54 34.5 100t58.5 79t75.5 52t86.5 20q42 0 67.5 -15t40.5 -35t21 -42q7 -21 8 -60t-7 -81h-361l-3 -18q-22 -112 22 -170t141 -58q32 0 64 8t58 22zM339 468q-36 0 -70 -14t-63 -39
t-51 -60t-35 -77l337 -2q2 28 2.5 46.5t-0.5 27.5q-4 51 -35 84.5t-85 33.5zM482 678q-35 -32 -69.5 -68.5t-69.5 -68.5h-19l121 137h37z" />
    <glyph glyph-name="ecircumflex" unicode="&#xea;" horiz-adv-x="474" 
d="M397 19q-33 -16 -68.5 -23t-74.5 -7q-49 1 -85 19t-57.5 50t-27.5 77.5t5 102.5q10 54 34.5 100t58.5 79t75.5 52t86.5 20q42 0 67.5 -15t40.5 -35t21 -42q7 -21 8 -60t-7 -81h-361l-3 -18q-22 -112 22 -170t141 -58q32 0 64 8t58 22zM339 468q-36 0 -70 -14t-63 -39
t-51 -60t-35 -77l337 -2q2 28 2.5 46.5t-0.5 27.5q-4 51 -35 84.5t-85 33.5zM391 664l5.5 -9t13.5 -22.5t17 -29t17 -29t13.5 -22l5.5 -8.5h-24l-63 107l-109 -107h-21l119 120h26z" />
    <glyph glyph-name="edieresis" unicode="&#xeb;" horiz-adv-x="474" 
d="M397 19q-33 -16 -68.5 -23t-74.5 -7q-49 1 -85 19t-57.5 50t-27.5 77.5t5 102.5q10 54 34.5 100t58.5 79t75.5 52t86.5 20q42 0 67.5 -15t40.5 -35t21 -42q7 -21 8 -60t-7 -81h-361l-3 -18q-22 -112 22 -170t141 -58q32 0 64 8t58 22zM339 468q-36 0 -70 -14t-63 -39
t-51 -60t-35 -77l337 -2q2 28 2.5 46.5t-0.5 27.5q-4 51 -35 84.5t-85 33.5zM265 610q2 9 9.5 15t15.5 6t12.5 -6t2.5 -15q-2 -8 -8.5 -14t-14.5 -6t-13.5 6t-3.5 14zM443 610q2 9 9.5 15t15.5 6t12.5 -6t2.5 -15q-2 -8 -8.5 -14t-14.5 -6t-13.5 6t-3.5 14z" />
    <glyph glyph-name="igrave" unicode="&#xec;" horiz-adv-x="206" 
d="M91 0l93 480h22l-93 -480h-22zM157 677q14 -31 34 -68.5t34 -69.5h-20l-9 16t-22 38t-27.5 45.5t-24.5 38.5h35z" />
    <glyph glyph-name="iacute" unicode="&#xed;" horiz-adv-x="206" 
d="M91 0l93 480h22l-93 -480h-22zM334 677q-35 -32 -69.5 -68.5t-69.5 -68.5h-19l121 137h37z" />
    <glyph glyph-name="icircumflex" unicode="&#xee;" horiz-adv-x="206" 
d="M91 0l93 480h22l-93 -480h-22zM244 660l5.5 -9t13.5 -22.5t17 -29t17 -29t13.5 -22l5.5 -8.5h-24l-63 107l-109 -107h-21l119 120h26z" />
    <glyph glyph-name="idieresis" unicode="&#xef;" horiz-adv-x="206" 
d="M91 0l93 480h22l-93 -480h-22zM115 610q2 9 9.5 15t15.5 6t12.5 -6t2.5 -15q-2 -8 -8.5 -14t-14.5 -6t-13.5 6t-3.5 14zM293 610q2 9 9.5 15t15.5 6t12.5 -6t2.5 -15q-2 -8 -8.5 -14t-14.5 -6t-13.5 6t-3.5 14z" />
    <glyph glyph-name="eth" unicode="&#xf0;" horiz-adv-x="510" 
d="M257 7q43 0 81.5 18t69.5 50t53 75t32 93q9 48 7.5 90t-17.5 73t-48 49t-84 18q-51 0 -91 -23t-69.5 -57.5t-48 -76.5t-25.5 -79q-10 -48 -5 -90t23.5 -73t49 -49t72.5 -18zM231 566l143 64q-24 23 -51 43t-53 35l15 17q26 -16 54.5 -38t54.5 -46q31 14 65 30t66 30
l6 -17l-123 -57q40 -42 67.5 -84.5t40.5 -89.5q12 -43 12 -92t-12 -112q-14 -69 -42 -118.5t-64 -81t-77 -46t-80 -14.5q-44 0 -78 17.5t-55 49.5t-27.5 77.5t4.5 101.5q12 62 39 110t62.5 80.5t76 49.5t79.5 17q16 0 37 -2t42.5 -11.5t41.5 -29t34 -53.5l-11 50
q-17 47 -41.5 89t-68.5 82l-153 -68z" />
    <glyph glyph-name="ntilde" unicode="&#xf1;" horiz-adv-x="510" 
d="M194 476q-1 -15 -5.5 -39.5t-9.5 -50.5q35 50 82 76.5t106 26.5q51 0 83.5 -27.5t42.5 -75.5q3 -24 0 -48.5t-7 -46.5l-56 -291h-20l56 291q7 35 7.5 55.5t-4.5 38.5q-2 9 -7.5 23.5t-18 27.5t-33 22.5t-51.5 9.5q-44 0 -78.5 -17.5t-59.5 -43.5t-40 -55.5t-19 -52.5
l-58 -299h-20l59 304q2 10 6.5 34t9 51t8.5 51.5t4 35.5h23zM270 574q7 27 23.5 47.5t39.5 20.5q15 0 27 -6.5t22.5 -14t22.5 -13.5t27 -6q32 0 43 43h16q-7 -27 -21.5 -44t-40.5 -17q-15 0 -27 6t-23 13.5t-22.5 13.5t-26.5 6q-17 0 -26 -14.5t-17 -34.5h-17z" />
    <glyph glyph-name="ograve" unicode="&#xf2;" horiz-adv-x="509" 
d="M491 237q9 51 4 93t-24 72.5t-50.5 47.5t-73.5 17t-80.5 -17.5t-70 -48t-54.5 -72.5t-32 -92q-11 -55 -4 -97.5t27 -71.5t50.5 -43.5t66.5 -14.5q45 0 85 17t71.5 47.5t53 72t31.5 90.5zM351 488q45 0 80 -18.5t56.5 -51.5t28 -79t-3.5 -102q-11 -54 -36.5 -99.5
t-60.5 -78.5t-78.5 -52t-90.5 -19t-81 19.5t-54.5 53.5t-26 79.5t4.5 96.5q10 54 35.5 99.5t60.5 79.5t77.5 53t88.5 19zM328 679q14 -31 34 -68.5t34 -69.5h-20l-9 16t-22 38t-27.5 45.5t-24.5 38.5h35z" />
    <glyph glyph-name="oacute" unicode="&#xf3;" horiz-adv-x="509" 
d="M491 237q9 51 4 93t-24 72.5t-50.5 47.5t-73.5 17t-80.5 -17.5t-70 -48t-54.5 -72.5t-32 -92q-11 -55 -4 -97.5t27 -71.5t50.5 -43.5t66.5 -14.5q45 0 85 17t71.5 47.5t53 72t31.5 90.5zM351 488q45 0 80 -18.5t56.5 -51.5t28 -79t-3.5 -102q-11 -54 -36.5 -99.5
t-60.5 -78.5t-78.5 -52t-90.5 -19t-81 19.5t-54.5 53.5t-26 79.5t4.5 96.5q10 54 35.5 99.5t60.5 79.5t77.5 53t88.5 19zM487 677q-35 -32 -69.5 -68.5t-69.5 -68.5h-19l121 137h37z" />
    <glyph glyph-name="ocircumflex" unicode="&#xf4;" horiz-adv-x="509" 
d="M491 237q9 51 4 93t-24 72.5t-50.5 47.5t-73.5 17t-80.5 -17.5t-70 -48t-54.5 -72.5t-32 -92q-11 -55 -4 -97.5t27 -71.5t50.5 -43.5t66.5 -14.5q45 0 85 17t71.5 47.5t53 72t31.5 90.5zM351 488q45 0 80 -18.5t56.5 -51.5t28 -79t-3.5 -102q-11 -54 -36.5 -99.5
t-60.5 -78.5t-78.5 -52t-90.5 -19t-81 19.5t-54.5 53.5t-26 79.5t4.5 96.5q10 54 35.5 99.5t60.5 79.5t77.5 53t88.5 19zM399 660l5.5 -9t13.5 -22.5t17 -29t17 -29t13.5 -22l5.5 -8.5h-24l-63 107l-109 -107h-21l119 120h26z" />
    <glyph glyph-name="otilde" unicode="&#xf5;" horiz-adv-x="509" 
d="M491 237q9 51 4 93t-24 72.5t-50.5 47.5t-73.5 17t-80.5 -17.5t-70 -48t-54.5 -72.5t-32 -92q-11 -55 -4 -97.5t27 -71.5t50.5 -43.5t66.5 -14.5q45 0 85 17t71.5 47.5t53 72t31.5 90.5zM351 488q45 0 80 -18.5t56.5 -51.5t28 -79t-3.5 -102q-11 -54 -36.5 -99.5
t-60.5 -78.5t-78.5 -52t-90.5 -19t-81 19.5t-54.5 53.5t-26 79.5t4.5 96.5q10 54 35.5 99.5t60.5 79.5t77.5 53t88.5 19zM264 569q7 27 23.5 47.5t39.5 20.5q15 0 27 -6.5t22.5 -14t22.5 -13.5t27 -6q32 0 43 43h16q-7 -27 -21.5 -44t-40.5 -17q-15 0 -27 6t-23 13.5
t-22.5 13.5t-26.5 6q-17 0 -26 -14.5t-17 -34.5h-17z" />
    <glyph glyph-name="odieresis" unicode="&#xf6;" horiz-adv-x="509" 
d="M491 237q9 51 4 93t-24 72.5t-50.5 47.5t-73.5 17t-80.5 -17.5t-70 -48t-54.5 -72.5t-32 -92q-11 -55 -4 -97.5t27 -71.5t50.5 -43.5t66.5 -14.5q45 0 85 17t71.5 47.5t53 72t31.5 90.5zM351 488q45 0 80 -18.5t56.5 -51.5t28 -79t-3.5 -102q-11 -54 -36.5 -99.5
t-60.5 -78.5t-78.5 -52t-90.5 -19t-81 19.5t-54.5 53.5t-26 79.5t4.5 96.5q10 54 35.5 99.5t60.5 79.5t77.5 53t88.5 19zM270 608q2 9 9.5 15t15.5 6t12.5 -6t2.5 -15q-2 -8 -8.5 -14t-14.5 -6t-13.5 6t-3.5 14zM448 608q2 9 9.5 15t15.5 6t12.5 -6t2.5 -15q-2 -8 -8.5 -14
t-14.5 -6t-13.5 6t-3.5 14z" />
    <glyph glyph-name="divide" unicode="&#xf7;" horiz-adv-x="596" 
d="M414 445q-2 -11 -10.5 -19.5t-19.5 -8.5t-16.5 8.5t-3.5 19.5q2 12 10.5 20t20.5 8q11 0 16 -8t3 -20zM95 254l4 21h511l-4 -21h-511zM346 96q-2 -11 -10.5 -19.5t-19.5 -8.5t-16.5 8.5t-3.5 19.5q2 12 11 20t21 8q11 0 15.5 -8t2.5 -20z" />
    <glyph glyph-name="oslash" unicode="&#xf8;" horiz-adv-x="520" 
d="M493 435q26 -35 35.5 -83.5t-1.5 -107.5q-13 -68 -42.5 -116t-67 -79t-79 -45.5t-79.5 -14.5q-33 0 -64 12t-58 34l-51 -57l-8 8l52 59q-25 35 -34.5 83t1.5 108q12 62 39.5 110t63.5 80.5t78 49t85 16.5q34 0 64 -11.5t56 -32.5h5l48 54l10 -8zM358 471q-51 0 -92 -21
t-71 -54t-49.5 -74.5t-27.5 -83.5q-19 -95 26 -176l326 365q-20 20 -48.5 32t-63.5 12zM506 242q7 38 2 83.5t-28 87.5l-2 4l-324 -365q22 -21 50.5 -32t60.5 -11q42 0 81 17.5t71.5 48t55.5 73.5t33 94z" />
    <glyph glyph-name="ugrave" unicode="&#xf9;" horiz-adv-x="519" 
d="M402 0q1 16 6 41.5t10 51.5q-23 -32 -57 -58q-17 -14 -49.5 -29t-72.5 -15q-76 0 -109 50.5t-14 147.5l56 289h21l-56 -289q-17 -89 12 -133t94 -44q37 0 64.5 13.5t43.5 25.5q33 24 53.5 56.5t29.5 69.5l58 301h21l-12 -66l-46 -235l-15 -79q-6 -28 -11 -55t-6 -43h-21z
M328 679q14 -31 34 -68.5t34 -69.5h-20l-9 16t-22 38t-27.5 45.5t-24.5 38.5h35z" />
    <glyph glyph-name="uacute" unicode="&#xfa;" horiz-adv-x="502" 
d="M402 0q1 16 6 41.5t10 51.5q-23 -32 -57 -58q-17 -14 -49.5 -29t-72.5 -15q-76 0 -109 50.5t-14 147.5l56 289h21l-56 -289q-17 -89 12 -133t94 -44q37 0 64.5 13.5t43.5 25.5q33 24 53.5 56.5t29.5 69.5l58 301h21l-12 -66l-46 -235l-15 -79q-6 -28 -11 -55t-6 -43h-21z
M497 677q-35 -32 -69.5 -68.5t-69.5 -68.5h-19l121 137h37z" />
    <glyph glyph-name="ucircumflex" unicode="&#xfb;" horiz-adv-x="519" 
d="M402 0q1 16 6 41.5t10 51.5q-23 -32 -57 -58q-17 -14 -49.5 -29t-72.5 -15q-76 0 -109 50.5t-14 147.5l56 289h21l-56 -289q-17 -89 12 -133t94 -44q37 0 64.5 13.5t43.5 25.5q33 24 53.5 56.5t29.5 69.5l58 301h21l-12 -66l-46 -235l-15 -79q-6 -28 -11 -55t-6 -43h-21z
M399 660l5.5 -9t13.5 -22.5t17 -29t17 -29t13.5 -22l5.5 -8.5h-24l-63 107l-109 -107h-21l119 120h26z" />
    <glyph glyph-name="udieresis" unicode="&#xfc;" horiz-adv-x="519" 
d="M270 608q2 9 9.5 15t15.5 6t12.5 -6t2.5 -15q-2 -8 -8.5 -14t-14.5 -6t-13.5 6t-3.5 14zM448 608q2 9 9.5 15t15.5 6t12.5 -6t2.5 -15q-2 -8 -8.5 -14t-14.5 -6t-13.5 6t-3.5 14zM402 0q1 16 6 41.5t10 51.5q-23 -32 -57 -58q-17 -14 -49.5 -29t-72.5 -15
q-76 0 -109 50.5t-14 147.5l56 289h21l-56 -289q-17 -89 12 -133t94 -44q37 0 64.5 13.5t43.5 25.5q33 24 53.5 56.5t29.5 69.5l58 301h21l-12 -66l-46 -235l-15 -79q-6 -28 -11 -55t-6 -43h-21z" />
    <glyph glyph-name="yacute" unicode="&#xfd;" horiz-adv-x="431" 
d="M460 675q-35 -32 -69.5 -68.5t-69.5 -68.5h-19l121 137h37zM-18 -200q18 7 41.5 21.5t50.5 39t56 60.5t59 87l7 11l-91 457h22l86 -428q16 27 41 69t53.5 89t56.5 94.5t50.5 86t37 63t14.5 26.5h24l-244 -410q-16 -26 -25 -41.5t-12 -20.5q-31 -54 -62 -92.5t-59.5 -65
t-55 -42t-47.5 -24.5z" />
    <glyph glyph-name="thorn" unicode="&#xfe;" horiz-adv-x="540" 
d="M242 672l-60 -308q35 66 92.5 97t126.5 31q40 0 72 -19t52 -52t27 -77.5t-3 -95.5q-14 -69 -41 -118t-62 -80.5t-76 -46t-83 -14.5q-53 0 -95.5 30t-57.5 87l-15 -75t-16 -81t-16.5 -81t-15.5 -76h-22l171 879h22zM149 193q-5 -24 -2 -47q7 -61 47 -99t100 -38
q42 0 79.5 17t67.5 47.5t51.5 74.5t32.5 98q9 45 4.5 85.5t-22.5 71.5t-48.5 49.5t-74.5 18.5q-29 0 -57.5 -9.5t-54.5 -26.5t-48 -41.5t-37 -54.5q-7 -14 -12.5 -29t-8.5 -29z" />
    <glyph glyph-name="ydieresis" unicode="&#xff;" horiz-adv-x="410" 
d="M-18 -200q18 7 41.5 21.5t50.5 39t56 60.5t59 87l7 11l-91 457h22l86 -428q16 27 41 69t53.5 89t56.5 94.5t50.5 86t37 63t14.5 26.5h24l-244 -410q-16 -26 -25 -41.5t-12 -20.5q-31 -54 -62 -92.5t-59.5 -65t-55 -42t-47.5 -24.5zM236 610q2 9 9.5 15t15.5 6t12.5 -6
t2.5 -15q-2 -8 -8.5 -14t-14.5 -6t-13.5 6t-3.5 14zM414 610q2 9 9.5 15t15.5 6t12.5 -6t2.5 -15q-2 -8 -8.5 -14t-14.5 -6t-13.5 6t-3.5 14z" />
    <glyph glyph-name="Amacron" unicode="&#x100;" horiz-adv-x="574" 
d="M33 0l376 674h11l115 -674h-24l-44 251h-272l-141 -251h-21zM207 272h259l-61 354zM550 752l-4 -18h-228l4 18h228z" />
    <glyph glyph-name="amacron" unicode="&#x101;" horiz-adv-x="446" 
d="M334 0q0 10 3.5 34t8.5 50q-4 -4 -7.5 -8.5t-5.5 -6.5q-41 -46 -82.5 -61t-74.5 -15q-28 0 -51 7t-39 22.5t-22.5 39.5t0.5 58q7 36 26.5 67t55.5 54t89.5 36.5t128.5 13.5h20l6 33q3 15 4.5 40t-7.5 49t-30.5 41t-65.5 17q-29 0 -61 -10t-65 -30l-8 16q35 23 70 33.5
t67 10.5q39 0 63 -12.5t37.5 -32t17.5 -42t3.5 -42t-3 -34t-3.5 -16.5l-20 -106q-2 -7 -7 -33t-11 -58.5t-10.5 -64.5t-4.5 -50h-22zM320 79q8 9 14 17t11.5 20.5t10 32t10.5 49.5l14 72q0 -1 -1 -1t-1 1q-34 2 -80.5 -2t-90 -19t-78 -45.5t-44.5 -83.5q-6 -28 -0.5 -48.5
t19 -33.5t33.5 -19t43 -6q12 0 28 2.5t34.5 9.5t38 20t39.5 34zM433 569l-4 -18h-228l4 18h228z" />
    <glyph glyph-name="Abreve" unicode="&#x102;" horiz-adv-x="574" 
d="M33 0l376 674h11l115 -674h-24l-44 251h-272l-141 -251h-21zM207 272h259l-61 354zM362 837q-1 -33 18 -55.5t55 -22.5q42 0 68.5 23t34.5 55h20q-10 -45 -44.5 -72t-82.5 -27q-30 0 -48 11t-28 27t-12 33t0 28h19z" />
    <glyph glyph-name="abreve" unicode="&#x103;" horiz-adv-x="446" 
d="M334 0q0 10 3.5 34t8.5 50q-4 -4 -7.5 -8.5t-5.5 -6.5q-41 -46 -82.5 -61t-74.5 -15q-28 0 -51 7t-39 22.5t-22.5 39.5t0.5 58q7 36 26.5 67t55.5 54t89.5 36.5t128.5 13.5h20l6 33q3 15 4.5 40t-7.5 49t-30.5 41t-65.5 17q-29 0 -61 -10t-65 -30l-8 16q35 23 70 33.5
t67 10.5q39 0 63 -12.5t37.5 -32t17.5 -42t3.5 -42t-3 -34t-3.5 -16.5l-20 -106q-2 -7 -7 -33t-11 -58.5t-10.5 -64.5t-4.5 -50h-22zM320 79q8 9 14 17t11.5 20.5t10 32t10.5 49.5l14 72q0 -1 -1 -1t-1 1q-34 2 -80.5 -2t-90 -19t-78 -45.5t-44.5 -83.5q-6 -28 -0.5 -48.5
t19 -33.5t33.5 -19t43 -6q12 0 28 2.5t34.5 9.5t38 20t39.5 34zM245 654q-1 -33 18 -55.5t55 -22.5q42 0 68.5 23t34.5 55h20q-10 -45 -44.5 -72t-82.5 -27q-30 0 -48 11t-28 27t-12 33t0 28h19z" />
    <glyph glyph-name="Aogonek" unicode="&#x104;" horiz-adv-x="574" 
d="M33 0l376 674h11l115 -674h-24l-44 251h-272l-141 -251h-21zM207 272h259l-61 354zM534 1q-18 -9 -38.5 -24t-38 -32t-29.5 -34.5t-13 -33.5q-2 -31 12 -41.5t37 -10.5q9 0 20.5 1t22.5 5l3 -17q-13 -5 -29.5 -8t-30.5 -3q-30 0 -46.5 22t-10.5 54q3 18 16.5 37t30.5 36
t36 30t34 19h24z" />
    <glyph glyph-name="aogonek" unicode="&#x105;" horiz-adv-x="446" 
d="M334 0q0 10 3.5 34t8.5 50q-4 -4 -7.5 -8.5t-5.5 -6.5q-41 -46 -82.5 -61t-74.5 -15q-28 0 -51 7t-39 22.5t-22.5 39.5t0.5 58q7 36 26.5 67t55.5 54t89.5 36.5t128.5 13.5h20l6 33q3 15 4.5 40t-7.5 49t-30.5 41t-65.5 17q-29 0 -61 -10t-65 -30l-8 16q35 23 70 33.5
t67 10.5q39 0 63 -12.5t37.5 -32t17.5 -42t3.5 -42t-3 -34t-3.5 -16.5l-20 -106q-2 -7 -7 -33t-11 -58.5t-10.5 -64.5t-4.5 -50h-22zM320 79q8 9 14 17t11.5 20.5t10 32t10.5 49.5l14 72q0 -1 -1 -1t-1 1q-34 2 -80.5 -2t-90 -19t-78 -45.5t-44.5 -83.5q-6 -28 -0.5 -48.5
t19 -33.5t33.5 -19t43 -6q12 0 28 2.5t34.5 9.5t38 20t39.5 34zM358 0q-18 -9 -38.5 -24t-38 -32t-29.5 -34.5t-13 -33.5q-2 -31 12 -41.5t37 -10.5q9 0 20.5 1t22.5 5l3 -17q-13 -5 -29.5 -8t-30.5 -3q-30 0 -46.5 22t-10.5 54q3 18 16.5 37t30.5 36t36 30t34 19h24z" />
    <glyph glyph-name="Cacute" unicode="&#x106;" horiz-adv-x="556" 
d="M517 21q-37 -15 -83 -23.5t-92 -8.5q-70 2 -122.5 26t-83.5 68.5t-40 108.5t7 146q15 78 51 142t88.5 109.5t119.5 70.5t144 25q36 0 68.5 -6.5t61.5 -23.5l-11 -20q-28 14 -61 21t-59 7q-72 0 -135 -21.5t-112.5 -63t-84 -102t-49.5 -138.5q-14 -75 -7 -135t36 -103
t77.5 -66t116.5 -23q45 0 89 8t78 22zM494 871q-5 -5 -16 -16.5t-25 -26t-29.5 -31t-28 -30t-21.5 -23t-10 -10.5l-16 1l113 136h33z" />
    <glyph glyph-name="cacute" unicode="&#x107;" horiz-adv-x="435" 
d="M473 439q-20 14 -49 21.5t-63 7.5q-39 0 -79 -15.5t-74.5 -44.5t-61 -72t-36.5 -98q-11 -55 -3 -97.5t28.5 -71.5t52.5 -43.5t69 -14.5q76 0 137 28l1 -21q-32 -14 -69 -21t-74 -7q-41 0 -76 15.5t-58.5 47t-32 78t3.5 107.5q11 60 40 106.5t67.5 79t83 49t86.5 16.5
q36 0 67.5 -8.5t50.5 -21.5zM399 678q-5 -5 -16 -16.5t-25 -26t-29.5 -31t-28 -30t-21.5 -23t-10 -10.5l-16 1l113 136h33z" />
    <glyph glyph-name="Ccircumflex" unicode="&#x108;" horiz-adv-x="556" 
d="M517 21q-37 -15 -83 -23.5t-92 -8.5q-70 2 -122.5 26t-83.5 68.5t-40 108.5t7 146q15 78 51 142t88.5 109.5t119.5 70.5t144 25q36 0 68.5 -6.5t61.5 -23.5l-11 -20q-28 14 -61 21t-59 7q-72 0 -135 -21.5t-112.5 -63t-84 -102t-49.5 -138.5q-14 -75 -7 -135t36 -103
t77.5 -66t116.5 -23q45 0 89 8t78 22zM460 871l67 -136h-29l-53 120l-102 -120h-27l117 136h27z" />
    <glyph glyph-name="ccircumflex" unicode="&#x109;" horiz-adv-x="435" 
d="M473 439q-20 14 -49 21.5t-63 7.5q-39 0 -79 -15.5t-74.5 -44.5t-61 -72t-36.5 -98q-11 -55 -3 -97.5t28.5 -71.5t52.5 -43.5t69 -14.5q76 0 137 28l1 -21q-32 -14 -69 -21t-74 -7q-41 0 -76 15.5t-58.5 47t-32 78t3.5 107.5q11 60 40 106.5t67.5 79t83 49t86.5 16.5
q36 0 67.5 -8.5t50.5 -21.5zM365 678l67 -136h-29l-53 120l-102 -120h-27l117 136h27z" />
    <glyph glyph-name="Cdotaccent" unicode="&#x10a;" horiz-adv-x="556" 
d="M517 21q-37 -15 -83 -23.5t-92 -8.5q-70 2 -122.5 26t-83.5 68.5t-40 108.5t7 146q15 78 51 142t88.5 109.5t119.5 70.5t144 25q36 0 68.5 -6.5t61.5 -23.5l-11 -20q-28 14 -61 21t-59 7q-72 0 -135 -21.5t-112.5 -63t-84 -102t-49.5 -138.5q-14 -75 -7 -135t36 -103
t77.5 -66t116.5 -23q45 0 89 8t78 22zM407 759q2 11 10.5 18.5t19.5 7.5t17 -7.5t4 -18.5q-5 -25 -30 -25q-11 0 -17 7t-4 18z" />
    <glyph glyph-name="cdotaccent" unicode="&#x10b;" horiz-adv-x="435" 
d="M473 439q-20 14 -49 21.5t-63 7.5q-39 0 -79 -15.5t-74.5 -44.5t-61 -72t-36.5 -98q-11 -55 -3 -97.5t28.5 -71.5t52.5 -43.5t69 -14.5q76 0 137 28l1 -21q-32 -14 -69 -21t-74 -7q-41 0 -76 15.5t-58.5 47t-32 78t3.5 107.5q11 60 40 106.5t67.5 79t83 49t86.5 16.5
q36 0 67.5 -8.5t50.5 -21.5zM312 566q2 11 10.5 18.5t19.5 7.5t17 -7.5t4 -18.5q-5 -25 -30 -25q-11 0 -17 7t-4 18z" />
    <glyph glyph-name="Ccaron" unicode="&#x10c;" horiz-adv-x="556" 
d="M517 21q-37 -15 -83 -23.5t-92 -8.5q-70 2 -122.5 26t-83.5 68.5t-40 108.5t7 146q15 78 51 142t88.5 109.5t119.5 70.5t144 25q36 0 68.5 -6.5t61.5 -23.5l-11 -20q-28 14 -61 21t-59 7q-72 0 -135 -21.5t-112.5 -63t-84 -102t-49.5 -138.5q-14 -75 -7 -135t36 -103
t77.5 -66t116.5 -23q45 0 89 8t78 22zM463 734l-67 137h30l53 -120q44 52 66 79t35 41h28q-28 -32 -59 -68.5t-59 -68.5h-27z" />
    <glyph glyph-name="ccaron" unicode="&#x10d;" horiz-adv-x="435" 
d="M473 439q-20 14 -49 21.5t-63 7.5q-39 0 -79 -15.5t-74.5 -44.5t-61 -72t-36.5 -98q-11 -55 -3 -97.5t28.5 -71.5t52.5 -43.5t69 -14.5q76 0 137 28l1 -21q-32 -14 -69 -21t-74 -7q-41 0 -76 15.5t-58.5 47t-32 78t3.5 107.5q11 60 40 106.5t67.5 79t83 49t86.5 16.5
q36 0 67.5 -8.5t50.5 -21.5zM355 551l-67 137h30l53 -120q44 52 66 79t35 41h28q-28 -32 -59 -68.5t-59 -68.5h-27z" />
    <glyph glyph-name="Dcaron" unicode="&#x10e;" horiz-adv-x="632" 
d="M213 664q25 5 50 8t48 4.5t44 2t37 0.5q153 0 220 -86t35 -251q-17 -85 -55.5 -149t-92.5 -108q-65 -53 -139 -71t-160 -18q-23 0 -54 1t-62 3zM386 658q-42 0 -79.5 -2.5t-76.5 -9.5l-121 -625q11 -1 25.5 -2t28 -1.5t24.5 -0.5h17q81 0 151 16.5t133 66.5
q52 41 88 105.5t50 136.5q31 158 -33 237t-207 79zM421 726l-67 137h30l53 -120q44 52 66 79t35 41h28q-28 -32 -59 -68.5t-59 -68.5h-27z" />
    <glyph glyph-name="dcaron" unicode="&#x10f;" horiz-adv-x="705" 
d="M417 0q1 17 5.5 43t10.5 55q-33 -48 -84 -78.5t-107 -30.5q-37 0 -70 16t-55.5 47t-31 77.5t2.5 106.5q11 54 36 100t59 79.5t75.5 53t85.5 19.5q56 0 93 -28t52 -70l62 319h20l-103 -531q0 -1 -4.5 -23t-9.5 -51t-9.5 -58t-5.5 -46h-22zM246 10q38 0 72 15.5t61.5 40
t45.5 56.5t25 65l25 127q5 27 -2 54t-24.5 49t-45 36t-63.5 14q-37 0 -74 -15.5t-69 -45.5q-34 -32 -56 -76t-32 -94q-9 -49 -3.5 -90.5t23.5 -71.5t48 -47t69 -17zM803 688q-13 -27 -29.5 -59.5t-32.5 -63t-30.5 -55.5t-22.5 -37h-8.5t-6.5 -1q10 19 24 46.5t27.5 57
t25.5 58.5t20 50z" />
    <glyph glyph-name="Dcroat" unicode="&#x110;" horiz-adv-x="636" 
d="M64 353h88l61 311q25 5 50 8t48 4.5t44 2t37 0.5q153 0 220 -86t35 -251q-17 -85 -55.5 -149t-92.5 -108q-65 -53 -139 -71t-160 -18q-23 0 -54 1t-62 3l64 334h-88zM386 658q-42 0 -79.5 -2.5t-76.5 -9.5l-57 -293h229l-4 -19h-229l-60 -313q11 -1 25.5 -2t28 -1.5
t24.5 -0.5h17q81 0 151 16.5t133 66.5q52 41 88 105.5t50 136.5q31 158 -33 237t-207 79z" />
    <glyph glyph-name="dcroat" unicode="&#x111;" horiz-adv-x="532" 
d="M416 600l4 22h125l19 96h25l-19 -96h77l-4 -22h-77q-26 -132 -44 -225t-30 -157t-19 -102.5t-11 -61.5t-5.5 -34t-2.5 -20h-22l20 117l-24 -32q-28 -41 -73.5 -67t-111.5 -26q-42 0 -74.5 17t-52.5 48.5t-26.5 75.5t4.5 99q12 60 37 108t59.5 82t75.5 52t84 18
q29 0 53.5 -8t43 -20.5t30 -29t16.5 -33.5l6 -18l42 217h-125zM482 294q4 25 3 46q-1 26 -11 49.5t-28 41t-42.5 28t-55.5 10.5q-42 0 -79.5 -17.5t-67.5 -48t-52 -73.5t-32 -94q-9 -44 -5 -85t21.5 -72t48 -49.5t75.5 -18.5q27 0 54.5 9t52.5 26.5t46.5 42.5t36.5 58
q5 10 8.5 20t5.5 22z" />
    <glyph glyph-name="Emacron" unicode="&#x112;" horiz-adv-x="456" 
d="M411 21l-4 -21h-323l131 674h307l-5 -21h-286l-55 -286h270l-4 -21h-270l-63 -325h302zM511 752l-4 -18h-228l4 18h228z" />
    <glyph glyph-name="emacron" unicode="&#x113;" horiz-adv-x="474" 
d="M397 19q-33 -16 -68.5 -23t-74.5 -7q-49 1 -85 19t-57.5 50t-27.5 77.5t5 102.5q10 54 34.5 100t58.5 79t75.5 52t86.5 20q42 0 67.5 -15t40.5 -35t21 -42q7 -21 8 -60t-7 -81h-361l-3 -18q-22 -112 22 -170t141 -58q32 0 64 8t58 22zM339 468q-36 0 -70 -14t-63 -39
t-51 -60t-35 -77l337 -2q2 28 2.5 46.5t-0.5 27.5q-4 51 -35 84.5t-85 33.5zM462 569l-4 -18h-228l4 18h228z" />
    <glyph glyph-name="Ebreve" unicode="&#x114;" horiz-adv-x="456" 
d="M411 21l-4 -21h-323l131 674h307l-5 -21h-286l-55 -286h270l-4 -21h-270l-63 -325h302zM323 837q-1 -33 18 -55.5t55 -22.5q42 0 68.5 23t34.5 55h20q-10 -45 -44.5 -72t-82.5 -27q-30 0 -48 11t-28 27t-12 33t0 28h19z" />
    <glyph glyph-name="ebreve" unicode="&#x115;" horiz-adv-x="474" 
d="M397 19q-33 -16 -68.5 -23t-74.5 -7q-49 1 -85 19t-57.5 50t-27.5 77.5t5 102.5q10 54 34.5 100t58.5 79t75.5 52t86.5 20q42 0 67.5 -15t40.5 -35t21 -42q7 -21 8 -60t-7 -81h-361l-3 -18q-22 -112 22 -170t141 -58q32 0 64 8t58 22zM339 468q-36 0 -70 -14t-63 -39
t-51 -60t-35 -77l337 -2q2 28 2.5 46.5t-0.5 27.5q-4 51 -35 84.5t-85 33.5zM274 654q-1 -33 18 -55.5t55 -22.5q42 0 68.5 23t34.5 55h20q-10 -45 -44.5 -72t-82.5 -27q-30 0 -48 11t-28 27t-12 33t0 28h19z" />
    <glyph glyph-name="Edotaccent" unicode="&#x116;" horiz-adv-x="456" 
d="M411 21l-4 -21h-323l131 674h307l-5 -21h-286l-55 -286h270l-4 -21h-270l-63 -325h302zM375 749q2 11 10.5 18.5t19.5 7.5t17 -7.5t4 -18.5q-5 -25 -30 -25q-11 0 -17 7t-4 18z" />
    <glyph glyph-name="edotaccent" unicode="&#x117;" horiz-adv-x="474" 
d="M397 19q-33 -16 -68.5 -23t-74.5 -7q-49 1 -85 19t-57.5 50t-27.5 77.5t5 102.5q10 54 34.5 100t58.5 79t75.5 52t86.5 20q42 0 67.5 -15t40.5 -35t21 -42q7 -21 8 -60t-7 -81h-361l-3 -18q-22 -112 22 -170t141 -58q32 0 64 8t58 22zM339 468q-36 0 -70 -14t-63 -39
t-51 -60t-35 -77l337 -2q2 28 2.5 46.5t-0.5 27.5q-4 51 -35 84.5t-85 33.5zM326 566q2 11 10.5 18.5t19.5 7.5t17 -7.5t4 -18.5q-5 -25 -30 -25q-11 0 -17 7t-4 18z" />
    <glyph glyph-name="Eogonek" unicode="&#x118;" horiz-adv-x="456" 
d="M411 21l-4 -21h-323l131 674h307l-5 -21h-286l-55 -286h270l-4 -21h-270l-63 -325h302zM300 0q-18 -9 -38.5 -24t-38 -32t-29.5 -34.5t-13 -33.5q-2 -31 12 -41.5t37 -10.5q9 0 20.5 1t22.5 5l3 -17q-13 -5 -29.5 -8t-30.5 -3q-30 0 -46.5 22t-10.5 54q3 18 16.5 37
t30.5 36t36 30t34 19h24z" />
    <glyph glyph-name="eogonek" unicode="&#x119;" horiz-adv-x="474" 
d="M397 19q-33 -16 -68.5 -23t-74.5 -7q-49 1 -85 19t-57.5 50t-27.5 77.5t5 102.5q10 54 34.5 100t58.5 79t75.5 52t86.5 20q42 0 67.5 -15t40.5 -35t21 -42q7 -21 8 -60t-7 -81h-361l-3 -18q-22 -112 22 -170t141 -58q32 0 64 8t58 22zM339 468q-36 0 -70 -14t-63 -39
t-51 -60t-35 -77l337 -2q2 28 2.5 46.5t-0.5 27.5q-4 51 -35 84.5t-85 33.5zM284 -10q-18 -9 -38.5 -24t-38 -32t-29.5 -34.5t-13 -33.5q-2 -31 12 -41.5t37 -10.5q9 0 20.5 1t22.5 5l3 -17q-13 -5 -29.5 -8t-30.5 -3q-30 0 -46.5 22t-10.5 54q3 18 16.5 37t30.5 36t36 30
t34 19h24z" />
    <glyph glyph-name="Ecaron" unicode="&#x11a;" horiz-adv-x="456" 
d="M411 21l-4 -21h-323l131 674h307l-5 -21h-286l-55 -286h270l-4 -21h-270l-63 -325h302zM378 723l-67 137h30l53 -120q44 52 66 79t35 41h28q-28 -32 -59 -68.5t-59 -68.5h-27z" />
    <glyph glyph-name="ecaron" unicode="&#x11b;" horiz-adv-x="474" 
d="M397 19q-33 -16 -68.5 -23t-74.5 -7q-49 1 -85 19t-57.5 50t-27.5 77.5t5 102.5q10 54 34.5 100t58.5 79t75.5 52t86.5 20q42 0 67.5 -15t40.5 -35t21 -42q7 -21 8 -60t-7 -81h-361l-3 -18q-22 -112 22 -170t141 -58q32 0 64 8t58 22zM339 468q-36 0 -70 -14t-63 -39
t-51 -60t-35 -77l337 -2q2 28 2.5 46.5t-0.5 27.5q-4 51 -35 84.5t-85 33.5zM329 540l-67 137h30l53 -120q44 52 66 79t35 41h28q-28 -32 -59 -68.5t-59 -68.5h-27z" />
    <glyph glyph-name="Gcircumflex" unicode="&#x11c;" horiz-adv-x="610" 
d="M571 301h-166l4 21h188l-58 -297q-94 -36 -183 -36q-72 0 -126 24t-88 69t-44.5 109t5.5 145q15 77 52 141.5t90.5 110.5t120 71.5t139.5 25.5q35 0 72 -6.5t64 -23.5l-10 -19q-26 15 -61.5 21.5t-68.5 6.5q-55 0 -115 -19t-112.5 -59t-92.5 -102t-57 -148
q-15 -75 -5.5 -135.5t39.5 -102.5t81 -64.5t120 -22.5q44 0 83.5 7t77.5 21zM473 868l67 -136h-29l-53 120l-102 -120h-27l117 136h27z" />
    <glyph glyph-name="gcircumflex" unicode="&#x11d;" horiz-adv-x="532" 
d="M67 -148q23 -21 57.5 -30t65.5 -9q89 0 148 53t81 166l14 71q-34 -48 -83 -77t-104 -29q-45 0 -79 19t-54.5 51.5t-27 76.5t3.5 94q10 54 35 99.5t60 79.5t77.5 53t88.5 19q55 0 89.5 -29t49.5 -69q4 24 9.5 47.5t10.5 37.5h19q-4 -18 -10.5 -48t-12 -58.5t-9.5 -49
t-4 -21.5l-52 -267q-23 -117 -89 -178.5t-165 -61.5q-33 0 -67.5 9t-62.5 31zM459 238l15 77q5 27 -1.5 54t-23 49t-43 36t-61.5 14q-42 0 -80 -17.5t-69.5 -48t-54 -72.5t-31.5 -92q-11 -57 -2.5 -98t29 -68t50.5 -40t63 -13q35 0 67.5 13.5t59.5 36.5t46 53.5t26 65.5z
M391 678l67 -136h-29l-53 120l-102 -120h-27l117 136h27z" />
    <glyph glyph-name="Gbreve" unicode="&#x11e;" horiz-adv-x="610" 
d="M571 301h-166l4 21h188l-58 -297q-94 -36 -183 -36q-72 0 -126 24t-88 69t-44.5 109t5.5 145q15 77 52 141.5t90.5 110.5t120 71.5t139.5 25.5q35 0 72 -6.5t64 -23.5l-10 -19q-26 15 -61.5 21.5t-68.5 6.5q-55 0 -115 -19t-112.5 -59t-92.5 -102t-57 -148
q-15 -75 -5.5 -135.5t39.5 -102.5t81 -64.5t120 -22.5q44 0 83.5 7t77.5 21zM368 844q-1 -33 18 -55.5t55 -22.5q42 0 68.5 23t34.5 55h20q-10 -45 -44.5 -72t-82.5 -27q-30 0 -48 11t-28 27t-12 33t0 28h19z" />
    <glyph glyph-name="gbreve" unicode="&#x11f;" horiz-adv-x="532" 
d="M67 -148q23 -21 57.5 -30t65.5 -9q89 0 148 53t81 166l14 71q-34 -48 -83 -77t-104 -29q-45 0 -79 19t-54.5 51.5t-27 76.5t3.5 94q10 54 35 99.5t60 79.5t77.5 53t88.5 19q55 0 89.5 -29t49.5 -69q4 24 9.5 47.5t10.5 37.5h19q-4 -18 -10.5 -48t-12 -58.5t-9.5 -49
t-4 -21.5l-52 -267q-23 -117 -89 -178.5t-165 -61.5q-33 0 -67.5 9t-62.5 31zM459 238l15 77q5 27 -1.5 54t-23 49t-43 36t-61.5 14q-42 0 -80 -17.5t-69.5 -48t-54 -72.5t-31.5 -92q-11 -57 -2.5 -98t29 -68t50.5 -40t63 -13q35 0 67.5 13.5t59.5 36.5t46 53.5t26 65.5z
M286 654q-1 -33 18 -55.5t55 -22.5q42 0 68.5 23t34.5 55h20q-10 -45 -44.5 -72t-82.5 -27q-30 0 -48 11t-28 27t-12 33t0 28h19z" />
    <glyph glyph-name="Gdotaccent" unicode="&#x120;" horiz-adv-x="610" 
d="M571 301h-166l4 21h188l-58 -297q-94 -36 -183 -36q-72 0 -126 24t-88 69t-44.5 109t5.5 145q15 77 52 141.5t90.5 110.5t120 71.5t139.5 25.5q35 0 72 -6.5t64 -23.5l-10 -19q-26 15 -61.5 21.5t-68.5 6.5q-55 0 -115 -19t-112.5 -59t-92.5 -102t-57 -148
q-15 -75 -5.5 -135.5t39.5 -102.5t81 -64.5t120 -22.5q44 0 83.5 7t77.5 21zM475 774q2 11 10.5 18.5t19.5 7.5t17 -7.5t4 -18.5q-5 -25 -30 -25q-11 0 -17 7t-4 18z" />
    <glyph glyph-name="gdotaccent" unicode="&#x121;" horiz-adv-x="532" 
d="M67 -148q23 -21 57.5 -30t65.5 -9q89 0 148 53t81 166l14 71q-34 -48 -83 -77t-104 -29q-45 0 -79 19t-54.5 51.5t-27 76.5t3.5 94q10 54 35 99.5t60 79.5t77.5 53t88.5 19q55 0 89.5 -29t49.5 -69q4 24 9.5 47.5t10.5 37.5h19q-4 -18 -10.5 -48t-12 -58.5t-9.5 -49
t-4 -21.5l-52 -267q-23 -117 -89 -178.5t-165 -61.5q-33 0 -67.5 9t-62.5 31zM459 238l15 77q5 27 -1.5 54t-23 49t-43 36t-61.5 14q-42 0 -80 -17.5t-69.5 -48t-54 -72.5t-31.5 -92q-11 -57 -2.5 -98t29 -68t50.5 -40t63 -13q35 0 67.5 13.5t59.5 36.5t46 53.5t26 65.5z
M338 566q2 11 10.5 18.5t19.5 7.5t17 -7.5t4 -18.5q-5 -25 -30 -25q-11 0 -17 7t-4 18z" />
    <glyph glyph-name="Gcedilla" unicode="&#x122;" horiz-adv-x="610" 
d="M571 301h-166l4 21h188l-58 -297q-94 -36 -183 -36q-72 0 -126 24t-88 69t-44.5 109t5.5 145q15 77 52 141.5t90.5 110.5t120 71.5t139.5 25.5q35 0 72 -6.5t64 -23.5l-10 -19q-26 15 -61.5 21.5t-68.5 6.5q-55 0 -115 -19t-112.5 -59t-92.5 -102t-57 -148
q-15 -75 -5.5 -135.5t39.5 -102.5t81 -64.5t120 -22.5q44 0 83.5 7t77.5 21zM233 -268q9 17 22.5 43t27.5 54.5t26.5 57t20.5 51.5l32 8q-13 -28 -29 -60.5t-32 -63.5t-30 -55.5t-22 -35.5z" />
    <glyph glyph-name="gcedilla" unicode="&#x123;" horiz-adv-x="532" 
d="M67 -148q23 -21 57.5 -30t65.5 -9q89 0 148 53t81 166l14 71q-34 -48 -83 -77t-104 -29q-45 0 -79 19t-54.5 51.5t-27 76.5t3.5 94q10 54 35 99.5t60 79.5t77.5 53t88.5 19q55 0 89.5 -29t49.5 -69q4 24 9.5 47.5t10.5 37.5h19q-4 -18 -10.5 -48t-12 -58.5t-9.5 -49
t-4 -21.5l-52 -267q-23 -117 -89 -178.5t-165 -61.5q-33 0 -67.5 9t-62.5 31zM459 238l15 77q5 27 -1.5 54t-23 49t-43 36t-61.5 14q-42 0 -80 -17.5t-69.5 -48t-54 -72.5t-31.5 -92q-11 -57 -2.5 -98t29 -68t50.5 -40t63 -13q35 0 67.5 13.5t59.5 36.5t46 53.5t26 65.5z
M323 548q13 27 29.5 58t32.5 59t30.5 51t22.5 35l21 2q-9 -17 -23 -42.5t-29 -53t-28 -55t-21 -48.5z" />
    <glyph glyph-name="Hcircumflex" unicode="&#x124;" horiz-adv-x="616" 
d="M215 674h21l-59 -301h392l59 301h21l-131 -674h-21l68 352h-392l-68 -352h-21zM485 861l67 -136h-29l-53 120l-102 -120h-27l117 136h27z" />
    <glyph glyph-name="hcircumflex" unicode="&#x125;" horiz-adv-x="525" 
d="M99 0h-20l137 708h20l-63 -325q36 52 83 79t107 27q51 0 83.5 -27.5t42.5 -75.5q3 -24 0.5 -48.5t-6.5 -46.5l-56 -291h-20l56 291q7 35 7.5 55.5t-4.5 38.5q-2 9 -8 23.5t-18.5 27.5t-33 22.5t-51.5 9.5q-45 0 -79.5 -17.5t-59.5 -43.5t-40 -55.5t-19 -52.5zM448 896
l67 -136h-29l-53 120l-102 -120h-27l117 136h27z" />
    <glyph glyph-name="Hbar" unicode="&#x126;" horiz-adv-x="616" 
d="M129 552l4 21h66l20 101h23l-20 -101h404l20 101h21l-20 -101h64l-4 -21h-64l-107 -552h-21l66 344h-404l-66 -344h-23l107 552h-66zM585 365l37 187h-404l-37 -187h404z" />
    <glyph glyph-name="hbar" unicode="&#x127;" horiz-adv-x="525" 
d="M130 604l4 20h80l19 97h21l-19 -97h129l-4 -20h-129l-40 -205l-3 -15q37 47 79.5 78.5t106.5 33.5q17 0 45 -7t52.5 -28.5t37.5 -61t1 -102.5l-57 -297h-23l56 291q7 36 5 69.5t-15.5 59t-40 40.5t-66.5 15q-27 0 -53.5 -10.5t-50 -28t-43 -40t-33.5 -46.5
q-11 -18 -17 -51l-58 -299h-21l117 604h-80z" />
    <glyph glyph-name="Itilde" unicode="&#x128;" horiz-adv-x="208" 
d="M218 674h21l-131 -674h-21zM143 732q7 27 24 47.5t40 20.5q15 0 27 -6.5t22.5 -14t22.5 -13.5t27 -6q31 0 42 43h16q-7 -27 -22 -44t-40 -17q-15 0 -26.5 6t-22.5 13.5t-22.5 13.5t-26.5 6q-17 0 -26.5 -14.5t-17.5 -34.5h-17z" />
    <glyph glyph-name="itilde" unicode="&#x129;" horiz-adv-x="206" 
d="M91 0l93 480h22l-93 -480h-22zM100 537q7 27 24 47.5t40 20.5q15 0 27 -6.5t22.5 -14t22.5 -13.5t27 -6q31 0 42 43h16q-7 -27 -22 -44t-40 -17q-15 0 -26.5 6t-22.5 13.5t-22.5 13.5t-26.5 6q-17 0 -26.5 -14.5t-17.5 -34.5h-17z" />
    <glyph glyph-name="Imacron" unicode="&#x12a;" horiz-adv-x="208" 
d="M218 674h21l-131 -674h-21zM363 752l-4 -18h-228l4 18h228z" />
    <glyph glyph-name="imacron" unicode="&#x12b;" horiz-adv-x="206" 
d="M91 0l93 480h22l-93 -480h-22zM325 558l-4 -18h-228l4 18h228z" />
    <glyph glyph-name="Ibreve" unicode="&#x12c;" horiz-adv-x="208" 
d="M218 674h21l-131 -674h-21zM179 837q-2 -38 17 -59t56 -21q20 0 37 7t30.5 18.5t22.5 25.5t14 29h19q-14 -45 -47.5 -71t-79.5 -26q-28 0 -46 9.5t-27.5 24t-13 31.5t-1.5 32h19z" />
    <glyph glyph-name="ibreve" unicode="&#x12d;" horiz-adv-x="206" 
d="M91 0l93 480h22l-93 -480h-22zM140 643q-2 -38 17 -59t56 -21q20 0 37 7t30.5 18.5t22.5 25.5t14 29h19q-14 -45 -47.5 -71t-79.5 -26q-28 0 -46 9.5t-27.5 24t-13 31.5t-1.5 32h19z" />
    <glyph glyph-name="Iogonek" unicode="&#x12e;" horiz-adv-x="208" 
d="M218 674h21l-131 -674h-21zM110 -1q-18 -9 -38.5 -24t-38 -32t-29.5 -34.5t-13 -33.5q-2 -31 12 -41.5t37 -10.5q9 0 20.5 1t22.5 5l3 -17q-13 -5 -29.5 -8t-30.5 -3q-30 0 -46.5 22t-10.5 54q3 18 16.5 37t30.5 36t36 30t34 19h24z" />
    <glyph glyph-name="iogonek" unicode="&#x12f;" horiz-adv-x="206" 
d="M173 476l-92 -476h21l92 476h-21zM233 622q-1 -8 -7.5 -13.5t-16.5 -5.5q-11 0 -15.5 5.5t-3.5 13.5q4 20 26 20q21 0 17 -20zM107 0q-18 -9 -38.5 -24t-38 -32t-29.5 -34.5t-13 -33.5q-2 -31 12 -41.5t37 -10.5q9 0 20.5 1t22.5 5l3 -17q-13 -5 -29.5 -8t-30.5 -3
q-30 0 -46.5 22t-10.5 54q3 18 16.5 37t30.5 36t36 30t34 19h24z" />
    <glyph glyph-name="Idotaccent" unicode="&#x130;" horiz-adv-x="208" 
d="M218 674h21l-131 -674h-21zM237 772q2 9 8 15t15 6q8 0 13 -6t3 -15q-2 -8 -9 -13t-15 -5q-18 0 -15 18z" />
    <glyph glyph-name="dotlessi" unicode="&#x131;" horiz-adv-x="206" 
d="M91 0l93 480h22l-93 -480h-22z" />
    <glyph glyph-name="IJ" unicode="&#x132;" horiz-adv-x="546" 
d="M218 674h21l-131 -674h-21zM226 22q10 -5 28.5 -9t33.5 -4q35 0 68 14.5t57 41.5q13 15 22.5 35.5t16 42t11 42t7.5 36.5l89 453h21l-89 -453q-3 -17 -7.5 -39t-12 -45t-18.5 -45t-26 -40q-27 -31 -64.5 -47t-77.5 -16q-16 0 -35 3.5t-32 9.5z" />
    <glyph glyph-name="ij" unicode="&#x133;" horiz-adv-x="417" 
d="M173 476l-92 -476h21l92 476h-21zM233 622q-1 -8 -7.5 -13.5t-16.5 -5.5q-11 0 -15.5 5.5t-3.5 13.5q4 20 26 20q21 0 17 -20zM129 -184q47 0 77 19t49.5 49t30 66t17.5 71l88 455h21l-88 -455q-7 -36 -19 -75.5t-34 -72.5t-56 -55t-87 -23zM451 622q-1 -8 -7.5 -13.5
t-16.5 -5.5q-11 0 -15.5 5.5t-3.5 13.5q4 20 26 20q21 0 17 -20z" />
    <glyph glyph-name="Jcircumflex" unicode="&#x134;" horiz-adv-x="338" 
d="M18 22q10 -5 28.5 -9t33.5 -4q35 0 68 14.5t57 41.5q13 15 22.5 35.5t16 42t11 42t7.5 36.5l89 453h21l-89 -453q-3 -17 -7.5 -39t-12 -45t-18.5 -45t-26 -40q-27 -31 -64.5 -47t-77.5 -16q-16 0 -35 3.5t-32 9.5zM413 844l5.5 -9t13.5 -22.5t17 -29t17 -29t13.5 -22
l5.5 -8.5h-24l-63 107l-109 -107h-21l119 120h26z" />
    <glyph glyph-name="jcircumflex" unicode="&#x135;" horiz-adv-x="211" 
d="M-70 -195q30 5 57 17.5t47 32.5q13 12 24 27t20 38t17.5 56t17.5 82l82 422h20l-89 -455q-13 -67 -30 -111.5t-52 -76.5q-30 -25 -62.5 -38t-51.5 -15v21zM249 650l5.5 -9t13.5 -22.5t17 -29t17 -29t13.5 -22l5.5 -8.5h-24l-63 107l-109 -107h-21l119 120h26z" />
    <glyph glyph-name="Kcedilla" unicode="&#x136;" horiz-adv-x="489" 
d="M215 674h21l-68 -349l383 349h29l-315 -285l207 -389h-23l-201 373l-87 -80l1 3l-57 -296h-21zM167 -215q9 17 22.5 43t27.5 54.5t26.5 57t20.5 51.5l32 8q-13 -28 -29 -60.5t-32 -63.5t-30 -55.5t-22 -35.5z" />
    <glyph glyph-name="kcedilla" unicode="&#x137;" horiz-adv-x="416" 
d="M201 264l-60 -53l-41 -211h-21l137 708h21l-91 -467l276 235h28l-230 -198l168 -278h-27zM136 -214q9 17 22.5 43t27.5 54.5t26.5 57t20.5 51.5l32 8q-13 -28 -29 -60.5t-32 -63.5t-30 -55.5t-22 -35.5z" />
    <glyph glyph-name="kgreenlandic" unicode="&#x138;" horiz-adv-x="416" 
d="M159 231l286 249h29l-224 -195q42 -71 82.5 -143t82.5 -142h-28l-154 270l-80 -66l-39 -204h-22l93 480h22z" />
    <glyph glyph-name="Lacute" unicode="&#x139;" horiz-adv-x="440" 
d="M409 0h-322l131 674h21l-127 -653h301zM461 861q-5 -5 -16 -16.5t-25 -26t-29.5 -31t-28 -30t-21.5 -23t-10 -10.5l-16 1l113 136h33z" />
    <glyph glyph-name="lacute" unicode="&#x13a;" horiz-adv-x="206" 
d="M245 708l-137 -708h-21l137 708h21zM320 896q-5 -5 -16 -16.5t-25 -26t-29.5 -31t-28 -30t-21.5 -23t-10 -10.5l-16 1l113 136h33z" />
    <glyph glyph-name="Lcedilla" unicode="&#x13b;" horiz-adv-x="440" 
d="M409 0h-322l131 674h21l-127 -653h301zM147 -243q9 17 22.5 43t27.5 54.5t26.5 57t20.5 51.5l32 8q-13 -28 -29 -60.5t-32 -63.5t-30 -55.5t-22 -35.5z" />
    <glyph glyph-name="lcedilla" unicode="&#x13c;" horiz-adv-x="206" 
d="M245 708l-137 -708h-21l137 708h21zM-14 -258q9 17 22.5 43t27.5 54.5t26.5 57t20.5 51.5l32 8q-13 -28 -29 -60.5t-32 -63.5t-30 -55.5t-22 -35.5z" />
    <glyph glyph-name="Lcaron" unicode="&#x13d;" horiz-adv-x="440" 
d="M409 0h-322l131 674h21l-127 -653h301zM358 722l-67 137h30l53 -120q44 52 66 79t35 41h28q-28 -32 -59 -68.5t-59 -68.5h-27z" />
    <glyph glyph-name="lcaron" unicode="&#x13e;" horiz-adv-x="206" 
d="M245 708l-137 -708h-21l137 708h21zM236 758l-67 137h30l53 -120q44 52 66 79t35 41h28q-28 -32 -59 -68.5t-59 -68.5h-27z" />
    <glyph glyph-name="Ldot" unicode="&#x13f;" horiz-adv-x="440" 
d="M347 405q2 11 10.5 18.5t19.5 7.5t17 -7.5t4 -18.5q-5 -25 -30 -25q-11 0 -17 7t-4 18zM409 0h-322l131 674h21l-127 -653h301z" />
    <glyph glyph-name="ldot" unicode="&#x140;" horiz-adv-x="347" 
d="M321 405q2 11 10.5 18.5t19.5 7.5t17 -7.5t4 -18.5q-5 -25 -30 -25q-11 0 -17 7t-4 18zM245 708l-137 -708h-21l137 708h21z" />
    <glyph glyph-name="Lslash" unicode="&#x141;" horiz-adv-x="443" 
d="M96 0l59 305l-105 -70l5 24l104 70l68 345h21l-65 -330l163 107l-4 -24l-163 -107l-58 -299h303l-4 -21h-324z" />
    <glyph glyph-name="lslash" unicode="&#x142;" horiz-adv-x="211" 
d="M97 0l67 349q-16 -12 -39.5 -31t-46.5 -36l5 22l86 68l67 347h22l-64 -331l88 68l-4 -21l-88 -68l-71 -367h-22z" />
    <glyph glyph-name="Nacute" unicode="&#x143;" horiz-adv-x="624" 
d="M215 674h13l284 -629l123 629h21l-131 -674h-16l-283 624l-121 -624h-21zM523 861q-5 -5 -16 -16.5t-25 -26t-29.5 -31t-28 -30t-21.5 -23t-10 -10.5l-16 1l113 136h33z" />
    <glyph glyph-name="nacute" unicode="&#x144;" horiz-adv-x="525" 
d="M194 476q-1 -15 -5.5 -39.5t-9.5 -50.5q35 50 82 76.5t106 26.5q51 0 83.5 -27.5t42.5 -75.5q3 -24 0 -48.5t-7 -46.5l-56 -291h-20l56 291q7 35 7.5 55.5t-4.5 38.5q-2 9 -7.5 23.5t-18 27.5t-33 22.5t-51.5 9.5q-44 0 -78.5 -17.5t-59.5 -43.5t-40 -55.5t-19 -52.5
l-58 -299h-20l59 304q2 10 6.5 34t9 51t8.5 51.5t4 35.5h23zM438 678q-5 -5 -16 -16.5t-25 -26t-29.5 -31t-28 -30t-21.5 -23t-10 -10.5l-16 1l113 136h33z" />
    <glyph glyph-name="Ncedilla" unicode="&#x145;" horiz-adv-x="624" 
d="M215 674h13l284 -629l123 629h21l-131 -674h-16l-283 624l-121 -624h-21zM204 -216q9 17 22.5 43t27.5 54.5t26.5 57t20.5 51.5l32 8q-13 -28 -29 -60.5t-32 -63.5t-30 -55.5t-22 -35.5z" />
    <glyph glyph-name="ncedilla" unicode="&#x146;" horiz-adv-x="525" 
d="M194 476q-1 -15 -5.5 -39.5t-9.5 -50.5q35 50 82 76.5t106 26.5q51 0 83.5 -27.5t42.5 -75.5q3 -24 0 -48.5t-7 -46.5l-56 -291h-20l56 291q7 35 7.5 55.5t-4.5 38.5q-2 9 -7.5 23.5t-18 27.5t-33 22.5t-51.5 9.5q-44 0 -78.5 -17.5t-59.5 -43.5t-40 -55.5t-19 -52.5
l-58 -299h-20l59 304q2 10 6.5 34t9 51t8.5 51.5t4 35.5h23zM152 -238q9 17 22.5 43t27.5 54.5t26.5 57t20.5 51.5l32 8q-13 -28 -29 -60.5t-32 -63.5t-30 -55.5t-22 -35.5z" />
    <glyph glyph-name="Ncaron" unicode="&#x147;" horiz-adv-x="624" 
d="M215 674h13l284 -629l123 629h21l-131 -674h-16l-283 624l-121 -624h-21zM439 723l-67 137h30l53 -120q44 52 66 79t35 41h28q-28 -32 -59 -68.5t-59 -68.5h-27z" />
    <glyph glyph-name="ncaron" unicode="&#x148;" horiz-adv-x="525" 
d="M194 476q-1 -15 -5.5 -39.5t-9.5 -50.5q35 50 82 76.5t106 26.5q51 0 83.5 -27.5t42.5 -75.5q3 -24 0 -48.5t-7 -46.5l-56 -291h-20l56 291q7 35 7.5 55.5t-4.5 38.5q-2 9 -7.5 23.5t-18 27.5t-33 22.5t-51.5 9.5q-44 0 -78.5 -17.5t-59.5 -43.5t-40 -55.5t-19 -52.5
l-58 -299h-20l59 304q2 10 6.5 34t9 51t8.5 51.5t4 35.5h23zM354 540l-67 137h30l53 -120q44 52 66 79t35 41h28q-28 -32 -59 -68.5t-59 -68.5h-27z" />
    <glyph glyph-name="napostrophe" unicode="&#x149;" horiz-adv-x="698" 
d="M271 688q-13 -27 -29.5 -59.5t-32.5 -63t-30.5 -55.5t-22.5 -37h-8.5t-6.5 -1q10 19 24 46.5t27.5 57t25.5 58.5t20 50zM367 476q-1 -15 -5.5 -39.5t-9.5 -50.5q35 50 82 76.5t106 26.5q51 0 83.5 -27.5t42.5 -75.5q3 -24 0 -48.5t-7 -46.5l-56 -291h-20l56 291
q7 35 7.5 55.5t-4.5 38.5q-2 9 -7.5 23.5t-18 27.5t-33 22.5t-51.5 9.5q-44 0 -78.5 -17.5t-59.5 -43.5t-40 -55.5t-19 -52.5l-58 -299h-20l59 304q2 10 6.5 34t9 51t8.5 51.5t4 35.5h23z" />
    <glyph glyph-name="Eng" unicode="&#x14a;" horiz-adv-x="624" 
d="M215 674h13l284 -629l123 629h21l-130 -666q-10 -35 -15.5 -52.5t-9.5 -27.5q-9 -21 -23 -40.5t-30 -33.5q-14 -13 -30.5 -22.5t-33 -15.5t-31.5 -9.5t-27 -3.5l1 16q28 4 60.5 18t52.5 33q9 9 17.5 19.5t15.5 24t14 31.5t13 44l5 18l-279 617l-121 -624h-21z" />
    <glyph glyph-name="eng" unicode="&#x14b;" horiz-adv-x="525" 
d="M194 476q-1 -15 -6 -40l-9 -50q35 50 82 76.5t106 26.5q51 0 83.5 -27.5t42.5 -75.5q3 -24 0 -48.5t-7 -46.5l-58 -297q-6 -27 -19 -56q-17 -41 -50 -71q-14 -12 -30 -20.5t-31.5 -14t-30 -8t-24.5 -2.5l3 18q33 4 60 15t47 31q11 11 21.5 24.5t18.5 35t16 53.5l1 1
l56 291q7 35 7.5 55.5t-4.5 38.5q-2 9 -7.5 23.5t-18 27.5t-33 22.5t-51.5 9.5q-44 0 -78.5 -17.5t-59.5 -43.5t-40 -55.5t-19 -52.5l-58 -299h-20l65 338q5 24 9.5 51t8.5 51.5t4 35.5h23z" />
    <glyph glyph-name="Omacron" unicode="&#x14c;" horiz-adv-x="654" 
d="M646 336q14 74 7.5 134.5t-33 103.5t-69.5 66t-102 23q-57 0 -110 -24.5t-96 -67.5t-74 -102.5t-45 -130.5q-14 -72 -7 -132.5t32 -103.5t67.5 -67t98.5 -24q60 0 113.5 24t97.5 67t75 102.5t45 131.5zM454 685q63 0 110 -25.5t74.5 -71t35 -110t-7.5 -142.5
q-15 -74 -48 -137.5t-83 -111.5q-47 -48 -105 -73t-120 -25q-57 0 -102 25t-74 71q-31 48 -38.5 111.5t7.5 141.5q15 75 48.5 139t80.5 110t104 72t118 26zM589 763l-4 -18h-228l4 18h228z" />
    <glyph glyph-name="omacron" unicode="&#x14d;" horiz-adv-x="520" 
d="M491 237q9 51 4 93t-24 72.5t-50.5 47.5t-73.5 17t-80.5 -17.5t-70 -48t-54.5 -72.5t-32 -92q-11 -55 -4 -97.5t27 -71.5t50.5 -43.5t66.5 -14.5q45 0 85 17t71.5 47.5t53 72t31.5 90.5zM351 488q45 0 80 -18.5t56.5 -51.5t28 -79t-3.5 -102q-11 -54 -36.5 -99.5
t-60.5 -78.5t-78.5 -52t-90.5 -19t-81 19.5t-54.5 53.5t-26 79.5t4.5 96.5q10 54 35.5 99.5t60.5 79.5t77.5 53t88.5 19zM485 569l-4 -18h-228l4 18h228z" />
    <glyph glyph-name="Obreve" unicode="&#x14e;" horiz-adv-x="654" 
d="M646 336q14 74 7.5 134.5t-33 103.5t-69.5 66t-102 23q-57 0 -110 -24.5t-96 -67.5t-74 -102.5t-45 -130.5q-14 -72 -7 -132.5t32 -103.5t67.5 -67t98.5 -24q60 0 113.5 24t97.5 67t75 102.5t45 131.5zM454 685q63 0 110 -25.5t74.5 -71t35 -110t-7.5 -142.5
q-15 -74 -48 -137.5t-83 -111.5q-47 -48 -105 -73t-120 -25q-57 0 -102 25t-74 71q-31 48 -38.5 111.5t7.5 141.5q15 75 48.5 139t80.5 110t104 72t118 26zM401 848q-1 -33 18 -55.5t55 -22.5q42 0 68.5 23t34.5 55h20q-10 -45 -44.5 -72t-82.5 -27q-30 0 -48 11t-28 27
t-12 33t0 28h19z" />
    <glyph glyph-name="obreve" unicode="&#x14f;" horiz-adv-x="520" 
d="M491 237q9 51 4 93t-24 72.5t-50.5 47.5t-73.5 17t-80.5 -17.5t-70 -48t-54.5 -72.5t-32 -92q-11 -55 -4 -97.5t27 -71.5t50.5 -43.5t66.5 -14.5q45 0 85 17t71.5 47.5t53 72t31.5 90.5zM351 488q45 0 80 -18.5t56.5 -51.5t28 -79t-3.5 -102q-11 -54 -36.5 -99.5
t-60.5 -78.5t-78.5 -52t-90.5 -19t-81 19.5t-54.5 53.5t-26 79.5t4.5 96.5q10 54 35.5 99.5t60.5 79.5t77.5 53t88.5 19zM297 654q-1 -33 18 -55.5t55 -22.5q42 0 68.5 23t34.5 55h20q-10 -45 -44.5 -72t-82.5 -27q-30 0 -48 11t-28 27t-12 33t0 28h19z" />
    <glyph glyph-name="Ohungarumlaut" unicode="&#x150;" horiz-adv-x="654" 
d="M646 336q14 74 7.5 134.5t-33 103.5t-69.5 66t-102 23q-57 0 -110 -24.5t-96 -67.5t-74 -102.5t-45 -130.5q-14 -72 -7 -132.5t32 -103.5t67.5 -67t98.5 -24q60 0 113.5 24t97.5 67t75 102.5t45 131.5zM454 685q63 0 110 -25.5t74.5 -71t35 -110t-7.5 -142.5
q-15 -74 -48 -137.5t-83 -111.5q-47 -48 -105 -73t-120 -25q-57 0 -102 25t-74 71q-31 48 -38.5 111.5t7.5 141.5q15 75 48.5 139t80.5 110t104 72t118 26z" />
    <glyph glyph-name="ohungarumlaut" unicode="&#x151;" horiz-adv-x="520" 
d="M491 237q9 51 4 93t-24 72.5t-50.5 47.5t-73.5 17t-80.5 -17.5t-70 -48t-54.5 -72.5t-32 -92q-11 -55 -4 -97.5t27 -71.5t50.5 -43.5t66.5 -14.5q45 0 85 17t71.5 47.5t53 72t31.5 90.5zM351 488q45 0 80 -18.5t56.5 -51.5t28 -79t-3.5 -102q-11 -54 -36.5 -99.5
t-60.5 -78.5t-78.5 -52t-90.5 -19t-81 19.5t-54.5 53.5t-26 79.5t4.5 96.5q10 54 35.5 99.5t60.5 79.5t77.5 53t88.5 19z" />
    <glyph glyph-name="OE" unicode="&#x152;" horiz-adv-x="849" 
d="M821 0h-314q-17 -1 -35.5 -2.5t-35.5 -3.5q-18 -2 -40.5 -3.5t-44.5 -1.5q-71 0 -123 25.5t-83.5 71.5t-41 109t4.5 137q17 86 54 152t88.5 110.5t114 67.5t129.5 23q26 0 46 -1.5t39 -3.5q36 -5 64 -6h292l-4 -19h-288l-57 -291h273l-3 -19h-273l-64 -326h305zM619 649
h-1q-25 7 -55 12.5t-77 5.5q-70 0 -128 -24.5t-103 -68.5t-75.5 -105t-44.5 -133q-15 -76 -6.5 -137t37.5 -103.5t79.5 -65.5t119.5 -23q35 0 70 4.5t63 14.5h1z" />
    <glyph glyph-name="oe" unicode="&#x153;" horiz-adv-x="841" 
d="M354 492q65 0 107 -41t52 -116v-8q49 90 105.5 127.5t115.5 37.5q54 0 83.5 -24t42 -57.5t12.5 -70t-5 -61.5l-5 -23l-347 1h-2q-14 -62 -9.5 -108.5t24.5 -77t54 -46t78 -15.5q45 0 73 8.5t51 17.5l4 -19q-26 -12 -63 -19.5t-74 -7.5q-69 0 -114 38.5t-56 122.5l-5 -8
q-46 -81 -106 -117t-117 -36q-45 0 -80 17.5t-57 49.5t-28.5 77.5t4.5 102.5q12 60 38 107.5t61.5 80.5t77.5 50t85 17zM348 472q-51 0 -91.5 -22.5t-70 -57t-47.5 -75.5t-25 -78q-9 -48 -3 -89.5t25 -73t50 -49.5t72 -18q42 0 79 17.5t67 48t51.5 73t31.5 93.5
q8 41 5.5 82.5t-18 74.5t-46.5 53.5t-80 20.5zM839 276q7 30 7 64.5t-12 63.5t-38 48.5t-71 19.5q-42 0 -76 -20t-60.5 -50t-44.5 -64t-27 -62h322z" />
    <glyph glyph-name="Racute" unicode="&#x154;" horiz-adv-x="496" 
d="M213 664q30 6 61.5 10.5t65.5 4.5q38 0 75.5 -7.5t64 -27t39 -54.5t1.5 -91q-12 -63 -57 -108.5t-110 -61.5q78 -32 79 -141q2 -46 3.5 -78t2 -53.5t2.5 -34.5t6 -22h-24q-2 11 -3.5 24t-3 34t-2 51.5t-3.5 75.5q-2 68 -33.5 101.5t-101.5 33.5h-108l-62 -320h-21z
M504 542q-1 35 -16.5 57.5t-39.5 35.5t-53.5 18t-60.5 5q-29 0 -56 -3t-48 -7l-59 -307h116q39 0 74.5 11t63.5 31.5t48 50.5t27 69q5 22 4 39zM487 866q-5 -5 -16 -16.5t-25 -26t-29.5 -31t-28 -30t-21.5 -23t-10 -10.5l-16 1l113 136h33z" />
    <glyph glyph-name="racute" unicode="&#x155;" horiz-adv-x="290" 
d="M345 468q-4 1 -7.5 1h-6.5q-37 0 -66.5 -19.5t-51.5 -48t-35.5 -60.5t-18.5 -58l-55 -283h-21l58 301q0 1 4 22t9 49t10.5 57t6.5 47h21q-1 -17 -5.5 -45.5t-9.5 -52.5q11 21 27.5 41t37 36t44.5 25.5t51 9.5h13zM352 678q-5 -5 -16 -16.5t-25 -26t-29.5 -31t-28 -30
t-21.5 -23t-10 -10.5l-16 1l113 136h33z" />
    <glyph glyph-name="Rcedilla" unicode="&#x156;" horiz-adv-x="496" 
d="M213 664q30 6 61.5 10.5t65.5 4.5q38 0 75.5 -7.5t64 -27t39 -54.5t1.5 -91q-12 -63 -57 -108.5t-110 -61.5q78 -32 79 -141q2 -46 3.5 -78t2 -53.5t2.5 -34.5t6 -22h-24q-2 11 -3.5 24t-3 34t-2 51.5t-3.5 75.5q-2 68 -33.5 101.5t-101.5 33.5h-108l-62 -320h-21z
M504 542q-1 35 -16.5 57.5t-39.5 35.5t-53.5 18t-60.5 5q-29 0 -56 -3t-48 -7l-59 -307h116q39 0 74.5 11t63.5 31.5t48 50.5t27 69q5 22 4 39zM151 -222q9 17 22.5 43t27.5 54.5t26.5 57t20.5 51.5l32 8q-13 -28 -29 -60.5t-32 -63.5t-30 -55.5t-22 -35.5z" />
    <glyph glyph-name="rcedilla" unicode="&#x157;" horiz-adv-x="290" 
d="M345 468q-4 1 -7.5 1h-6.5q-37 0 -66.5 -19.5t-51.5 -48t-35.5 -60.5t-18.5 -58l-55 -283h-21l58 301q0 1 4 22t9 49t10.5 57t6.5 47h21q-1 -17 -5.5 -45.5t-9.5 -52.5q11 21 27.5 41t37 36t44.5 25.5t51 9.5h13zM97 -216q9 17 22.5 43t27.5 54.5t26.5 57t20.5 51.5l32 8
q-13 -28 -29 -60.5t-32 -63.5t-30 -55.5t-22 -35.5z" />
    <glyph glyph-name="Rcaron" unicode="&#x158;" horiz-adv-x="496" 
d="M213 664q30 6 61.5 10.5t65.5 4.5q38 0 75.5 -7.5t64 -27t39 -54.5t1.5 -91q-12 -63 -57 -108.5t-110 -61.5q78 -32 79 -141q2 -46 3.5 -78t2 -53.5t2.5 -34.5t6 -22h-24q-2 11 -3.5 24t-3 34t-2 51.5t-3.5 75.5q-2 68 -33.5 101.5t-101.5 33.5h-108l-62 -320h-21z
M504 542q-1 35 -16.5 57.5t-39.5 35.5t-53.5 18t-60.5 5q-29 0 -56 -3t-48 -7l-59 -307h116q39 0 74.5 11t63.5 31.5t48 50.5t27 69q5 22 4 39zM403 728l-67 137h30l53 -120q44 52 66 79t35 41h28q-28 -32 -59 -68.5t-59 -68.5h-27z" />
    <glyph glyph-name="rcaron" unicode="&#x159;" horiz-adv-x="290" 
d="M345 468q-4 1 -7.5 1h-6.5q-37 0 -66.5 -19.5t-51.5 -48t-35.5 -60.5t-18.5 -58l-55 -283h-21l58 301q0 1 4 22t9 49t10.5 57t6.5 47h21q-1 -17 -5.5 -45.5t-9.5 -52.5q11 21 27.5 41t37 36t44.5 25.5t51 9.5h13zM268 540l-67 137h30l53 -120q44 52 66 79t35 41h28
q-28 -32 -59 -68.5t-59 -68.5h-27z" />
    <glyph glyph-name="Sacute" unicode="&#x15a;" horiz-adv-x="455" 
d="M58 54q20 -20 57.5 -33t75.5 -13q37 0 71 11.5t61.5 33.5t46.5 52.5t26 67.5q6 32 1 57t-20.5 45t-41.5 37t-61 33q-43 20 -68.5 40t-38 41.5t-15 44t2.5 46.5q7 36 27 66.5t48.5 52.5t63.5 34.5t72 12.5q26 0 55.5 -7t51.5 -24l-10 -19q-20 16 -48.5 23t-52.5 7
q-33 0 -64 -10.5t-56 -29t-42.5 -44.5t-23.5 -58q-6 -31 0.5 -54t22 -41.5t38.5 -33t50 -28.5q39 -18 66.5 -36t43.5 -40.5t21 -50t-2 -63.5q-7 -40 -28.5 -74.5t-52 -59t-68.5 -38.5t-80 -14q-22 0 -43.5 3.5t-40.5 10t-33.5 14.5t-21.5 17zM438 871q-5 -5 -16 -16.5
t-25 -26t-29.5 -31t-28 -30t-21.5 -23t-10 -10.5l-16 1l113 136h33z" />
    <glyph glyph-name="sacute" unicode="&#x15b;" horiz-adv-x="366" 
d="M356 442q-14 12 -36.5 18.5t-45.5 6.5q-14 0 -33 -4.5t-38.5 -16t-35 -30.5t-21.5 -48q-8 -39 12.5 -64t72.5 -46q22 -9 40.5 -21t31 -28.5t17.5 -37.5t-1 -49q-3 -19 -14.5 -42t-33 -43.5t-53 -34t-73.5 -13.5q-29 0 -52.5 8.5t-43.5 23.5l10 20q18 -13 41 -21.5
t50 -8.5q37 0 63.5 11t44 27.5t27.5 36t13 35.5q5 25 1 43t-15 31.5t-28 24t-38 19.5q-18 8 -37.5 18t-33.5 24t-21 35t-1 51q7 35 25.5 58t41.5 37t46.5 20t39.5 6q54 0 89 -26zM358 678q-5 -5 -16 -16.5t-25 -26t-29.5 -31t-28 -30t-21.5 -23t-10 -10.5l-16 1l113 136h33z
" />
    <glyph glyph-name="Scircumflex" unicode="&#x15c;" horiz-adv-x="455" 
d="M58 54q20 -20 57.5 -33t75.5 -13q37 0 71 11.5t61.5 33.5t46.5 52.5t26 67.5q6 32 1 57t-20.5 45t-41.5 37t-61 33q-43 20 -68.5 40t-38 41.5t-15 44t2.5 46.5q7 36 27 66.5t48.5 52.5t63.5 34.5t72 12.5q26 0 55.5 -7t51.5 -24l-10 -19q-20 16 -48.5 23t-52.5 7
q-33 0 -64 -10.5t-56 -29t-42.5 -44.5t-23.5 -58q-6 -31 0.5 -54t22 -41.5t38.5 -33t50 -28.5q39 -18 66.5 -36t43.5 -40.5t21 -50t-2 -63.5q-7 -40 -28.5 -74.5t-52 -59t-68.5 -38.5t-80 -14q-22 0 -43.5 3.5t-40.5 10t-33.5 14.5t-21.5 17zM404 871l67 -136h-29l-53 120
l-102 -120h-27l117 136h27z" />
    <glyph glyph-name="scircumflex" unicode="&#x15d;" horiz-adv-x="366" 
d="M356 442q-14 12 -36.5 18.5t-45.5 6.5q-14 0 -33 -4.5t-38.5 -16t-35 -30.5t-21.5 -48q-8 -39 12.5 -64t72.5 -46q22 -9 40.5 -21t31 -28.5t17.5 -37.5t-1 -49q-3 -19 -14.5 -42t-33 -43.5t-53 -34t-73.5 -13.5q-29 0 -52.5 8.5t-43.5 23.5l10 20q18 -13 41 -21.5
t50 -8.5q37 0 63.5 11t44 27.5t27.5 36t13 35.5q5 25 1 43t-15 31.5t-28 24t-38 19.5q-18 8 -37.5 18t-33.5 24t-21 35t-1 51q7 35 25.5 58t41.5 37t46.5 20t39.5 6q54 0 89 -26zM324 678l67 -136h-29l-53 120l-102 -120h-27l117 136h27z" />
    <glyph glyph-name="Scedilla" unicode="&#x15e;" horiz-adv-x="455" 
d="M58 54q20 -20 57.5 -33t75.5 -13q37 0 71 11.5t61.5 33.5t46.5 52.5t26 67.5q6 32 1 57t-20.5 45t-41.5 37t-61 33q-43 20 -68.5 40t-38 41.5t-15 44t2.5 46.5q7 36 27 66.5t48.5 52.5t63.5 34.5t72 12.5q26 0 55.5 -7t51.5 -24l-10 -19q-20 16 -48.5 23t-52.5 7
q-33 0 -64 -10.5t-56 -29t-42.5 -44.5t-23.5 -58q-6 -31 0.5 -54t22 -41.5t38.5 -33t50 -28.5q39 -18 66.5 -36t43.5 -40.5t21 -50t-2 -63.5q-7 -40 -28.5 -74.5t-52 -59t-68.5 -38.5t-80 -14q-22 0 -43.5 3.5t-40.5 10t-33.5 14.5t-21.5 17zM211 -9l-43 -55q26 -5 40 -23.5
t9 -41.5q-8 -37 -34 -51t-61 -14q-24 0 -48 11l10 19q11 -5 21.5 -7.5t24.5 -2.5q22 0 40 9t23 35q4 26 -12.5 36.5t-46.5 15.5l53 69h24z" />
    <glyph glyph-name="scedilla" unicode="&#x15f;" horiz-adv-x="366" 
d="M356 442q-14 12 -36.5 18.5t-45.5 6.5q-14 0 -33 -4.5t-38.5 -16t-35 -30.5t-21.5 -48q-8 -39 12.5 -64t72.5 -46q22 -9 40.5 -21t31 -28.5t17.5 -37.5t-1 -49q-3 -19 -14.5 -42t-33 -43.5t-53 -34t-73.5 -13.5q-29 0 -52.5 8.5t-43.5 23.5l10 20q18 -13 41 -21.5
t50 -8.5q37 0 63.5 11t44 27.5t27.5 36t13 35.5q5 25 1 43t-15 31.5t-28 24t-38 19.5q-18 8 -37.5 18t-33.5 24t-21 35t-1 51q7 35 25.5 58t41.5 37t46.5 20t39.5 6q54 0 89 -26zM176 -7l-43 -55q26 -5 40 -23.5t9 -41.5q-8 -37 -34 -51t-61 -14q-24 0 -48 11l10 19
q11 -5 21.5 -7.5t24.5 -2.5q22 0 40 9t23 35q4 26 -12.5 36.5t-46.5 15.5l53 69h24z" />
    <glyph glyph-name="Scaron" unicode="&#x160;" horiz-adv-x="432" 
d="M58 54q20 -20 57.5 -33t75.5 -13q37 0 71 11.5t61.5 33.5t46.5 52.5t26 67.5q6 32 1 57t-20.5 45t-41.5 37t-61 33q-43 20 -68.5 40t-38 41.5t-15 44t2.5 46.5q7 36 27 66.5t48.5 52.5t63.5 34.5t72 12.5q26 0 55.5 -7t51.5 -24l-10 -19q-20 16 -48.5 23t-52.5 7
q-33 0 -64 -10.5t-56 -29t-42.5 -44.5t-23.5 -58q-6 -31 0.5 -54t22 -41.5t38.5 -33t50 -28.5q39 -18 66.5 -36t43.5 -40.5t21 -50t-2 -63.5q-7 -40 -28.5 -74.5t-52 -59t-68.5 -38.5t-80 -14q-22 0 -43.5 3.5t-40.5 10t-33.5 14.5t-21.5 17zM364 717l-74 136h25l64 -121
l114 121h24l-127 -136h-26z" />
    <glyph glyph-name="scaron" unicode="&#x161;" horiz-adv-x="366" 
d="M356 442q-14 12 -36.5 18.5t-45.5 6.5q-14 0 -33 -4.5t-38.5 -16t-35 -30.5t-21.5 -48q-8 -39 12.5 -64t72.5 -46q22 -9 40.5 -21t31 -28.5t17.5 -37.5t-1 -49q-3 -19 -14.5 -42t-33 -43.5t-53 -34t-73.5 -13.5q-29 0 -52.5 8.5t-43.5 23.5l10 20q18 -13 41 -21.5
t50 -8.5q37 0 63.5 11t44 27.5t27.5 36t13 35.5q5 25 1 43t-15 31.5t-28 24t-38 19.5q-18 8 -37.5 18t-33.5 24t-21 35t-1 51q7 35 25.5 58t41.5 37t46.5 20t39.5 6q54 0 89 -26zM275 541l-74 136h25l64 -121l114 121h24l-127 -136h-26z" />
    <glyph glyph-name="Tcedilla" unicode="&#x162;" horiz-adv-x="456" 
d="M576 650h-222l-126 -650h-21l126 650h-222l4 21h465zM233 1l-43 -55q26 -5 40 -23.5t9 -41.5q-8 -37 -34 -51t-61 -14q-24 0 -48 11l10 19q11 -5 21.5 -7.5t24.5 -2.5q22 0 40 9t23 35q4 26 -12.5 36.5t-46.5 15.5l53 69h24z" />
    <glyph glyph-name="tcedilla" unicode="&#x163;" horiz-adv-x="303" 
d="M255 3q-35 -12 -62 -12q-35 0 -51.5 14.5t-20.5 38t-0.5 54t9.5 61.5l58 298h-82l4 21h82l18 91l22 7l-19 -98h140l-4 -21h-140l-58 -298l-9.5 -57t-1.5 -47.5t16.5 -32t41.5 -11.5q24 0 54 11zM207 -8l-43 -55q26 -5 40 -23.5t9 -41.5q-8 -37 -34 -51t-61 -14
q-24 0 -48 11l10 19q11 -5 21.5 -7.5t24.5 -2.5q22 0 40 9t23 35q4 26 -12.5 36.5t-46.5 15.5l53 69h24z" />
    <glyph glyph-name="Tcaron" unicode="&#x164;" horiz-adv-x="456" 
d="M576 650h-222l-126 -650h-21l126 650h-222l4 21h465zM341 723l-67 137h30l53 -120q44 52 66 79t35 41h28q-28 -32 -59 -68.5t-59 -68.5h-27z" />
    <glyph glyph-name="tcaron" unicode="&#x165;" horiz-adv-x="476" 
d="M255 3q-35 -12 -62 -12q-35 0 -51.5 14.5t-20.5 38t-0.5 54t9.5 61.5l58 298h-82l4 21h82l18 91l22 7l-19 -98h140l-4 -21h-140l-58 -298l-9.5 -57t-1.5 -47.5t16.5 -32t41.5 -11.5q24 0 54 11zM574 688q-13 -27 -29.5 -59.5t-32.5 -63t-30.5 -55.5t-22.5 -37h-8.5
t-6.5 -1q10 19 24 46.5t27.5 57t25.5 58.5t20 50z" />
    <glyph glyph-name="Tbar" unicode="&#x166;" horiz-adv-x="456" 
d="M187 420l4 19h115l41 214h-220l5 21h462l-5 -21h-220l-41 -214h104l-4 -19h-104l-81 -420h-22l81 420h-115z" />
    <glyph glyph-name="tbar" unicode="&#x167;" horiz-adv-x="303" 
d="M91 322l4 18h83l23 121h-83l4 19h83l18 95l25 9l-20 -104h138l-4 -19h-138l-23 -121h138l-4 -18h-138l-38 -198q-11 -54 1.5 -84t60.5 -30q28 0 44 4q-1 -8 0 -10.5t1 -7.5q-20 -6 -54 -6q-31 0 -48.5 10.5t-25.5 30t-7 45.5t7 58l36 188h-83z" />
    <glyph glyph-name="Utilde" unicode="&#x168;" horiz-adv-x="613" 
d="M236 674l-82 -418q-6 -31 -9 -73.5t8.5 -80.5t43 -64.5t95.5 -26.5q68 0 113.5 26t75 64t44 80t20.5 75l82 418h21l-82 -418q-11 -56 -33 -105t-56.5 -85t-81.5 -56.5t-108 -20.5q-47 0 -78 13t-49.5 35t-26.5 50t-10 57.5t2 58.5t8 53l82 418h21zM342 731q7 27 24 47.5
t40 20.5q15 0 27 -6.5t22.5 -14t22.5 -13.5t27 -6q31 0 42 43h16q-7 -27 -22 -44t-40 -17q-15 0 -26.5 6t-22.5 13.5t-22.5 13.5t-26.5 6q-17 0 -26.5 -14.5t-17.5 -34.5h-17z" />
    <glyph glyph-name="utilde" unicode="&#x169;" horiz-adv-x="519" 
d="M402 0q1 16 6 41.5t10 51.5q-23 -32 -57 -58q-17 -14 -49.5 -29t-72.5 -15q-76 0 -109 50.5t-14 147.5l56 289h21l-56 -289q-17 -89 12 -133t94 -44q37 0 64.5 13.5t43.5 25.5q33 24 53.5 56.5t29.5 69.5l58 301h21l-12 -66l-46 -235l-15 -79q-6 -28 -11 -55t-6 -43h-21z
M258 537q7 27 24 47.5t40 20.5q15 0 27 -6.5t22.5 -14t22.5 -13.5t27 -6q31 0 42 43h16q-7 -27 -22 -44t-40 -17q-15 0 -26.5 6t-22.5 13.5t-22.5 13.5t-26.5 6q-17 0 -26.5 -14.5t-17.5 -34.5h-17z" />
    <glyph glyph-name="Umacron" unicode="&#x16a;" horiz-adv-x="613" 
d="M236 674l-82 -418q-6 -31 -9 -73.5t8.5 -80.5t43 -64.5t95.5 -26.5q68 0 113.5 26t75 64t44 80t20.5 75l82 418h21l-82 -418q-11 -56 -33 -105t-56.5 -85t-81.5 -56.5t-108 -20.5q-47 0 -78 13t-49.5 35t-26.5 50t-10 57.5t2 58.5t8 53l82 418h21zM566 752l-4 -18h-228
l4 18h228z" />
    <glyph glyph-name="umacron" unicode="&#x16b;" horiz-adv-x="519" 
d="M402 0q1 16 6 41.5t10 51.5q-23 -32 -57 -58q-17 -14 -49.5 -29t-72.5 -15q-76 0 -109 50.5t-14 147.5l56 289h21l-56 -289q-17 -89 12 -133t94 -44q37 0 64.5 13.5t43.5 25.5q33 24 53.5 56.5t29.5 69.5l58 301h21l-12 -66l-46 -235l-15 -79q-6 -28 -11 -55t-6 -43h-21z
M483 558l-4 -18h-228l4 18h228z" />
    <glyph glyph-name="Ubreve" unicode="&#x16c;" horiz-adv-x="613" 
d="M236 674l-82 -418q-6 -31 -9 -73.5t8.5 -80.5t43 -64.5t95.5 -26.5q68 0 113.5 26t75 64t44 80t20.5 75l82 418h21l-82 -418q-11 -56 -33 -105t-56.5 -85t-81.5 -56.5t-108 -20.5q-47 0 -78 13t-49.5 35t-26.5 50t-10 57.5t2 58.5t8 53l82 418h21zM378 837
q-1 -33 18 -55.5t55 -22.5q42 0 68.5 23t34.5 55h20q-10 -45 -44.5 -72t-82.5 -27q-30 0 -48 11t-28 27t-12 33t0 28h19z" />
    <glyph glyph-name="ubreve" unicode="&#x16d;" horiz-adv-x="519" 
d="M402 0q1 16 6 41.5t10 51.5q-23 -32 -57 -58q-17 -14 -49.5 -29t-72.5 -15q-76 0 -109 50.5t-14 147.5l56 289h21l-56 -289q-17 -89 12 -133t94 -44q37 0 64.5 13.5t43.5 25.5q33 24 53.5 56.5t29.5 69.5l58 301h21l-12 -66l-46 -235l-15 -79q-6 -28 -11 -55t-6 -43h-21z
M294 643q-1 -33 18 -55.5t55 -22.5q42 0 68.5 23t34.5 55h20q-10 -45 -44.5 -72t-82.5 -27q-30 0 -48 11t-28 27t-12 33t0 28h19z" />
    <glyph glyph-name="Uring" unicode="&#x16e;" horiz-adv-x="613" 
d="M236 674l-82 -418q-6 -31 -9 -73.5t8.5 -80.5t43 -64.5t95.5 -26.5q68 0 113.5 26t75 64t44 80t20.5 75l82 418h21l-82 -418q-11 -56 -33 -105t-56.5 -85t-81.5 -56.5t-108 -20.5q-47 0 -78 13t-49.5 35t-26.5 50t-10 57.5t2 58.5t8 53l82 418h21zM546 815
q-3 -18 -12.5 -33t-23 -26.5t-30 -18t-33.5 -6.5t-31 6.5t-23 18t-12.5 26.5t-0.5 33q7 35 35.5 59t63.5 24t54.5 -24t12.5 -59zM401 815q-5 -28 9.5 -45.5t40.5 -17.5q27 0 48.5 17.5t26.5 45.5q5 26 -9.5 44.5t-41.5 18.5q-26 0 -47.5 -18.5t-26.5 -44.5z" />
    <glyph glyph-name="uring" unicode="&#x16f;" horiz-adv-x="519" 
d="M402 0q1 16 6 41.5t10 51.5q-23 -32 -57 -58q-17 -14 -49.5 -29t-72.5 -15q-76 0 -109 50.5t-14 147.5l56 289h21l-56 -289q-17 -89 12 -133t94 -44q37 0 64.5 13.5t43.5 25.5q33 24 53.5 56.5t29.5 69.5l58 301h21l-12 -66l-46 -235l-15 -79q-6 -28 -11 -55t-6 -43h-21z
M463 621q-3 -18 -12.5 -33t-23 -26.5t-30 -18t-33.5 -6.5t-31 6.5t-23 18t-12.5 26.5t-0.5 33q7 35 35.5 59t63.5 24t54.5 -24t12.5 -59zM318 621q-5 -28 9.5 -45.5t40.5 -17.5q27 0 48.5 17.5t26.5 45.5q5 26 -9.5 44.5t-41.5 18.5q-26 0 -47.5 -18.5t-26.5 -44.5z" />
    <glyph glyph-name="Uhungarumlaut" unicode="&#x170;" horiz-adv-x="613" 
d="M236 674l-82 -418q-6 -31 -9 -73.5t8.5 -80.5t43 -64.5t95.5 -26.5q68 0 113.5 26t75 64t44 80t20.5 75l82 418h21l-82 -418q-11 -56 -33 -105t-56.5 -85t-81.5 -56.5t-108 -20.5q-47 0 -78 13t-49.5 35t-26.5 50t-10 57.5t2 58.5t8 53l82 418h21z" />
    <glyph glyph-name="uhungarumlaut" unicode="&#x171;" horiz-adv-x="519" 
d="M402 0q1 16 6 41.5t10 51.5q-23 -32 -57 -58q-17 -14 -49.5 -29t-72.5 -15q-76 0 -109 50.5t-14 147.5l56 289h21l-56 -289q-17 -89 12 -133t94 -44q37 0 64.5 13.5t43.5 25.5q33 24 53.5 56.5t29.5 69.5l58 301h21l-12 -66l-46 -235l-15 -79q-6 -28 -11 -55t-6 -43h-21z
" />
    <glyph glyph-name="Uogonek" unicode="&#x172;" horiz-adv-x="613" 
d="M236 674l-82 -418q-6 -31 -9 -73.5t8.5 -80.5t43 -64.5t95.5 -26.5q68 0 113.5 26t75 64t44 80t20.5 75l82 418h21l-82 -418q-11 -56 -33 -105t-56.5 -85t-81.5 -56.5t-108 -20.5q-47 0 -78 13t-49.5 35t-26.5 50t-10 57.5t2 58.5t8 53l82 418h21zM326 -7
q-18 -9 -38.5 -24t-38 -32t-29.5 -34.5t-13 -33.5q-2 -31 12 -41.5t37 -10.5q9 0 20.5 1t22.5 5l3 -17q-13 -5 -29.5 -8t-30.5 -3q-30 0 -46.5 22t-10.5 54q3 18 16.5 37t30.5 36t36 30t34 19h24z" />
    <glyph glyph-name="uogonek" unicode="&#x173;" horiz-adv-x="519" 
d="M402 0q1 16 6 41.5t10 51.5q-23 -32 -57 -58q-17 -14 -49.5 -29t-72.5 -15q-76 0 -109 50.5t-14 147.5l56 289h21l-56 -289q-17 -89 12 -133t94 -44q37 0 64.5 13.5t43.5 25.5q33 24 53.5 56.5t29.5 69.5l58 301h21l-12 -66l-46 -235l-15 -79q-6 -28 -11 -55t-6 -43h-21z
M268 -7q-18 -9 -38.5 -24t-38 -32t-29.5 -34.5t-13 -33.5q-2 -31 12 -41.5t37 -10.5q9 0 20.5 1t22.5 5l3 -17q-13 -5 -29.5 -8t-30.5 -3q-30 0 -46.5 22t-10.5 54q3 18 16.5 37t30.5 36t36 30t34 19h24z" />
    <glyph glyph-name="Wcircumflex" unicode="&#x174;" horiz-adv-x="808" 
d="M918 674l-335 -674h-16l-48 626l-308 -626h-16l-49 674h21l45 -624l309 624h19l44 -626l313 626h21zM585 861l67 -136h-29l-53 120l-102 -120h-27l117 136h27z" />
    <glyph glyph-name="wcircumflex" unicode="&#x175;" horiz-adv-x="709" 
d="M453 476l63 -437l229 437h21l-247 -476h-19l-66 446l-245 -446h-19l-53 476h21l50 -437l239 437h26zM496 667l67 -136h-29l-53 120l-102 -120h-27l117 136h27z" />
    <glyph glyph-name="Ycircumflex" unicode="&#x176;" horiz-adv-x="495" 
d="M606 674l-300 -381l-56 -293h-21l56 293l-136 381h24l128 -357l279 357h26zM433 861l67 -136h-29l-53 120l-102 -120h-27l117 136h27z" />
    <glyph glyph-name="ycircumflex" unicode="&#x177;" horiz-adv-x="431" 
d="M-18 -200q18 7 41.5 21.5t50.5 39t56 60.5t59 87l7 11l-91 457h22l86 -428q16 27 41 69t53.5 89t56.5 94.5t50.5 86t37 63t14.5 26.5h24l-244 -410q-16 -26 -25 -41.5t-12 -20.5q-31 -54 -62 -92.5t-59.5 -65t-55 -42t-47.5 -24.5zM356 667l67 -136h-29l-53 120
l-102 -120h-27l117 136h27z" />
    <glyph glyph-name="Ydieresis" unicode="&#x178;" horiz-adv-x="495" 
d="M292 775q2 9 9.5 15t15.5 6t12.5 -6t2.5 -15q-2 -8 -8.5 -14t-14.5 -6t-13.5 6t-3.5 14zM470 775q2 9 9.5 15t15.5 6t12.5 -6t2.5 -15q-2 -8 -8.5 -14t-14.5 -6t-13.5 6t-3.5 14zM606 674l-300 -381l-56 -293h-21l56 293l-136 381h24l128 -357l279 357h26z" />
    <glyph glyph-name="Zacute" unicode="&#x179;" horiz-adv-x="525" 
d="M67 21h420l-4 -21h-447l4 21l537 632h-381l5 21h407l-4 -19zM474 861q-5 -5 -16 -16.5t-25 -26t-29.5 -31t-28 -30t-21.5 -23t-10 -10.5l-16 1l113 136h33z" />
    <glyph glyph-name="zacute" unicode="&#x17a;" horiz-adv-x="395" 
d="M128 476h330l-4 -21l-404 -434h320l-4 -21h-352l3 16l410 439h-303zM372 667q-5 -5 -16 -16.5t-25 -26t-29.5 -31t-28 -30t-21.5 -23t-10 -10.5l-16 1l113 136h33z" />
    <glyph glyph-name="Zdotaccent" unicode="&#x17b;" horiz-adv-x="525" 
d="M67 21h420l-4 -21h-447l4 21l537 632h-381l5 21h407l-4 -19zM387 749q2 11 10.5 18.5t19.5 7.5t17 -7.5t4 -18.5q-5 -25 -30 -25q-11 0 -17 7t-4 18z" />
    <glyph glyph-name="zdotaccent" unicode="&#x17c;" horiz-adv-x="395" 
d="M128 476h330l-4 -21l-404 -434h320l-4 -21h-352l3 16l410 439h-303zM284 555q2 11 10.5 18.5t19.5 7.5t17 -7.5t4 -18.5q-5 -25 -30 -25q-11 0 -17 7t-4 18z" />
    <glyph glyph-name="Zcaron" unicode="&#x17d;" horiz-adv-x="515" 
d="M67 21h420l-4 -21h-447l4 21l537 632h-381l5 21h407l-4 -19zM405 708l-74 136h25l64 -121l114 121h24l-127 -136h-26z" />
    <glyph glyph-name="zcaron" unicode="&#x17e;" horiz-adv-x="395" 
d="M284 539l-74 136h25l64 -121l114 121h24l-127 -136h-26zM128 476h330l-4 -21l-404 -434h320l-4 -21h-352l3 16l410 439h-303z" />
    <glyph glyph-name="longs" unicode="&#x17f;" horiz-adv-x="257" 
d="M97 0l90 466h-72l3 14h72l8 42q20 102 64 156t129 54q16 0 30 -2.5t23 -6.5q-3 -5 -4.5 -9.5t-3.5 -6.5q-8 3 -21 4.5t-33 1.5q-41 0 -69 -17t-47 -44.5t-29.5 -61.5t-16.5 -67l-101 -523h-22z" />
    <glyph glyph-name="uni018E" unicode="&#x18e;" horiz-adv-x="456" 
d="M187 329h272l63 324h-304l5 21h326l-131 -674h-311l4 21h289l55 287h-272z" />
    <glyph glyph-name="uni0191" unicode="&#x191;" horiz-adv-x="452" 
d="M-79 -195q29 4 56.5 15.5t46.5 30.5t33 45.5t27 76.5l14 56l126 645h310l-5 -21h-288l-57 -296h265l-4 -21h-265l-67 -346q-6 -21 -12.5 -41.5t-14.5 -37.5q-9 -20 -22.5 -39.5t-31.5 -36.5q-26 -23 -58 -35t-55 -14z" />
    <glyph glyph-name="florin" unicode="&#x192;" horiz-adv-x="479" 
d="M193 392h107l21 66q15 43 34.5 81.5t45 67t58 45.5t73.5 17q15 -2 27 -4.5t20 -5.5l-9 -19q-24 8 -50 8q-34 0 -60.5 -15.5t-47.5 -41.5t-36.5 -59t-27.5 -69l-20 -71h136l-4 -18h-139l-76 -241q-15 -51 -34 -91t-42.5 -68t-53 -43t-66.5 -15q-17 0 -31.5 3.5t-22.5 8.5
q2 4 3.5 9.5t3.5 8.5q11 -5 25.5 -7.5t30.5 -2.5q29 0 53 14t43 39t34 59t27 73l79 253h-105z" />
    <glyph glyph-name="uni019D" unicode="&#x19d;" horiz-adv-x="624" 
d="M-81 -195q29 4 56.5 15.5t46.5 30.5q12 12 22.5 27t20 38.5t19 57t18.5 82.5l121 618h25l180 -402q28 -63 52 -118.5t46 -103.5l6 -11q12 71 26 145t31 157l65 333h20l-131 -674h-23l-178 397l-11 24q-20 48 -43 102.5t-45 100.5l-8 10q-8 -51 -19 -105t-22 -111
l-83 -427q-6 -22 -12.5 -42.5t-14.5 -37.5q-9 -20 -22.5 -39.5t-31.5 -36.5q-26 -23 -58 -35t-55 -14z" />
    <glyph glyph-name="Ohorn" unicode="&#x1a0;" 
d="M-229 685q63 0 110 -25.5t75 -71.5q13 -21 21 -46q16 -28 39 -47t49 -19q31 -1 46 16.5t20 40.5q2 9 1.5 20t-2.5 22l19 5q2 -12 2.5 -25t-2.5 -28q-6 -30 -25.5 -52t-51.5 -22q-25 0 -47.5 12t-35.5 27q1 -7 1 -14q8 -64 -7 -142q-15 -74 -48 -137.5t-83 -111.5
q-47 -48 -105 -73t-120 -25q-57 0 -102 25t-74 71q-31 48 -38.5 111.5t7.5 141.5q15 75 48.5 139t80.5 110t104 72t118 26zM-37 336q14 74 7.5 134.5t-33 103.5t-69.5 66t-102 23q-57 0 -110 -24.5t-96 -67.5t-74 -102.5t-45 -130.5q-14 -72 -7 -132.5t32 -103.5t67.5 -67
t98.5 -24q60 0 113.5 24t97.5 67t75 102.5t45 131.5z" />
    <glyph glyph-name="ohorn" unicode="&#x1a1;" 
d="M-204 491q45 0 80 -18.5t56 -51.5q14 -21 22 -47q16 -23 37.5 -39t44.5 -16q30 -1 45.5 16.5t20.5 40.5q2 9 1.5 20t-2.5 22l19 5q2 -12 2 -28t-3 -31q-6 -30 -25.5 -52t-51.5 -22q-23 0 -44.5 13.5t-35.5 28.5q4 -42 -6 -92q-10 -54 -35.5 -99.5t-61 -78.5t-78.5 -52
t-90 -19t-81.5 19.5t-54.5 53.5t-26 79.5t4 96.5q11 54 36 99.5t60.5 79.5t78 53t88.5 19zM-65 240q10 51 4.5 93t-24.5 72.5t-50 47.5t-73 17t-80.5 -17.5t-70.5 -48t-54.5 -72.5t-32.5 -92q-11 -55 -3.5 -97.5t27.5 -71.5t50.5 -43.5t66.5 -14.5q45 0 85 17t71 47.5t53 72
t31 90.5z" />
    <glyph glyph-name="uni01A7" unicode="&#x1a7;" horiz-adv-x="455" 
d="M408 28q-31 -17 -73.5 -27.5t-81.5 -10.5q-51 0 -86 14.5t-55.5 39t-27 57.5t0.5 69q14 73 64.5 116t135.5 77q81 29 125 66.5t56 98.5q3 18 -1.5 41.5t-20 44.5t-42.5 35.5t-69 14.5q-38 0 -68.5 -8t-50.5 -18q-2 8 -2 11t-2 10q20 11 50 18t73 7q38 0 70 -10.5
t53 -31.5t29.5 -52t0.5 -71q-13 -68 -66.5 -111t-135.5 -71q-42 -16 -72.5 -33t-51 -37t-33 -44.5t-18.5 -55.5q-6 -33 0.5 -61.5t25 -49.5t48 -33.5t69.5 -12.5q83 0 150 38z" />
    <glyph glyph-name="uni01A8" unicode="&#x1a8;" horiz-adv-x="366" 
d="M319 17q-24 -13 -53.5 -20t-60.5 -7q-75 0 -108.5 32t-20.5 100q11 54 48.5 85.5t97.5 54.5t92 46.5t40 65.5q4 19 0 36.5t-15 31t-30 21.5t-46 8q-32 0 -55 -7.5t-38 -15.5l-8 20q20 11 44 17.5t54 6.5q69 0 97.5 -33.5t17.5 -92.5q-8 -43 -46 -71.5t-99 -51.5
q-62 -23 -93 -52.5t-40 -74.5t16.5 -75.5t91.5 -30.5q29 0 58 9t51 20z" />
    <glyph glyph-name="Uhorn" unicode="&#x1af;" horiz-adv-x="601" 
d="M-453 675l-82 -418q-6 -31 -9 -73.5t8.5 -80.5t43 -64.5t95.5 -26.5q68 0 113.5 26t75 64t44 80t20.5 75l82 418h21l-2 -9q7 -17 17 -34.5t22.5 -32t26.5 -24.5t28 -10q31 -1 46.5 16.5t19.5 40.5q2 9 2 20t-2 22l19 5q2 -12 2 -28t-3 -31t-11 -29t-19.5 -24.5t-26 -16.5
t-30.5 -4q-16 1 -26.5 5t-20.5 13.5t-21.5 28t-29.5 48.5l-73 -374q-10 -56 -32 -105t-56.5 -85t-81.5 -56.5t-108 -20.5q-47 0 -78 13t-50 35t-27 50t-9.5 57.5t2 58.5t7.5 53l82 418h21z" />
    <glyph glyph-name="uhorn" unicode="&#x1b0;" horiz-adv-x="502" 
d="M-187 2q1 16 6 41l10 52q-22 -32 -56 -58q-18 -14 -50.5 -29t-72.5 -15q-76 0 -108.5 50.5t-13.5 147.5l56 289h21l-56 -289q-18 -89 11 -133t94 -44q37 0 64.5 13.5t44.5 25.5q32 24 52.5 56.5t29.5 69.5l59 301h21l-2 -8q6 -17 17 -35t24 -33t27 -24.5t27 -9.5
q31 -1 46.5 16.5t20.5 40.5q2 9 1.5 20t-2.5 22l19 5q2 -12 2 -28t-3 -31q-6 -30 -28 -49t-54 -19q-12 0 -23 2.5t-23 12t-26 27.5t-31 49l-77 -393q-5 -27 -6 -43h-21z" />
    <glyph glyph-name="uni01B5" unicode="&#x1b5;" horiz-adv-x="525" 
d="M46 19l270 315h-98l5 21h112l251 295l-383 3l5 21h413l-4 -19l-255 -300h87l-5 -21h-102l-264 -310l417 -3l-4 -21h-448z" />
    <glyph glyph-name="uni01B6" unicode="&#x1b6;" horiz-adv-x="395" 
d="M29 18l208 223h-95l5 22h111l99 107l42 42l45 46h-307l4 22h333l-4 -21l-184 -196h89l-5 -22h-105l-129 -133l-78 -86q75 0 161 -1t163 -1l-3 -20h-353z" />
    <glyph glyph-name="clickdental" unicode="&#x1c0;" horiz-adv-x="210" 
d="M251 674l-131 -674h-27l131 674h27z" />
    <glyph glyph-name="clicklateral" unicode="&#x1c1;" horiz-adv-x="420" 
d="M249 674l-131 -674h-26l131 674h26zM464 674l-131 -674h-26l131 674h26z" />
    <glyph glyph-name="uni01C2" unicode="&#x1c2;" horiz-adv-x="210" 
d="M83 314l4 21h72l20 103h-72l4 21h72l42 215h21l-42 -215h72l-4 -21h-72l-20 -103h72l-4 -21h-72l-61 -314h-21l61 314h-72z" />
    <glyph glyph-name="clickretroflex" unicode="&#x1c3;" horiz-adv-x="206" 
d="M131 183l87 491h32l-103 -491h-16zM130 14q-2 -10 -10 -17.5t-19 -7.5t-16 7.5t-3 17.5q2 11 10 18.5t19 7.5t16 -7.5t3 -18.5z" />
    <glyph glyph-name="DZcaron" unicode="&#x1c4;" horiz-adv-x="1157" 
d="M213 664q25 5 50 8t48 4.5t44 2t37 0.5q153 0 220 -86t35 -251q-17 -85 -55.5 -149t-92.5 -108q-65 -53 -139 -71t-160 -18q-23 0 -54 1t-62 3zM386 658q-42 0 -79.5 -2.5t-76.5 -9.5l-121 -625q11 -1 25.5 -2t28 -1.5t24.5 -0.5h17q81 0 151 16.5t133 66.5
q52 41 88 105.5t50 136.5q31 158 -33 237t-207 79zM699 21h420l-4 -21h-447l4 21l537 632h-381l5 21h407l-4 -19zM1112 725l-74 136h25l64 -121l114 121h24l-127 -136h-26z" />
    <glyph glyph-name="Dzcaron" unicode="&#x1c5;" horiz-adv-x="1027" 
d="M213 664q25 5 50 8t48 4.5t44 2t37 0.5q153 0 220 -86t35 -251q-17 -85 -55.5 -149t-92.5 -108q-65 -53 -139 -71t-160 -18q-23 0 -54 1t-62 3zM386 658q-42 0 -79.5 -2.5t-76.5 -9.5l-121 -625q11 -1 25.5 -2t28 -1.5t24.5 -0.5h17q81 0 151 16.5t133 66.5
q52 41 88 105.5t50 136.5q31 158 -33 237t-207 79zM760 476h330l-4 -21l-404 -434h320l-4 -21h-352l3 16l410 439h-303zM1010 531l-74 136h25l64 -121l114 121h24l-127 -136h-26z" />
    <glyph glyph-name="dzcaron" unicode="&#x1c6;" horiz-adv-x="927" 
d="M417 0q1 17 5.5 43t10.5 55q-33 -48 -84 -78.5t-107 -30.5q-37 0 -70 16t-55.5 47t-31 77.5t2.5 106.5q11 54 36 100t59 79.5t75.5 53t85.5 19.5q56 0 93 -28t52 -70l62 319h20l-103 -531q0 -1 -4.5 -23t-9.5 -51t-9.5 -58t-5.5 -46h-22zM246 10q38 0 72 15.5t61.5 40
t45.5 56.5t25 65l25 127q5 27 -2 54t-24.5 49t-45 36t-63.5 14q-37 0 -74 -15.5t-69 -45.5q-34 -32 -56 -76t-32 -94q-9 -49 -3.5 -90.5t23.5 -71.5t48 -47t69 -17zM660 476h330l-4 -21l-404 -434h320l-4 -21h-352l3 16l410 439h-303zM910 531l-74 136h25l64 -121l114 121
h24l-127 -136h-26z" />
    <glyph glyph-name="LJ" unicode="&#x1c7;" horiz-adv-x="778" 
d="M409 0h-322l131 674h21l-127 -653h301zM458 22q10 -5 28.5 -9t33.5 -4q35 0 68 14.5t57 41.5q13 15 22.5 35.5t16 42t11 42t7.5 36.5l89 453h21l-89 -453q-3 -17 -7.5 -39t-12 -45t-18.5 -45t-26 -40q-27 -31 -64.5 -47t-77.5 -16q-16 0 -35 3.5t-32 9.5z" />
    <glyph glyph-name="Lj" unicode="&#x1c8;" horiz-adv-x="651" 
d="M409 0h-322l131 674h21l-127 -653h301zM363 -184q47 0 77 19t49.5 49t30 66t17.5 71l88 455h21l-88 -455q-7 -36 -19 -75.5t-34 -72.5t-56 -55t-87 -23zM685 622q-1 -8 -7.5 -13.5t-16.5 -5.5q-11 0 -15.5 5.5t-3.5 13.5q4 20 26 20q21 0 17 -20z" />
    <glyph glyph-name="lj" unicode="&#x1c9;" horiz-adv-x="417" 
d="M245 708l-137 -708h-21l137 708h21zM129 -184q47 0 77 19t49.5 49t30 66t17.5 71l88 455h21l-88 -455q-7 -36 -19 -75.5t-34 -72.5t-56 -55t-87 -23zM451 622q-1 -8 -7.5 -13.5t-16.5 -5.5q-11 0 -15.5 5.5t-3.5 13.5q4 20 26 20q21 0 17 -20z" />
    <glyph glyph-name="NJ" unicode="&#x1ca;" horiz-adv-x="962" 
d="M215 674h13l284 -629l123 629h21l-131 -674h-16l-283 624l-121 -624h-21zM642 22q10 -5 28.5 -9t33.5 -4q35 0 68 14.5t57 41.5q13 15 22.5 35.5t16 42t11 42t7.5 36.5l89 453h21l-89 -453q-3 -17 -7.5 -39t-12 -45t-18.5 -45t-26 -40q-27 -31 -64.5 -47t-77.5 -16
q-16 0 -35 3.5t-32 9.5z" />
    <glyph glyph-name="Nj" unicode="&#x1cb;" horiz-adv-x="835" 
d="M215 674h13l284 -629l123 629h21l-131 -674h-16l-283 624l-121 -624h-21zM547 -184q47 0 77 19t49.5 49t30 66t17.5 71l88 455h21l-88 -455q-7 -36 -19 -75.5t-34 -72.5t-56 -55t-87 -23zM869 622q-1 -8 -7.5 -13.5t-16.5 -5.5q-11 0 -15.5 5.5t-3.5 13.5q4 20 26 20
q21 0 17 -20z" />
    <glyph glyph-name="nj" unicode="&#x1cc;" horiz-adv-x="736" 
d="M194 476q-1 -15 -5.5 -39.5t-9.5 -50.5q35 50 82 76.5t106 26.5q51 0 83.5 -27.5t42.5 -75.5q3 -24 0 -48.5t-7 -46.5l-56 -291h-20l56 291q7 35 7.5 55.5t-4.5 38.5q-2 9 -7.5 23.5t-18 27.5t-33 22.5t-51.5 9.5q-44 0 -78.5 -17.5t-59.5 -43.5t-40 -55.5t-19 -52.5
l-58 -299h-20l59 304q2 10 6.5 34t9 51t8.5 51.5t4 35.5h23zM448 -184q47 0 77 19t49.5 49t30 66t17.5 71l88 455h21l-88 -455q-7 -36 -19 -75.5t-34 -72.5t-56 -55t-87 -23zM770 622q-1 -8 -7.5 -13.5t-16.5 -5.5q-11 0 -15.5 5.5t-3.5 13.5q4 20 26 20q21 0 17 -20z" />
    <glyph glyph-name="Acaron" unicode="&#x1cd;" horiz-adv-x="574" 
d="M33 0l376 674h11l115 -674h-24l-44 251h-272l-141 -251h-21zM207 272h259l-61 354zM507 725l-74 136h25l64 -121l114 121h24l-127 -136h-26z" />
    <glyph glyph-name="acaron" unicode="&#x1ce;" horiz-adv-x="446" 
d="M334 0q0 10 3.5 34t8.5 50q-4 -4 -7.5 -8.5t-5.5 -6.5q-41 -46 -82.5 -61t-74.5 -15q-28 0 -51 7t-39 22.5t-22.5 39.5t0.5 58q7 36 26.5 67t55.5 54t89.5 36.5t128.5 13.5h20l6 33q3 15 4.5 40t-7.5 49t-30.5 41t-65.5 17q-29 0 -61 -10t-65 -30l-8 16q35 23 70 33.5
t67 10.5q39 0 63 -12.5t37.5 -32t17.5 -42t3.5 -42t-3 -34t-3.5 -16.5l-20 -106q-2 -7 -7 -33t-11 -58.5t-10.5 -64.5t-4.5 -50h-22zM320 79q8 9 14 17t11.5 20.5t10 32t10.5 49.5l14 72q0 -1 -1 -1t-1 1q-34 2 -80.5 -2t-90 -19t-78 -45.5t-44.5 -83.5q-6 -28 -0.5 -48.5
t19 -33.5t33.5 -19t43 -6q12 0 28 2.5t34.5 9.5t38 20t39.5 34zM390 542l-74 136h25l64 -121l114 121h24l-127 -136h-26z" />
    <glyph glyph-name="Icaron" unicode="&#x1cf;" horiz-adv-x="208" 
d="M218 674h21l-131 -674h-21zM320 725l-74 136h25l64 -121l114 121h24l-127 -136h-26z" />
    <glyph glyph-name="icaron" unicode="&#x1d0;" horiz-adv-x="206" 
d="M91 0l93 480h22l-93 -480h-22zM282 531l-74 136h25l64 -121l114 121h24l-127 -136h-26z" />
    <glyph glyph-name="Ocaron" unicode="&#x1d1;" horiz-adv-x="654" 
d="M646 336q14 74 7.5 134.5t-33 103.5t-69.5 66t-102 23q-57 0 -110 -24.5t-96 -67.5t-74 -102.5t-45 -130.5q-14 -72 -7 -132.5t32 -103.5t67.5 -67t98.5 -24q60 0 113.5 24t97.5 67t75 102.5t45 131.5zM454 685q63 0 110 -25.5t74.5 -71t35 -110t-7.5 -142.5
q-15 -74 -48 -137.5t-83 -111.5q-47 -48 -105 -73t-120 -25q-57 0 -102 25t-74 71q-31 48 -38.5 111.5t7.5 141.5q15 75 48.5 139t80.5 110t104 72t118 26zM546 736l-74 136h25l64 -121l114 121h24l-127 -136h-26z" />
    <glyph glyph-name="ocaron" unicode="&#x1d2;" horiz-adv-x="520" 
d="M491 237q9 51 4 93t-24 72.5t-50.5 47.5t-73.5 17t-80.5 -17.5t-70 -48t-54.5 -72.5t-32 -92q-11 -55 -4 -97.5t27 -71.5t50.5 -43.5t66.5 -14.5q45 0 85 17t71.5 47.5t53 72t31.5 90.5zM351 488q45 0 80 -18.5t56.5 -51.5t28 -79t-3.5 -102q-11 -54 -36.5 -99.5
t-60.5 -78.5t-78.5 -52t-90.5 -19t-81 19.5t-54.5 53.5t-26 79.5t4.5 96.5q10 54 35.5 99.5t60.5 79.5t77.5 53t88.5 19zM442 542l-74 136h25l64 -121l114 121h24l-127 -136h-26z" />
    <glyph glyph-name="Ucaron" unicode="&#x1d3;" horiz-adv-x="613" 
d="M236 674l-82 -418q-6 -31 -9 -73.5t8.5 -80.5t43 -64.5t95.5 -26.5q68 0 113.5 26t75 64t44 80t20.5 75l82 418h21l-82 -418q-11 -56 -33 -105t-56.5 -85t-81.5 -56.5t-108 -20.5q-47 0 -78 13t-49.5 35t-26.5 50t-10 57.5t2 58.5t8 53l82 418h21zM523 725l-74 136h25
l64 -121l114 121h24l-127 -136h-26z" />
    <glyph glyph-name="ucaron" unicode="&#x1d4;" horiz-adv-x="519" 
d="M402 0q1 16 6 41.5t10 51.5q-23 -32 -57 -58q-17 -14 -49.5 -29t-72.5 -15q-76 0 -109 50.5t-14 147.5l56 289h21l-56 -289q-17 -89 12 -133t94 -44q37 0 64.5 13.5t43.5 25.5q33 24 53.5 56.5t29.5 69.5l58 301h21l-12 -66l-46 -235l-15 -79q-6 -28 -11 -55t-6 -43h-21z
M440 531l-74 136h25l64 -121l114 121h24l-127 -136h-26z" />
    <glyph glyph-name="Udieresismacron" unicode="&#x1d5;" horiz-adv-x="613" 
d="M236 674l-82 -418q-6 -31 -9 -73.5t8.5 -80.5t43 -64.5t95.5 -26.5q68 0 113.5 26t75 64t44 80t20.5 75l82 418h21l-82 -418q-11 -56 -33 -105t-56.5 -85t-81.5 -56.5t-108 -20.5q-47 0 -78 13t-49.5 35t-26.5 50t-10 57.5t2 58.5t8 53l82 418h21zM352 778q2 9 9.5 15
t15.5 6t12.5 -6t2.5 -15q-2 -8 -8.5 -14t-14.5 -6t-13.5 6t-3.5 14zM530 778q2 9 9.5 15t15.5 6t12.5 -6t2.5 -15q-2 -8 -8.5 -14t-14.5 -6t-13.5 6t-3.5 14zM576 887l-3 -18h-194l3 18h194z" />
    <glyph glyph-name="udieresismacron" unicode="&#x1d6;" horiz-adv-x="519" 
d="M402 0q1 16 6 41.5t10 51.5q-23 -32 -57 -58q-17 -14 -49.5 -29t-72.5 -15q-76 0 -109 50.5t-14 147.5l56 289h21l-56 -289q-17 -89 12 -133t94 -44q37 0 64.5 13.5t43.5 25.5q33 24 53.5 56.5t29.5 69.5l58 301h21l-12 -66l-46 -235l-15 -79q-6 -28 -11 -55t-6 -43h-21z
M268 584q2 9 9.5 15t15.5 6t12.5 -6t2.5 -15q-2 -8 -8.5 -14t-14.5 -6t-13.5 6t-3.5 14zM446 584q2 9 9.5 15t15.5 6t12.5 -6t2.5 -15q-2 -8 -8.5 -14t-14.5 -6t-13.5 6t-3.5 14zM492 693l-3 -18h-194l3 18h194z" />
    <glyph glyph-name="Udieresisacute" unicode="&#x1d7;" horiz-adv-x="613" 
d="M236 674l-82 -418q-6 -31 -9 -73.5t8.5 -80.5t43 -64.5t95.5 -26.5q68 0 113.5 26t75 64t44 80t20.5 75l82 418h21l-82 -418q-11 -56 -33 -105t-56.5 -85t-81.5 -56.5t-108 -20.5q-47 0 -78 13t-49.5 35t-26.5 50t-10 57.5t2 58.5t8 53l82 418h21zM352 778q2 9 9.5 15
t15.5 6t12.5 -6t2.5 -15q-2 -8 -8.5 -14t-14.5 -6t-13.5 6t-3.5 14zM530 778q2 9 9.5 15t15.5 6t12.5 -6t2.5 -15q-2 -8 -8.5 -14t-14.5 -6t-13.5 6t-3.5 14zM552 988q-35 -32 -69.5 -68.5t-69.5 -68.5h-19l121 137h37z" />
    <glyph glyph-name="udieresisacute" unicode="&#x1d8;" horiz-adv-x="519" 
d="M402 0q1 16 6 41.5t10 51.5q-23 -32 -57 -58q-17 -14 -49.5 -29t-72.5 -15q-76 0 -109 50.5t-14 147.5l56 289h21l-56 -289q-17 -89 12 -133t94 -44q37 0 64.5 13.5t43.5 25.5q33 24 53.5 56.5t29.5 69.5l58 301h21l-12 -66l-46 -235l-15 -79q-6 -28 -11 -55t-6 -43h-21z
M268 584q2 9 9.5 15t15.5 6t12.5 -6t2.5 -15q-2 -8 -8.5 -14t-14.5 -6t-13.5 6t-3.5 14zM446 584q2 9 9.5 15t15.5 6t12.5 -6t2.5 -15q-2 -8 -8.5 -14t-14.5 -6t-13.5 6t-3.5 14zM468 794q-35 -32 -69.5 -68.5t-69.5 -68.5h-19l121 137h37z" />
    <glyph glyph-name="Udieresiscaron" unicode="&#x1d9;" horiz-adv-x="613" 
d="M236 674l-82 -418q-6 -31 -9 -73.5t8.5 -80.5t43 -64.5t95.5 -26.5q68 0 113.5 26t75 64t44 80t20.5 75l82 418h21l-82 -418q-11 -56 -33 -105t-56.5 -85t-81.5 -56.5t-108 -20.5q-47 0 -78 13t-49.5 35t-26.5 50t-10 57.5t2 58.5t8 53l82 418h21zM352 778q2 9 9.5 15
t15.5 6t12.5 -6t2.5 -15q-2 -8 -8.5 -14t-14.5 -6t-13.5 6t-3.5 14zM530 778q2 9 9.5 15t15.5 6t12.5 -6t2.5 -15q-2 -8 -8.5 -14t-14.5 -6t-13.5 6t-3.5 14zM548 852l-74 136h25l64 -121l114 121h24l-127 -136h-26z" />
    <glyph glyph-name="udieresiscaron" unicode="&#x1da;" horiz-adv-x="519" 
d="M402 0q1 16 6 41.5t10 51.5q-23 -32 -57 -58q-17 -14 -49.5 -29t-72.5 -15q-76 0 -109 50.5t-14 147.5l56 289h21l-56 -289q-17 -89 12 -133t94 -44q37 0 64.5 13.5t43.5 25.5q33 24 53.5 56.5t29.5 69.5l58 301h21l-12 -66l-46 -235l-15 -79q-6 -28 -11 -55t-6 -43h-21z
M268 584q2 9 9.5 15t15.5 6t12.5 -6t2.5 -15q-2 -8 -8.5 -14t-14.5 -6t-13.5 6t-3.5 14zM446 584q2 9 9.5 15t15.5 6t12.5 -6t2.5 -15q-2 -8 -8.5 -14t-14.5 -6t-13.5 6t-3.5 14zM464 658l-74 136h25l64 -121l114 121h24l-127 -136h-26z" />
    <glyph glyph-name="Udieresisgrave" unicode="&#x1db;" horiz-adv-x="613" 
d="M236 674l-82 -418q-6 -31 -9 -73.5t8.5 -80.5t43 -64.5t95.5 -26.5q68 0 113.5 26t75 64t44 80t20.5 75l82 418h21l-82 -418q-11 -56 -33 -105t-56.5 -85t-81.5 -56.5t-108 -20.5q-47 0 -78 13t-49.5 35t-26.5 50t-10 57.5t2 58.5t8 53l82 418h21zM352 778q2 9 9.5 15
t15.5 6t12.5 -6t2.5 -15q-2 -8 -8.5 -14t-14.5 -6t-13.5 6t-3.5 14zM530 778q2 9 9.5 15t15.5 6t12.5 -6t2.5 -15q-2 -8 -8.5 -14t-14.5 -6t-13.5 6t-3.5 14zM476 988q14 -31 34 -68.5t34 -69.5h-20l-9 16t-22 38t-27.5 45.5t-24.5 38.5h35z" />
    <glyph glyph-name="udieresisgrave" unicode="&#x1dc;" horiz-adv-x="519" 
d="M402 0q1 16 6 41.5t10 51.5q-23 -32 -57 -58q-17 -14 -49.5 -29t-72.5 -15q-76 0 -109 50.5t-14 147.5l56 289h21l-56 -289q-17 -89 12 -133t94 -44q37 0 64.5 13.5t43.5 25.5q33 24 53.5 56.5t29.5 69.5l58 301h21l-12 -66l-46 -235l-15 -79q-6 -28 -11 -55t-6 -43h-21z
M268 584q2 9 9.5 15t15.5 6t12.5 -6t2.5 -15q-2 -8 -8.5 -14t-14.5 -6t-13.5 6t-3.5 14zM446 584q2 9 9.5 15t15.5 6t12.5 -6t2.5 -15q-2 -8 -8.5 -14t-14.5 -6t-13.5 6t-3.5 14zM392 794q14 -31 34 -68.5t34 -69.5h-20l-9 16t-22 38t-27.5 45.5t-24.5 38.5h35z" />
    <glyph glyph-name="uni01DD" unicode="&#x1dd;" horiz-adv-x="474" 
d="M456 226q13 67 6 113.5t-29 75.5t-55.5 42t-73.5 13q-47 0 -77.5 -7.5t-53.5 -15.5l-2 19q19 8 54.5 17t88.5 9q50 0 86.5 -18t58 -50.5t27.5 -77t-4 -97.5q-12 -60 -36.5 -107.5t-58.5 -81.5t-75 -52t-85 -18q-56 0 -86.5 23.5t-43 57.5t-12.5 70.5t5 63.5l5 22z
M115 206q-6 -30 -5.5 -65t12.5 -64t39 -48.5t75 -19.5q43 0 78.5 18.5t62.5 47.5t45.5 63.5t28.5 67.5h-336z" />
    <glyph glyph-name="Adieresismacron" unicode="&#x1de;" horiz-adv-x="574" 
d="M33 0l376 674h11l115 -674h-24l-44 251h-272l-141 -251h-21zM207 272h259l-61 354zM336 778q2 9 9.5 15t15.5 6t12.5 -6t2.5 -15q-2 -8 -8.5 -14t-14.5 -6t-13.5 6t-3.5 14zM514 778q2 9 9.5 15t15.5 6t12.5 -6t2.5 -15q-2 -8 -8.5 -14t-14.5 -6t-13.5 6t-3.5 14z
M560 887l-3 -18h-194l3 18h194z" />
    <glyph glyph-name="adieresismacron" unicode="&#x1df;" horiz-adv-x="446" 
d="M334 0q0 10 3.5 34t8.5 50q-4 -4 -7.5 -8.5t-5.5 -6.5q-41 -46 -82.5 -61t-74.5 -15q-28 0 -51 7t-39 22.5t-22.5 39.5t0.5 58q7 36 26.5 67t55.5 54t89.5 36.5t128.5 13.5h20l6 33q3 15 4.5 40t-7.5 49t-30.5 41t-65.5 17q-29 0 -61 -10t-65 -30l-8 16q35 23 70 33.5
t67 10.5q39 0 63 -12.5t37.5 -32t17.5 -42t3.5 -42t-3 -34t-3.5 -16.5l-20 -106q-2 -7 -7 -33t-11 -58.5t-10.5 -64.5t-4.5 -50h-22zM320 79q8 9 14 17t11.5 20.5t10 32t10.5 49.5l14 72q0 -1 -1 -1t-1 1q-34 2 -80.5 -2t-90 -19t-78 -45.5t-44.5 -83.5q-6 -28 -0.5 -48.5
t19 -33.5t33.5 -19t43 -6q12 0 28 2.5t34.5 9.5t38 20t39.5 34zM218 595q2 9 9.5 15t15.5 6t12.5 -6t2.5 -15q-2 -8 -8.5 -14t-14.5 -6t-13.5 6t-3.5 14zM396 595q2 9 9.5 15t15.5 6t12.5 -6t2.5 -15q-2 -8 -8.5 -14t-14.5 -6t-13.5 6t-3.5 14zM443 704l-3 -18h-194l3 18
h194z" />
    <glyph glyph-name="Adotmacron" unicode="&#x1e0;" horiz-adv-x="574" 
d="M33 0l376 674h11l115 -674h-24l-44 251h-272l-141 -251h-21zM207 272h259l-61 354zM413 772q2 9 8 15t15 6q8 0 13 -6t3 -15q-2 -8 -9 -13t-15 -5q-18 0 -15 18zM553 889l-3 -18h-194l3 18h194z" />
    <glyph glyph-name="adotmacron" unicode="&#x1e1;" horiz-adv-x="446" 
d="M334 0q0 10 3.5 34t8.5 50q-4 -4 -7.5 -8.5t-5.5 -6.5q-41 -46 -82.5 -61t-74.5 -15q-28 0 -51 7t-39 22.5t-22.5 39.5t0.5 58q7 36 26.5 67t55.5 54t89.5 36.5t128.5 13.5h20l6 33q3 15 4.5 40t-7.5 49t-30.5 41t-65.5 17q-29 0 -61 -10t-65 -30l-8 16q35 23 70 33.5
t67 10.5q39 0 63 -12.5t37.5 -32t17.5 -42t3.5 -42t-3 -34t-3.5 -16.5l-20 -106q-2 -7 -7 -33t-11 -58.5t-10.5 -64.5t-4.5 -50h-22zM320 79q8 9 14 17t11.5 20.5t10 32t10.5 49.5l14 72q0 -1 -1 -1t-1 1q-34 2 -80.5 -2t-90 -19t-78 -45.5t-44.5 -83.5q-6 -28 -0.5 -48.5
t19 -33.5t33.5 -19t43 -6q12 0 28 2.5t34.5 9.5t38 20t39.5 34zM306 589q2 9 8 15t15 6q8 0 13 -6t3 -15q-2 -8 -9 -13t-15 -5q-18 0 -15 18zM443 706l-3 -18h-194l3 18h194z" />
    <glyph glyph-name="AEmacron" unicode="&#x1e2;" horiz-adv-x="724" 
d="M8 0l221 333l226 341h350l-1 -1l-3 -19h-295l-27 -290h254l-4 -20h-249l-24 -324h243l-3 -20h-268l21 279h-233q-60 -93 -95 -146t-53.5 -81t-25 -37.5t-9.5 -14.5h-25zM448 298l36 361h-17l-235 -361h216zM590 760l-3 -18h-194l3 18h194z" />
    <glyph glyph-name="aemacron" unicode="&#x1e3;" horiz-adv-x="739" 
d="M416 263q-14 -62 -10.5 -109.5t22 -80t50 -49t73.5 -16.5q50 0 80 8.5t46 16.5l2 -18q-23 -11 -57.5 -18t-79.5 -7q-29 0 -55 9t-46.5 27t-34 44.5t-17.5 60.5l-2 7q-18 -38 -42 -65.5t-52 -46t-58 -27.5t-60 -9q-34 0 -56.5 10.5t-35.5 27.5t-16.5 39.5t1.5 45.5
q17 82 95.5 127t230.5 41h5l7 36q3 14 3 39.5t-10.5 51t-35.5 44t-72 18.5q-32 0 -62 -10t-54 -24q-1 2 -1 6q-1 3 -1 7t-1 9q35 16 70 23.5t58 7.5q64 0 95.5 -37.5t32.5 -99.5l1 1q35 70 89.5 103.5t110.5 33.5q54 0 83 -24.5t41.5 -58t12 -68.5t-5.5 -57l-4 -20zM396 263
h-5q-40 1 -88.5 -2.5t-93 -18t-77.5 -44t-43 -79.5q-11 -57 16 -83.5t75 -26.5q31 0 59.5 9.5t52 26t41.5 37t30 43.5q5 9 9.5 27.5t6.5 29.5zM740 281q7 26 5.5 58.5t-14.5 61.5t-39 49t-68 20t-76.5 -18.5t-61 -46.5t-43.5 -61t-24 -63h318h3zM579 577l-3 -18h-194l3 18
h194z" />
    <glyph glyph-name="uni01E4" unicode="&#x1e4;" horiz-adv-x="610" 
d="M405 180l4 19h158l21 105h-158l3 20h180l-24 -125h43l-4 -19h-43l-30 -155q-31 -11 -79.5 -21.5t-110.5 -10.5q-64 0 -118 18.5t-95 67.5q-34 41 -45.5 105.5t4.5 149.5q14 72 49 135.5t87.5 110.5t121.5 74t151 27q48 0 82.5 -8t54.5 -18l-13 -19q-24 11 -54 17t-76 6
q-72 0 -135 -22.5t-112.5 -64t-83 -101t-48.5 -134.5q-15 -77 -5 -137t41.5 -101.5t84 -63t121.5 -21.5q57 0 96.5 8t62.5 19l27 139h-158z" />
    <glyph glyph-name="uni01E5" unicode="&#x1e5;" horiz-adv-x="532" 
d="M272 -81l3 18h134q10 22 16 43.5t10 44.5l13 65l2 13q-34 -48 -88 -75.5t-115 -27.5q-43 0 -75.5 18.5t-52.5 50t-26.5 74.5t2.5 93q12 63 39.5 111t63.5 80.5t76 48.5t78 16q33 0 58.5 -8.5t44.5 -23t31.5 -33t20.5 -37.5l5 13l16 77h21q-8 -27 -13.5 -53.5t-13.5 -67.5
l-57 -296q-6 -31 -12.5 -62.5t-20.5 -63.5h69l-3 -18h-74q-11 -23 -25 -40t-25 -28q-64 -69 -183 -69q-38 0 -73.5 8.5t-59.5 26.5l13 20q23 -14 55.5 -24t75.5 -10q42 0 79.5 12.5t66.5 38.5q11 10 26 27.5t27 37.5h-129zM489 300q4 24 3 51q-3 23 -13.5 45t-28 38.5
t-42 26.5t-57.5 10q-42 0 -80.5 -17.5t-69.5 -48t-53 -73t-32 -91.5q-9 -45 -4.5 -85t22.5 -70.5t50 -48t78 -17.5q53 0 104 30.5t83 89.5q8 16 12.5 30t6.5 25z" />
    <glyph glyph-name="Gcaron" unicode="&#x1e6;" horiz-adv-x="610" 
d="M571 301h-166l4 21h188l-58 -297q-94 -36 -183 -36q-72 0 -126 24t-88 69t-44.5 109t5.5 145q15 77 52 141.5t90.5 110.5t120 71.5t139.5 25.5q35 0 72 -6.5t64 -23.5l-10 -19q-26 15 -61.5 21.5t-68.5 6.5q-55 0 -115 -19t-112.5 -59t-92.5 -102t-57 -148
q-15 -75 -5.5 -135.5t39.5 -102.5t81 -64.5t120 -22.5q44 0 83.5 7t77.5 21zM513 732l-74 136h25l64 -121l114 121h24l-127 -136h-26z" />
    <glyph glyph-name="gcaron" unicode="&#x1e7;" horiz-adv-x="532" 
d="M67 -148q23 -21 57.5 -30t65.5 -9q89 0 148 53t81 166l14 71q-34 -48 -83 -77t-104 -29q-45 0 -79 19t-54.5 51.5t-27 76.5t3.5 94q10 54 35 99.5t60 79.5t77.5 53t88.5 19q55 0 89.5 -29t49.5 -69q4 24 9.5 47.5t10.5 37.5h19q-4 -18 -10.5 -48t-12 -58.5t-9.5 -49
t-4 -21.5l-52 -267q-23 -117 -89 -178.5t-165 -61.5q-33 0 -67.5 9t-62.5 31zM459 238l15 77q5 27 -1.5 54t-23 49t-43 36t-61.5 14q-42 0 -80 -17.5t-69.5 -48t-54 -72.5t-31.5 -92q-11 -57 -2.5 -98t29 -68t50.5 -40t63 -13q35 0 67.5 13.5t59.5 36.5t46 53.5t26 65.5z
M431 542l-74 136h25l64 -121l114 121h24l-127 -136h-26z" />
    <glyph glyph-name="Kcaron" unicode="&#x1e8;" horiz-adv-x="489" 
d="M215 674h21l-68 -349l383 349h29l-315 -285l207 -389h-23l-201 373l-87 -80l1 3l-57 -296h-21zM507 725l-74 136h25l64 -121l114 121h24l-127 -136h-26z" />
    <glyph glyph-name="kcaron" unicode="&#x1e9;" horiz-adv-x="416" 
d="M201 264l-60 -53l-41 -211h-21l137 708h21l-91 -467l276 235h28l-230 -198l168 -278h-27zM475 760l-74 136h25l64 -121l114 121h24l-127 -136h-26z" />
    <glyph glyph-name="Oogonek" unicode="&#x1ea;" horiz-adv-x="654" 
d="M646 336q14 74 7.5 134.5t-33 103.5t-69.5 66t-102 23q-57 0 -110 -24.5t-96 -67.5t-74 -102.5t-45 -130.5q-14 -72 -7 -132.5t32 -103.5t67.5 -67t98.5 -24q60 0 113.5 24t97.5 67t75 102.5t45 131.5zM454 685q63 0 110 -25.5t74.5 -71t35 -110t-7.5 -142.5
q-15 -74 -48 -137.5t-83 -111.5q-47 -48 -105 -73t-120 -25q-57 0 -102 25t-74 71q-31 48 -38.5 111.5t7.5 141.5q15 75 48.5 139t80.5 110t104 72t118 26zM374 -3q-17 -11 -35 -25t-33 -29t-25.5 -30.5t-13.5 -29.5q-7 -31 7.5 -44.5t36.5 -13.5q10 0 22 1t24 4v-4.5
t2 -8.5q-32 -12 -63 -12q-32 0 -48.5 17.5t-10.5 49.5q4 18 19 37.5t34 37t39.5 31t34.5 19.5h10z" />
    <glyph glyph-name="oogonek" unicode="&#x1eb;" horiz-adv-x="520" 
d="M491 237q9 51 4 93t-24 72.5t-50.5 47.5t-73.5 17t-80.5 -17.5t-70 -48t-54.5 -72.5t-32 -92q-11 -55 -4 -97.5t27 -71.5t50.5 -43.5t66.5 -14.5q45 0 85 17t71.5 47.5t53 72t31.5 90.5zM351 488q45 0 80 -18.5t56.5 -51.5t28 -79t-3.5 -102q-11 -54 -36.5 -99.5
t-60.5 -78.5t-78.5 -52t-90.5 -19t-81 19.5t-54.5 53.5t-26 79.5t4.5 96.5q10 54 35.5 99.5t60.5 79.5t77.5 53t88.5 19zM308 -3q-17 -11 -35 -25t-33 -29t-25.5 -30.5t-13.5 -29.5q-7 -31 7.5 -44.5t36.5 -13.5q10 0 22 1t24 4v-4.5t2 -8.5q-32 -12 -63 -12
q-32 0 -48.5 17.5t-10.5 49.5q4 18 19 37.5t34 37t39.5 31t34.5 19.5h10z" />
    <glyph glyph-name="Oogonekmacron" unicode="&#x1ec;" horiz-adv-x="654" 
d="M646 336q14 74 7.5 134.5t-33 103.5t-69.5 66t-102 23q-57 0 -110 -24.5t-96 -67.5t-74 -102.5t-45 -130.5q-14 -72 -7 -132.5t32 -103.5t67.5 -67t98.5 -24q60 0 113.5 24t97.5 67t75 102.5t45 131.5zM454 685q63 0 110 -25.5t74.5 -71t35 -110t-7.5 -142.5
q-15 -74 -48 -137.5t-83 -111.5q-47 -48 -105 -73t-120 -25q-57 0 -102 25t-74 71q-31 48 -38.5 111.5t7.5 141.5q15 75 48.5 139t80.5 110t104 72t118 26zM370 -4q-17 -11 -35 -25t-33 -29t-25.5 -30.5t-13.5 -29.5q-7 -31 7.5 -44.5t36.5 -13.5q10 0 22 1t24 4v-4.5
t2 -8.5q-32 -12 -63 -12q-32 0 -48.5 17.5t-10.5 49.5q4 18 19 37.5t34 37t39.5 31t34.5 19.5h10zM575 771l-3 -18h-194l3 18h194z" />
    <glyph glyph-name="oogonekmacron" unicode="&#x1ed;" horiz-adv-x="520" 
d="M491 237q9 51 4 93t-24 72.5t-50.5 47.5t-73.5 17t-80.5 -17.5t-70 -48t-54.5 -72.5t-32 -92q-11 -55 -4 -97.5t27 -71.5t50.5 -43.5t66.5 -14.5q45 0 85 17t71.5 47.5t53 72t31.5 90.5zM351 488q45 0 80 -18.5t56.5 -51.5t28 -79t-3.5 -102q-11 -54 -36.5 -99.5
t-60.5 -78.5t-78.5 -52t-90.5 -19t-81 19.5t-54.5 53.5t-26 79.5t4.5 96.5q10 54 35.5 99.5t60.5 79.5t77.5 53t88.5 19zM306 -4q-17 -11 -35 -25t-33 -29t-25.5 -30.5t-13.5 -29.5q-7 -31 7.5 -44.5t36.5 -13.5q10 0 22 1t24 4v-4.5t2 -8.5q-32 -12 -63 -12
q-32 0 -48.5 17.5t-10.5 49.5q4 18 19 37.5t34 37t39.5 31t34.5 19.5h10zM470 577l-3 -18h-194l3 18h194z" />
    <glyph glyph-name="jcaron" unicode="&#x1f0;" horiz-adv-x="211" 
d="M-70 -195q30 5 57 17.5t47 32.5q13 12 24 27t20 38t17.5 56t17.5 82l82 422h20l-89 -455q-13 -67 -30 -111.5t-52 -76.5q-30 -25 -62.5 -38t-51.5 -15v21zM288 531l-74 136h25l64 -121l114 121h24l-127 -136h-26z" />
    <glyph glyph-name="DZ" unicode="&#x1f1;" horiz-adv-x="1157" 
d="M213 664q25 5 50 8t48 4.5t44 2t37 0.5q153 0 220 -86t35 -251q-17 -85 -55.5 -149t-92.5 -108q-65 -53 -139 -71t-160 -18q-23 0 -54 1t-62 3zM386 658q-42 0 -79.5 -2.5t-76.5 -9.5l-121 -625q11 -1 25.5 -2t28 -1.5t24.5 -0.5h17q81 0 151 16.5t133 66.5
q52 41 88 105.5t50 136.5q31 158 -33 237t-207 79zM699 21h420l-4 -21h-447l4 21l537 632h-381l5 21h407l-4 -19z" />
    <glyph glyph-name="Dz" unicode="&#x1f2;" horiz-adv-x="1027" 
d="M213 664q25 5 50 8t48 4.5t44 2t37 0.5q153 0 220 -86t35 -251q-17 -85 -55.5 -149t-92.5 -108q-65 -53 -139 -71t-160 -18q-23 0 -54 1t-62 3zM386 658q-42 0 -79.5 -2.5t-76.5 -9.5l-121 -625q11 -1 25.5 -2t28 -1.5t24.5 -0.5h17q81 0 151 16.5t133 66.5
q52 41 88 105.5t50 136.5q31 158 -33 237t-207 79zM760 476h330l-4 -21l-404 -434h320l-4 -21h-352l3 16l410 439h-303z" />
    <glyph glyph-name="dz" unicode="&#x1f3;" horiz-adv-x="927" 
d="M417 0q1 17 5.5 43t10.5 55q-33 -48 -84 -78.5t-107 -30.5q-37 0 -70 16t-55.5 47t-31 77.5t2.5 106.5q11 54 36 100t59 79.5t75.5 53t85.5 19.5q56 0 93 -28t52 -70l62 319h20l-103 -531q0 -1 -4.5 -23t-9.5 -51t-9.5 -58t-5.5 -46h-22zM246 10q38 0 72 15.5t61.5 40
t45.5 56.5t25 65l25 127q5 27 -2 54t-24.5 49t-45 36t-63.5 14q-37 0 -74 -15.5t-69 -45.5q-34 -32 -56 -76t-32 -94q-9 -49 -3.5 -90.5t23.5 -71.5t48 -47t69 -17zM660 476h330l-4 -21l-404 -434h320l-4 -21h-352l3 16l410 439h-303z" />
    <glyph glyph-name="Gacute" unicode="&#x1f4;" horiz-adv-x="610" 
d="M571 301h-166l4 21h188l-58 -297q-94 -36 -183 -36q-72 0 -126 24t-88 69t-44.5 109t5.5 145q15 77 52 141.5t90.5 110.5t120 71.5t139.5 25.5q35 0 72 -6.5t64 -23.5l-10 -19q-26 15 -61.5 21.5t-68.5 6.5q-55 0 -115 -19t-112.5 -59t-92.5 -102t-57 -148
q-15 -75 -5.5 -135.5t39.5 -102.5t81 -64.5t120 -22.5q44 0 83.5 7t77.5 21zM517 868q-35 -32 -69.5 -68.5t-69.5 -68.5h-19l121 137h37z" />
    <glyph glyph-name="gacute" unicode="&#x1f5;" horiz-adv-x="532" 
d="M67 -148q23 -21 57.5 -30t65.5 -9q89 0 148 53t81 166l14 71q-34 -48 -83 -77t-104 -29q-45 0 -79 19t-54.5 51.5t-27 76.5t3.5 94q10 54 35 99.5t60 79.5t77.5 53t88.5 19q55 0 89.5 -29t49.5 -69q4 24 9.5 47.5t10.5 37.5h19q-4 -18 -10.5 -48t-12 -58.5t-9.5 -49
t-4 -21.5l-52 -267q-23 -117 -89 -178.5t-165 -61.5q-33 0 -67.5 9t-62.5 31zM459 238l15 77q5 27 -1.5 54t-23 49t-43 36t-61.5 14q-42 0 -80 -17.5t-69.5 -48t-54 -72.5t-31.5 -92q-11 -57 -2.5 -98t29 -68t50.5 -40t63 -13q35 0 67.5 13.5t59.5 36.5t46 53.5t26 65.5z
M435 678q-35 -32 -69.5 -68.5t-69.5 -68.5h-19l121 137h37z" />
    <glyph glyph-name="Ngrave" unicode="&#x1f8;" horiz-adv-x="624" 
d="M215 674h13l284 -629l123 629h21l-131 -674h-16l-283 624l-121 -624h-21zM457 861q14 -31 34 -68.5t34 -69.5h-20l-9 16t-22 38t-27.5 45.5t-24.5 38.5h35z" />
    <glyph glyph-name="ngrave" unicode="&#x1f9;" horiz-adv-x="525" 
d="M194 476q-1 -15 -5.5 -39.5t-9.5 -50.5q35 50 82 76.5t106 26.5q51 0 83.5 -27.5t42.5 -75.5q3 -24 0 -48.5t-7 -46.5l-56 -291h-20l56 291q7 35 7.5 55.5t-4.5 38.5q-2 9 -7.5 23.5t-18 27.5t-33 22.5t-51.5 9.5q-44 0 -78.5 -17.5t-59.5 -43.5t-40 -55.5t-19 -52.5
l-58 -299h-20l59 304q2 10 6.5 34t9 51t8.5 51.5t4 35.5h23zM372 678q14 -31 34 -68.5t34 -69.5h-20l-9 16t-22 38t-27.5 45.5t-24.5 38.5h35z" />
    <glyph glyph-name="Aringacute" unicode="&#x1fa;" horiz-adv-x="574" 
d="M33 0l376 674h11l115 -674h-24l-44 251h-272l-141 -251h-21zM207 272h259l-61 354zM531 816q-3 -18 -12.5 -33t-23 -26.5t-30 -18t-33.5 -6.5t-31 6.5t-23 18t-12.5 26.5t-0.5 33q7 35 36 59t64 24t54 -24t12 -59zM386 816q-5 -28 9.5 -45.5t40.5 -17.5q27 0 48.5 17.5
t26.5 45.5q5 26 -9 44.5t-41 18.5q-26 0 -48 -18.5t-27 -44.5zM556 1093q-35 -32 -69.5 -68.5t-69.5 -68.5h-19l121 137h37z" />
    <glyph glyph-name="aringacute" unicode="&#x1fb;" horiz-adv-x="446" 
d="M334 0q0 10 3.5 34t8.5 50q-4 -4 -7.5 -8.5t-5.5 -6.5q-41 -46 -82.5 -61t-74.5 -15q-28 0 -51 7t-39 22.5t-22.5 39.5t0.5 58q7 36 26.5 67t55.5 54t89.5 36.5t128.5 13.5h20l6 33q3 15 4.5 40t-7.5 49t-30.5 41t-65.5 17q-29 0 -61 -10t-65 -30l-8 16q35 23 70 33.5
t67 10.5q39 0 63 -12.5t37.5 -32t17.5 -42t3.5 -42t-3 -34t-3.5 -16.5l-20 -106q-2 -7 -7 -33t-11 -58.5t-10.5 -64.5t-4.5 -50h-22zM320 79q8 9 14 17t11.5 20.5t10 32t10.5 49.5l14 72q0 -1 -1 -1t-1 1q-34 2 -80.5 -2t-90 -19t-78 -45.5t-44.5 -83.5q-6 -28 -0.5 -48.5
t19 -33.5t33.5 -19t43 -6q12 0 28 2.5t34.5 9.5t38 20t39.5 34zM414 633q-3 -18 -12.5 -33t-23 -26.5t-30 -18t-33.5 -6.5t-31 6.5t-23 18t-12.5 26.5t-0.5 33q7 35 36 59t64 24t54 -24t12 -59zM269 633q-5 -28 9.5 -45.5t40.5 -17.5q27 0 48.5 17.5t26.5 45.5q5 26 -9 44.5
t-41 18.5q-26 0 -48 -18.5t-27 -44.5zM439 910q-35 -32 -69.5 -68.5t-69.5 -68.5h-19l121 137h37z" />
    <glyph glyph-name="AEacute" unicode="&#x1fc;" horiz-adv-x="724" 
d="M8 0l221 333l226 341h350l-1 -1l-3 -19h-295l-27 -290h254l-4 -20h-249l-24 -324h243l-3 -20h-268l21 279h-233q-60 -93 -95 -146t-53.5 -81t-25 -37.5t-9.5 -14.5h-25zM448 298l36 361h-17l-235 -361h216zM565 861q-35 -32 -69.5 -68.5t-69.5 -68.5h-19l121 137h37z" />
    <glyph glyph-name="aeacute" unicode="&#x1fd;" horiz-adv-x="739" 
d="M416 263q-14 -62 -10.5 -109.5t22 -80t50 -49t73.5 -16.5q50 0 80 8.5t46 16.5l2 -18q-23 -11 -57.5 -18t-79.5 -7q-29 0 -55 9t-46.5 27t-34 44.5t-17.5 60.5l-2 7q-18 -38 -42 -65.5t-52 -46t-58 -27.5t-60 -9q-34 0 -56.5 10.5t-35.5 27.5t-16.5 39.5t1.5 45.5
q17 82 95.5 127t230.5 41h5l7 36q3 14 3 39.5t-10.5 51t-35.5 44t-72 18.5q-32 0 -62 -10t-54 -24q-1 2 -1 6q-1 3 -1 7t-1 9q35 16 70 23.5t58 7.5q64 0 95.5 -37.5t32.5 -99.5l1 1q35 70 89.5 103.5t110.5 33.5q54 0 83 -24.5t41.5 -58t12 -68.5t-5.5 -57l-4 -20zM396 263
h-5q-40 1 -88.5 -2.5t-93 -18t-77.5 -44t-43 -79.5q-11 -57 16 -83.5t75 -26.5q31 0 59.5 9.5t52 26t41.5 37t30 43.5q5 9 9.5 27.5t6.5 29.5zM740 281q7 26 5.5 58.5t-14.5 61.5t-39 49t-68 20t-76.5 -18.5t-61 -46.5t-43.5 -61t-24 -63h318h3zM555 678
q-35 -32 -69.5 -68.5t-69.5 -68.5h-19l121 137h37z" />
    <glyph glyph-name="Oslashacute" unicode="&#x1fe;" horiz-adv-x="654" 
d="M146 80q-29 51 -39 114t4 137q16 83 51.5 149t84 111.5t106 69.5t118.5 24q46 0 86.5 -16t78.5 -55q2 3 4.5 5t9.5 9.5t21 23t39 44.5l12 -10l-78 -86q29 -51 41 -116.5t-2 -140.5q-17 -89 -54.5 -155.5t-86 -110.5t-105 -66t-112.5 -22q-47 0 -90.5 20t-80.5 57l-79 -83
l-10 9zM331 9q64 0 119 28t98 74.5t72 105.5t41 121q12 60 5 124t-36 121l-462 -499q29 -34 70.5 -54.5t92.5 -20.5zM130 332q-13 -65 -4.5 -127t36.5 -110l459 503q-31 35 -70 52.5t-90 17.5q-66 0 -121.5 -29.5t-98 -77t-71 -108t-40.5 -121.5zM554 889
q-35 -32 -69.5 -68.5t-69.5 -68.5h-19l121 137h37z" />
    <glyph glyph-name="oslashacute" unicode="&#x1ff;" horiz-adv-x="520" 
d="M493 435q26 -35 35.5 -83.5t-1.5 -107.5q-13 -68 -42.5 -116t-67 -79t-79 -45.5t-79.5 -14.5q-33 0 -64 12t-58 34l-51 -57l-8 8l52 59q-25 35 -34.5 83t1.5 108q12 62 39.5 110t63.5 80.5t78 49t85 16.5q34 0 64 -11.5t56 -32.5h5l48 54l10 -8zM358 471q-51 0 -92 -21
t-71 -54t-49.5 -74.5t-27.5 -83.5q-19 -95 26 -176l326 365q-20 20 -48.5 32t-63.5 12zM506 242q7 38 2 83.5t-28 87.5l-2 4l-324 -365q22 -21 50.5 -32t60.5 -11q42 0 81 17.5t71.5 48t55.5 73.5t33 94zM449 693q-35 -32 -69.5 -68.5t-69.5 -68.5h-19l121 137h37z" />
    <glyph glyph-name="Adblgrave" unicode="&#x200;" horiz-adv-x="574" 
d="M33 0l376 674h11l115 -674h-24l-44 251h-272l-141 -251h-21zM207 272h259l-61 354zM509 861q15 -31 33 -60.5t30 -56.5h-18q-26 39 -40.5 60.5t-22 32.5t-10.5 15.5t-6 8.5h34zM357 861q2 -6 10.5 -22.5t18 -35t18.5 -35.5t12 -24h-19q0 1 -8 14.5t-19.5 31.5t-24 37.5
t-21.5 33.5h33z" />
    <glyph glyph-name="adblgrave" unicode="&#x201;" horiz-adv-x="446" 
d="M334 0q0 10 3.5 34t8.5 50q-4 -4 -7.5 -8.5t-5.5 -6.5q-41 -46 -82.5 -61t-74.5 -15q-28 0 -51 7t-39 22.5t-22.5 39.5t0.5 58q7 36 26.5 67t55.5 54t89.5 36.5t128.5 13.5h20l6 33q3 15 4.5 40t-7.5 49t-30.5 41t-65.5 17q-29 0 -61 -10t-65 -30l-8 16q35 23 70 33.5
t67 10.5q39 0 63 -12.5t37.5 -32t17.5 -42t3.5 -42t-3 -34t-3.5 -16.5l-20 -106q-2 -7 -7 -33t-11 -58.5t-10.5 -64.5t-4.5 -50h-22zM320 79q8 9 14 17t11.5 20.5t10 32t10.5 49.5l14 72q0 -1 -1 -1t-1 1q-34 2 -80.5 -2t-90 -19t-78 -45.5t-44.5 -83.5q-6 -28 -0.5 -48.5
t19 -33.5t33.5 -19t43 -6q12 0 28 2.5t34.5 9.5t38 20t39.5 34zM392 678q15 -31 33 -60.5t30 -56.5h-18q-26 39 -40.5 60.5t-22 32.5t-10.5 15.5t-6 8.5h34zM240 678q2 -6 10.5 -22.5t18 -35t18.5 -35.5t12 -24h-19q0 1 -8 14.5t-19.5 31.5t-24 37.5t-21.5 33.5h33z" />
    <glyph glyph-name="Ainvertedbreve" unicode="&#x202;" horiz-adv-x="574" 
d="M33 0l376 674h11l115 -674h-24l-44 251h-272l-141 -251h-21zM207 272h259l-61 354zM325 739q5 18 15 35.5t25 31.5t36 22.5t48 8.5q47 0 70 -26.5t18 -71.5h-18q4 33 -14 55t-61 22q-36 0 -63.5 -21t-38.5 -56h-17z" />
    <glyph glyph-name="ainvertedbreve" unicode="&#x203;" horiz-adv-x="446" 
d="M334 0q0 10 3.5 34t8.5 50q-4 -4 -7.5 -8.5t-5.5 -6.5q-41 -46 -82.5 -61t-74.5 -15q-28 0 -51 7t-39 22.5t-22.5 39.5t0.5 58q7 36 26.5 67t55.5 54t89.5 36.5t128.5 13.5h20l6 33q3 15 4.5 40t-7.5 49t-30.5 41t-65.5 17q-29 0 -61 -10t-65 -30l-8 16q35 23 70 33.5
t67 10.5q39 0 63 -12.5t37.5 -32t17.5 -42t3.5 -42t-3 -34t-3.5 -16.5l-20 -106q-2 -7 -7 -33t-11 -58.5t-10.5 -64.5t-4.5 -50h-22zM320 79q8 9 14 17t11.5 20.5t10 32t10.5 49.5l14 72q0 -1 -1 -1t-1 1q-34 2 -80.5 -2t-90 -19t-78 -45.5t-44.5 -83.5q-6 -28 -0.5 -48.5
t19 -33.5t33.5 -19t43 -6q12 0 28 2.5t34.5 9.5t38 20t39.5 34zM208 556q5 18 15 35.5t25 31.5t36 22.5t48 8.5q47 0 70 -26.5t18 -71.5h-18q4 33 -14 55t-61 22q-36 0 -63.5 -21t-38.5 -56h-17z" />
    <glyph glyph-name="Edblgrave" unicode="&#x204;" horiz-adv-x="456" 
d="M411 21l-4 -21h-323l131 674h307l-5 -21h-286l-55 -286h270l-4 -21h-270l-63 -325h302zM470 861q15 -31 33 -60.5t30 -56.5h-18q-26 39 -40.5 60.5t-22 32.5t-10.5 15.5t-6 8.5h34zM318 861q2 -6 10.5 -22.5t18 -35t18.5 -35.5t12 -24h-19q0 1 -8 14.5t-19.5 31.5
t-24 37.5t-21.5 33.5h33z" />
    <glyph glyph-name="edblgrave" unicode="&#x205;" horiz-adv-x="474" 
d="M397 19q-33 -16 -68.5 -23t-74.5 -7q-49 1 -85 19t-57.5 50t-27.5 77.5t5 102.5q10 54 34.5 100t58.5 79t75.5 52t86.5 20q42 0 67.5 -15t40.5 -35t21 -42q7 -21 8 -60t-7 -81h-361l-3 -18q-22 -112 22 -170t141 -58q32 0 64 8t58 22zM339 468q-36 0 -70 -14t-63 -39
t-51 -60t-35 -77l337 -2q2 28 2.5 46.5t-0.5 27.5q-4 51 -35 84.5t-85 33.5zM421 678q15 -31 33 -60.5t30 -56.5h-18q-26 39 -40.5 60.5t-22 32.5t-10.5 15.5t-6 8.5h34zM269 678q2 -6 10.5 -22.5t18 -35t18.5 -35.5t12 -24h-19q0 1 -8 14.5t-19.5 31.5t-24 37.5t-21.5 33.5
h33z" />
    <glyph glyph-name="Einvertedbreve" unicode="&#x206;" horiz-adv-x="456" 
d="M411 21l-4 -21h-323l131 674h307l-5 -21h-286l-55 -286h270l-4 -21h-270l-63 -325h302zM286 739q5 18 15 35.5t25 31.5t36 22.5t48 8.5q47 0 70 -26.5t18 -71.5h-18q4 33 -14 55t-61 22q-36 0 -63.5 -21t-38.5 -56h-17z" />
    <glyph glyph-name="einvertedbreve" unicode="&#x207;" horiz-adv-x="474" 
d="M397 19q-33 -16 -68.5 -23t-74.5 -7q-49 1 -85 19t-57.5 50t-27.5 77.5t5 102.5q10 54 34.5 100t58.5 79t75.5 52t86.5 20q42 0 67.5 -15t40.5 -35t21 -42q7 -21 8 -60t-7 -81h-361l-3 -18q-22 -112 22 -170t141 -58q32 0 64 8t58 22zM339 468q-36 0 -70 -14t-63 -39
t-51 -60t-35 -77l337 -2q2 28 2.5 46.5t-0.5 27.5q-4 51 -35 84.5t-85 33.5zM237 556q5 18 15 35.5t25 31.5t36 22.5t48 8.5q47 0 70 -26.5t18 -71.5h-18q4 33 -14 55t-61 22q-36 0 -63.5 -21t-38.5 -56h-17z" />
    <glyph glyph-name="Idblgrave" unicode="&#x208;" horiz-adv-x="208" 
d="M218 674h21l-131 -674h-21zM322 861q15 -31 33 -60.5t30 -56.5h-18q-26 39 -40.5 60.5t-22 32.5t-10.5 15.5t-6 8.5h34zM170 861q2 -6 10.5 -22.5t18 -35t18.5 -35.5t12 -24h-19q0 1 -8 14.5t-19.5 31.5t-24 37.5t-21.5 33.5h33z" />
    <glyph glyph-name="idblgrave" unicode="&#x209;" horiz-adv-x="206" 
d="M91 0l93 480h22l-93 -480h-22zM284 667q15 -31 33 -60.5t30 -56.5h-18q-26 39 -40.5 60.5t-22 32.5t-10.5 15.5t-6 8.5h34zM132 667q2 -6 10.5 -22.5t18 -35t18.5 -35.5t12 -24h-19q0 1 -8 14.5t-19.5 31.5t-24 37.5t-21.5 33.5h33z" />
    <glyph glyph-name="Iinvertedbreve" unicode="&#x20a;" horiz-adv-x="208" 
d="M218 674h21l-131 -674h-21zM138 739q5 18 15 35.5t25 31.5t36 22.5t48 8.5q47 0 70 -26.5t18 -71.5h-18q4 33 -14 55t-61 22q-36 0 -63.5 -21t-38.5 -56h-17z" />
    <glyph glyph-name="iinvertedbreve" unicode="&#x20b;" horiz-adv-x="206" 
d="M91 0l93 480h22l-93 -480h-22zM99 545q5 18 15 35.5t25 31.5t36 22.5t48 8.5q47 0 70 -26.5t18 -71.5h-18q4 33 -14 55t-61 22q-36 0 -63.5 -21t-38.5 -56h-17z" />
    <glyph glyph-name="Odblgrave" unicode="&#x20c;" horiz-adv-x="654" 
d="M646 336q14 74 7.5 134.5t-33 103.5t-69.5 66t-102 23q-57 0 -110 -24.5t-96 -67.5t-74 -102.5t-45 -130.5q-14 -72 -7 -132.5t32 -103.5t67.5 -67t98.5 -24q60 0 113.5 24t97.5 67t75 102.5t45 131.5zM454 685q63 0 110 -25.5t74.5 -71t35 -110t-7.5 -142.5
q-15 -74 -48 -137.5t-83 -111.5q-47 -48 -105 -73t-120 -25q-57 0 -102 25t-74 71q-31 48 -38.5 111.5t7.5 141.5q15 75 48.5 139t80.5 110t104 72t118 26zM529 872q15 -31 33 -60.5t30 -56.5h-18q-26 39 -40.5 60.5t-22 32.5t-10.5 15.5t-6 8.5h34zM377 872
q2 -6 10.5 -22.5t18 -35t18.5 -35.5t12 -24h-19q0 1 -8 14.5t-19.5 31.5t-24 37.5t-21.5 33.5h33z" />
    <glyph glyph-name="odblgrave" unicode="&#x20d;" horiz-adv-x="520" 
d="M491 237q9 51 4 93t-24 72.5t-50.5 47.5t-73.5 17t-80.5 -17.5t-70 -48t-54.5 -72.5t-32 -92q-11 -55 -4 -97.5t27 -71.5t50.5 -43.5t66.5 -14.5q45 0 85 17t71.5 47.5t53 72t31.5 90.5zM351 488q45 0 80 -18.5t56.5 -51.5t28 -79t-3.5 -102q-11 -54 -36.5 -99.5
t-60.5 -78.5t-78.5 -52t-90.5 -19t-81 19.5t-54.5 53.5t-26 79.5t4.5 96.5q10 54 35.5 99.5t60.5 79.5t77.5 53t88.5 19zM444 678q15 -31 33 -60.5t30 -56.5h-18q-26 39 -40.5 60.5t-22 32.5t-10.5 15.5t-6 8.5h34zM292 678q2 -6 10.5 -22.5t18 -35t18.5 -35.5t12 -24h-19
q0 1 -8 14.5t-19.5 31.5t-24 37.5t-21.5 33.5h33z" />
    <glyph glyph-name="Oinvertedbreve" unicode="&#x20e;" horiz-adv-x="654" 
d="M646 336q14 74 7.5 134.5t-33 103.5t-69.5 66t-102 23q-57 0 -110 -24.5t-96 -67.5t-74 -102.5t-45 -130.5q-14 -72 -7 -132.5t32 -103.5t67.5 -67t98.5 -24q60 0 113.5 24t97.5 67t75 102.5t45 131.5zM454 685q63 0 110 -25.5t74.5 -71t35 -110t-7.5 -142.5
q-15 -74 -48 -137.5t-83 -111.5q-47 -48 -105 -73t-120 -25q-57 0 -102 25t-74 71q-31 48 -38.5 111.5t7.5 141.5q15 75 48.5 139t80.5 110t104 72t118 26zM364 750q5 18 15 35.5t25 31.5t36 22.5t48 8.5q47 0 70 -26.5t18 -71.5h-18q4 33 -14 55t-61 22q-36 0 -63.5 -21
t-38.5 -56h-17z" />
    <glyph glyph-name="oinvertedbreve" unicode="&#x20f;" horiz-adv-x="520" 
d="M491 237q9 51 4 93t-24 72.5t-50.5 47.5t-73.5 17t-80.5 -17.5t-70 -48t-54.5 -72.5t-32 -92q-11 -55 -4 -97.5t27 -71.5t50.5 -43.5t66.5 -14.5q45 0 85 17t71.5 47.5t53 72t31.5 90.5zM351 488q45 0 80 -18.5t56.5 -51.5t28 -79t-3.5 -102q-11 -54 -36.5 -99.5
t-60.5 -78.5t-78.5 -52t-90.5 -19t-81 19.5t-54.5 53.5t-26 79.5t4.5 96.5q10 54 35.5 99.5t60.5 79.5t77.5 53t88.5 19zM260 556q5 18 15 35.5t25 31.5t36 22.5t48 8.5q47 0 70 -26.5t18 -71.5h-18q4 33 -14 55t-61 22q-36 0 -63.5 -21t-38.5 -56h-17z" />
    <glyph glyph-name="Rdblgrave" unicode="&#x210;" horiz-adv-x="496" 
d="M213 664q30 6 61.5 10.5t65.5 4.5q38 0 75.5 -7.5t64 -27t39 -54.5t1.5 -91q-12 -63 -57 -108.5t-110 -61.5q78 -32 79 -141q2 -46 3.5 -78t2 -53.5t2.5 -34.5t6 -22h-24q-2 11 -3.5 24t-3 34t-2 51.5t-3.5 75.5q-2 68 -33.5 101.5t-101.5 33.5h-108l-62 -320h-21z
M504 542q-1 35 -16.5 57.5t-39.5 35.5t-53.5 18t-60.5 5q-29 0 -56 -3t-48 -7l-59 -307h116q39 0 74.5 11t63.5 31.5t48 50.5t27 69q5 22 4 39zM495 866q15 -31 33 -60.5t30 -56.5h-18q-26 39 -40.5 60.5t-22 32.5t-10.5 15.5t-6 8.5h34zM343 866q2 -6 10.5 -22.5t18 -35
t18.5 -35.5t12 -24h-19q0 1 -8 14.5t-19.5 31.5t-24 37.5t-21.5 33.5h33z" />
    <glyph glyph-name="rdblgrave" unicode="&#x211;" horiz-adv-x="290" 
d="M345 468q-4 1 -7.5 1h-6.5q-37 0 -66.5 -19.5t-51.5 -48t-35.5 -60.5t-18.5 -58l-55 -283h-21l58 301q0 1 4 22t9 49t10.5 57t6.5 47h21q-1 -17 -5.5 -45.5t-9.5 -52.5q11 21 27.5 41t37 36t44.5 25.5t51 9.5h13zM360 678q15 -31 33 -60.5t30 -56.5h-18
q-26 39 -40.5 60.5t-22 32.5t-10.5 15.5t-6 8.5h34zM208 678q2 -6 10.5 -22.5t18 -35t18.5 -35.5t12 -24h-19q0 1 -8 14.5t-19.5 31.5t-24 37.5t-21.5 33.5h33z" />
    <glyph glyph-name="Rinvertedbreve" unicode="&#x212;" horiz-adv-x="496" 
d="M213 664q30 6 61.5 10.5t65.5 4.5q38 0 75.5 -7.5t64 -27t39 -54.5t1.5 -91q-12 -63 -57 -108.5t-110 -61.5q78 -32 79 -141q2 -46 3.5 -78t2 -53.5t2.5 -34.5t6 -22h-24q-2 11 -3.5 24t-3 34t-2 51.5t-3.5 75.5q-2 68 -33.5 101.5t-101.5 33.5h-108l-62 -320h-21z
M504 542q-1 35 -16.5 57.5t-39.5 35.5t-53.5 18t-60.5 5q-29 0 -56 -3t-48 -7l-59 -307h116q39 0 74.5 11t63.5 31.5t48 50.5t27 69q5 22 4 39zM311 744q5 18 15 35.5t25 31.5t36 22.5t48 8.5q47 0 70 -26.5t18 -71.5h-18q4 33 -14 55t-61 22q-36 0 -63.5 -21t-38.5 -56h-17
z" />
    <glyph glyph-name="rinvertedbreve" unicode="&#x213;" horiz-adv-x="290" 
d="M345 468q-4 1 -7.5 1h-6.5q-37 0 -66.5 -19.5t-51.5 -48t-35.5 -60.5t-18.5 -58l-55 -283h-21l58 301q0 1 4 22t9 49t10.5 57t6.5 47h21q-1 -17 -5.5 -45.5t-9.5 -52.5q11 21 27.5 41t37 36t44.5 25.5t51 9.5h13zM176 556q5 18 15 35.5t25 31.5t36 22.5t48 8.5
q47 0 70 -26.5t18 -71.5h-18q4 33 -14 55t-61 22q-36 0 -63.5 -21t-38.5 -56h-17z" />
    <glyph glyph-name="Udblgrave" unicode="&#x214;" horiz-adv-x="613" 
d="M236 674l-82 -418q-6 -31 -9 -73.5t8.5 -80.5t43 -64.5t95.5 -26.5q68 0 113.5 26t75 64t44 80t20.5 75l82 418h21l-82 -418q-11 -56 -33 -105t-56.5 -85t-81.5 -56.5t-108 -20.5q-47 0 -78 13t-49.5 35t-26.5 50t-10 57.5t2 58.5t8 53l82 418h21zM525 861
q15 -31 33 -60.5t30 -56.5h-18q-26 39 -40.5 60.5t-22 32.5t-10.5 15.5t-6 8.5h34zM373 861q2 -6 10.5 -22.5t18 -35t18.5 -35.5t12 -24h-19q0 1 -8 14.5t-19.5 31.5t-24 37.5t-21.5 33.5h33z" />
    <glyph glyph-name="udblgrave" unicode="&#x215;" horiz-adv-x="519" 
d="M402 0q1 16 6 41.5t10 51.5q-23 -32 -57 -58q-17 -14 -49.5 -29t-72.5 -15q-76 0 -109 50.5t-14 147.5l56 289h21l-56 -289q-17 -89 12 -133t94 -44q37 0 64.5 13.5t43.5 25.5q33 24 53.5 56.5t29.5 69.5l58 301h21l-12 -66l-46 -235l-15 -79q-6 -28 -11 -55t-6 -43h-21z
M442 667q15 -31 33 -60.5t30 -56.5h-18q-26 39 -40.5 60.5t-22 32.5t-10.5 15.5t-6 8.5h34zM290 667q2 -6 10.5 -22.5t18 -35t18.5 -35.5t12 -24h-19q0 1 -8 14.5t-19.5 31.5t-24 37.5t-21.5 33.5h33z" />
    <glyph glyph-name="Uinvertedbreve" unicode="&#x216;" horiz-adv-x="613" 
d="M236 674l-82 -418q-6 -31 -9 -73.5t8.5 -80.5t43 -64.5t95.5 -26.5q68 0 113.5 26t75 64t44 80t20.5 75l82 418h21l-82 -418q-11 -56 -33 -105t-56.5 -85t-81.5 -56.5t-108 -20.5q-47 0 -78 13t-49.5 35t-26.5 50t-10 57.5t2 58.5t8 53l82 418h21zM341 739q5 18 15 35.5
t25 31.5t36 22.5t48 8.5q47 0 70 -26.5t18 -71.5h-18q4 33 -14 55t-61 22q-36 0 -63.5 -21t-38.5 -56h-17z" />
    <glyph glyph-name="uinvertedbreve" unicode="&#x217;" horiz-adv-x="519" 
d="M402 0q1 16 6 41.5t10 51.5q-23 -32 -57 -58q-17 -14 -49.5 -29t-72.5 -15q-76 0 -109 50.5t-14 147.5l56 289h21l-56 -289q-17 -89 12 -133t94 -44q37 0 64.5 13.5t43.5 25.5q33 24 53.5 56.5t29.5 69.5l58 301h21l-12 -66l-46 -235l-15 -79q-6 -28 -11 -55t-6 -43h-21z
M257 545q5 18 15 35.5t25 31.5t36 22.5t48 8.5q47 0 70 -26.5t18 -71.5h-18q4 33 -14 55t-61 22q-36 0 -63.5 -21t-38.5 -56h-17z" />
    <glyph glyph-name="Scommaaccent" unicode="&#x218;" horiz-adv-x="455" 
d="M58 54q20 -20 57.5 -33t75.5 -13q37 0 71 11.5t61.5 33.5t46.5 52.5t26 67.5q6 32 1 57t-20.5 45t-41.5 37t-61 33q-43 20 -68.5 40t-38 41.5t-15 44t2.5 46.5q7 36 27 66.5t48.5 52.5t63.5 34.5t72 12.5q26 0 55.5 -7t51.5 -24l-10 -19q-20 16 -48.5 23t-52.5 7
q-33 0 -64 -10.5t-56 -29t-42.5 -44.5t-23.5 -58q-6 -31 0.5 -54t22 -41.5t38.5 -33t50 -28.5q39 -18 66.5 -36t43.5 -40.5t21 -50t-2 -63.5q-7 -40 -28.5 -74.5t-52 -59t-68.5 -38.5t-80 -14q-22 0 -43.5 3.5t-40.5 10t-33.5 14.5t-21.5 17zM134 -276q9 17 22.5 43
t27.5 54.5t26.5 57t20.5 51.5l32 8q-13 -28 -29 -60.5t-32 -63.5t-30 -55.5t-22 -35.5z" />
    <glyph glyph-name="scommaaccent" unicode="&#x219;" horiz-adv-x="366" 
d="M356 442q-14 12 -36.5 18.5t-45.5 6.5q-14 0 -33 -4.5t-38.5 -16t-35 -30.5t-21.5 -48q-8 -39 12.5 -64t72.5 -46q22 -9 40.5 -21t31 -28.5t17.5 -37.5t-1 -49q-3 -19 -14.5 -42t-33 -43.5t-53 -34t-73.5 -13.5q-29 0 -52.5 8.5t-43.5 23.5l10 20q18 -13 41 -21.5
t50 -8.5q37 0 63.5 11t44 27.5t27.5 36t13 35.5q5 25 1 43t-15 31.5t-28 24t-38 19.5q-18 8 -37.5 18t-33.5 24t-21 35t-1 51q7 35 25.5 58t41.5 37t46.5 20t39.5 6q54 0 89 -26zM91 -276q9 17 22.5 43t27.5 54.5t26.5 57t20.5 51.5l32 8q-13 -28 -29 -60.5t-32 -63.5
t-30 -55.5t-22 -35.5z" />
    <glyph glyph-name="uni021A" unicode="&#x21a;" horiz-adv-x="456" 
d="M576 650h-222l-126 -650h-21l126 650h-222l4 21h465zM139 -266q9 17 22.5 43t27.5 54.5t26.5 57t20.5 51.5l32 8q-13 -28 -29 -60.5t-32 -63.5t-30 -55.5t-22 -35.5z" />
    <glyph glyph-name="uni021B" unicode="&#x21b;" horiz-adv-x="303" 
d="M255 3q-35 -12 -62 -12q-35 0 -51.5 14.5t-20.5 38t-0.5 54t9.5 61.5l58 298h-82l4 21h82l18 91l22 7l-19 -98h140l-4 -21h-140l-58 -298l-9.5 -57t-1.5 -47.5t16.5 -32t41.5 -11.5q24 0 54 11zM57 -276q9 17 22.5 43t27.5 54.5t26.5 57t20.5 51.5l32 8
q-13 -28 -29 -60.5t-32 -63.5t-30 -55.5t-22 -35.5z" />
    <glyph glyph-name="Hcaron" unicode="&#x21e;" horiz-adv-x="616" 
d="M215 674h21l-59 -301h392l59 301h21l-131 -674h-21l68 352h-392l-68 -352h-21zM525 725l-74 136h25l64 -121l114 121h24l-127 -136h-26z" />
    <glyph glyph-name="hcaron" unicode="&#x21f;" horiz-adv-x="525" 
d="M99 0h-20l137 708h20l-63 -325q36 52 83 79t107 27q51 0 83.5 -27.5t42.5 -75.5q3 -24 0.5 -48.5t-6.5 -46.5l-56 -291h-20l56 291q7 35 7.5 55.5t-4.5 38.5q-2 9 -8 23.5t-18.5 27.5t-33 22.5t-51.5 9.5q-45 0 -79.5 -17.5t-59.5 -43.5t-40 -55.5t-19 -52.5zM488 760
l-74 136h25l64 -121l114 121h24l-127 -136h-26z" />
    <glyph glyph-name="Adotaccent" unicode="&#x226;" horiz-adv-x="574" 
d="M33 0l376 674h11l115 -674h-24l-44 251h-272l-141 -251h-21zM207 272h259l-61 354zM423 772q2 9 8 15t15 6q8 0 13 -6t3 -15q-2 -8 -9 -13t-15 -5q-18 0 -15 18z" />
    <glyph glyph-name="adotaccent" unicode="&#x227;" horiz-adv-x="446" 
d="M334 0q0 10 3.5 34t8.5 50q-4 -4 -7.5 -8.5t-5.5 -6.5q-41 -46 -82.5 -61t-74.5 -15q-28 0 -51 7t-39 22.5t-22.5 39.5t0.5 58q7 36 26.5 67t55.5 54t89.5 36.5t128.5 13.5h20l6 33q3 15 4.5 40t-7.5 49t-30.5 41t-65.5 17q-29 0 -61 -10t-65 -30l-8 16q35 23 70 33.5
t67 10.5q39 0 63 -12.5t37.5 -32t17.5 -42t3.5 -42t-3 -34t-3.5 -16.5l-20 -106q-2 -7 -7 -33t-11 -58.5t-10.5 -64.5t-4.5 -50h-22zM320 79q8 9 14 17t11.5 20.5t10 32t10.5 49.5l14 72q0 -1 -1 -1t-1 1q-34 2 -80.5 -2t-90 -19t-78 -45.5t-44.5 -83.5q-6 -28 -0.5 -48.5
t19 -33.5t33.5 -19t43 -6q12 0 28 2.5t34.5 9.5t38 20t39.5 34zM306 589q2 9 8 15t15 6q8 0 13 -6t3 -15q-2 -8 -9 -13t-15 -5q-18 0 -15 18z" />
    <glyph glyph-name="Ecedilla" unicode="&#x228;" horiz-adv-x="456" 
d="M411 21l-4 -21h-323l131 674h307l-5 -21h-286l-55 -286h270l-4 -21h-270l-63 -325h302zM289 0l-43 -55q26 -5 40 -23.5t9 -41.5q-8 -37 -34 -51t-61 -14q-24 0 -48 11l10 19q11 -5 21.5 -7.5t24.5 -2.5q22 0 40 9t23 35q4 26 -12.5 36.5t-46.5 15.5l53 69h24z" />
    <glyph glyph-name="ecedilla" unicode="&#x229;" horiz-adv-x="474" 
d="M397 19q-33 -16 -68.5 -23t-74.5 -7q-49 1 -85 19t-57.5 50t-27.5 77.5t5 102.5q10 54 34.5 100t58.5 79t75.5 52t86.5 20q42 0 67.5 -15t40.5 -35t21 -42q7 -21 8 -60t-7 -81h-361l-3 -18q-22 -112 22 -170t141 -58q32 0 64 8t58 22zM339 468q-36 0 -70 -14t-63 -39
t-51 -60t-35 -77l337 -2q2 28 2.5 46.5t-0.5 27.5q-4 51 -35 84.5t-85 33.5zM273 -10l-43 -55q26 -5 40 -23.5t9 -41.5q-8 -37 -34 -51t-61 -14q-24 0 -48 11l10 19q11 -5 21.5 -7.5t24.5 -2.5q22 0 40 9t23 35q4 26 -12.5 36.5t-46.5 15.5l53 69h24z" />
    <glyph glyph-name="Odieresismacron" unicode="&#x22a;" horiz-adv-x="654" 
d="M646 336q14 74 7.5 134.5t-33 103.5t-69.5 66t-102 23q-57 0 -110 -24.5t-96 -67.5t-74 -102.5t-45 -130.5q-14 -72 -7 -132.5t32 -103.5t67.5 -67t98.5 -24q60 0 113.5 24t97.5 67t75 102.5t45 131.5zM454 685q63 0 110 -25.5t74.5 -71t35 -110t-7.5 -142.5
q-15 -74 -48 -137.5t-83 -111.5q-47 -48 -105 -73t-120 -25q-57 0 -102 25t-74 71q-31 48 -38.5 111.5t7.5 141.5q15 75 48.5 139t80.5 110t104 72t118 26zM375 789q2 9 9.5 15t15.5 6t12.5 -6t2.5 -15q-2 -8 -8.5 -14t-14.5 -6t-13.5 6t-3.5 14zM553 789q2 9 9.5 15t15.5 6
t12.5 -6t2.5 -15q-2 -8 -8.5 -14t-14.5 -6t-13.5 6t-3.5 14zM599 898l-3 -18h-194l3 18h194z" />
    <glyph glyph-name="odieresismacron" unicode="&#x22b;" horiz-adv-x="520" 
d="M491 237q9 51 4 93t-24 72.5t-50.5 47.5t-73.5 17t-80.5 -17.5t-70 -48t-54.5 -72.5t-32 -92q-11 -55 -4 -97.5t27 -71.5t50.5 -43.5t66.5 -14.5q45 0 85 17t71.5 47.5t53 72t31.5 90.5zM351 488q45 0 80 -18.5t56.5 -51.5t28 -79t-3.5 -102q-11 -54 -36.5 -99.5
t-60.5 -78.5t-78.5 -52t-90.5 -19t-81 19.5t-54.5 53.5t-26 79.5t4.5 96.5q10 54 35.5 99.5t60.5 79.5t77.5 53t88.5 19zM270 595q2 9 9.5 15t15.5 6t12.5 -6t2.5 -15q-2 -8 -8.5 -14t-14.5 -6t-13.5 6t-3.5 14zM448 595q2 9 9.5 15t15.5 6t12.5 -6t2.5 -15q-2 -8 -8.5 -14
t-14.5 -6t-13.5 6t-3.5 14zM495 704l-3 -18h-194l3 18h194z" />
    <glyph glyph-name="Otildemacron" unicode="&#x22c;" horiz-adv-x="654" 
d="M646 336q14 74 7.5 134.5t-33 103.5t-69.5 66t-102 23q-57 0 -110 -24.5t-96 -67.5t-74 -102.5t-45 -130.5q-14 -72 -7 -132.5t32 -103.5t67.5 -67t98.5 -24q60 0 113.5 24t97.5 67t75 102.5t45 131.5zM454 685q63 0 110 -25.5t74.5 -71t35 -110t-7.5 -142.5
q-15 -74 -48 -137.5t-83 -111.5q-47 -48 -105 -73t-120 -25q-57 0 -102 25t-74 71q-31 48 -38.5 111.5t7.5 141.5q15 75 48.5 139t80.5 110t104 72t118 26zM371 749q7 27 23.5 47.5t39.5 20.5q15 0 27 -6.5t22.5 -14t22.5 -13.5t27 -6q32 0 43 43h16q-7 -27 -21.5 -44
t-40.5 -17q-15 0 -27 6t-23 13.5t-22.5 13.5t-26.5 6q-17 0 -26 -14.5t-17 -34.5h-17zM601 907l-3 -18h-194l3 18h194z" />
    <glyph glyph-name="otildemacron" unicode="&#x22d;" horiz-adv-x="520" 
d="M491 237q9 51 4 93t-24 72.5t-50.5 47.5t-73.5 17t-80.5 -17.5t-70 -48t-54.5 -72.5t-32 -92q-11 -55 -4 -97.5t27 -71.5t50.5 -43.5t66.5 -14.5q45 0 85 17t71.5 47.5t53 72t31.5 90.5zM351 488q45 0 80 -18.5t56.5 -51.5t28 -79t-3.5 -102q-11 -54 -36.5 -99.5
t-60.5 -78.5t-78.5 -52t-90.5 -19t-81 19.5t-54.5 53.5t-26 79.5t4.5 96.5q10 54 35.5 99.5t60.5 79.5t77.5 53t88.5 19zM266 555q7 27 23.5 47.5t39.5 20.5q15 0 27 -6.5t22.5 -14t22.5 -13.5t27 -6q32 0 43 43h16q-7 -27 -21.5 -44t-40.5 -17q-15 0 -27 6t-23 13.5
t-22.5 13.5t-26.5 6q-17 0 -26 -14.5t-17 -34.5h-17zM496 713l-3 -18h-194l3 18h194z" />
    <glyph glyph-name="Odotaccent" unicode="&#x22e;" horiz-adv-x="654" 
d="M646 336q14 74 7.5 134.5t-33 103.5t-69.5 66t-102 23q-57 0 -110 -24.5t-96 -67.5t-74 -102.5t-45 -130.5q-14 -72 -7 -132.5t32 -103.5t67.5 -67t98.5 -24q60 0 113.5 24t97.5 67t75 102.5t45 131.5zM454 685q63 0 110 -25.5t74.5 -71t35 -110t-7.5 -142.5
q-15 -74 -48 -137.5t-83 -111.5q-47 -48 -105 -73t-120 -25q-57 0 -102 25t-74 71q-31 48 -38.5 111.5t7.5 141.5q15 75 48.5 139t80.5 110t104 72t118 26zM462 783q2 9 8 15t15 6q8 0 13 -6t3 -15q-2 -8 -9 -13t-15 -5q-18 0 -15 18z" />
    <glyph glyph-name="odotaccent" unicode="&#x22f;" horiz-adv-x="520" 
d="M491 237q9 51 4 93t-24 72.5t-50.5 47.5t-73.5 17t-80.5 -17.5t-70 -48t-54.5 -72.5t-32 -92q-11 -55 -4 -97.5t27 -71.5t50.5 -43.5t66.5 -14.5q45 0 85 17t71.5 47.5t53 72t31.5 90.5zM351 488q45 0 80 -18.5t56.5 -51.5t28 -79t-3.5 -102q-11 -54 -36.5 -99.5
t-60.5 -78.5t-78.5 -52t-90.5 -19t-81 19.5t-54.5 53.5t-26 79.5t4.5 96.5q10 54 35.5 99.5t60.5 79.5t77.5 53t88.5 19zM358 589q2 9 8 15t15 6q8 0 13 -6t3 -15q-2 -8 -9 -13t-15 -5q-18 0 -15 18z" />
    <glyph glyph-name="Odotaccentmacron" unicode="&#x230;" horiz-adv-x="654" 
d="M646 336q14 74 7.5 134.5t-33 103.5t-69.5 66t-102 23q-57 0 -110 -24.5t-96 -67.5t-74 -102.5t-45 -130.5q-14 -72 -7 -132.5t32 -103.5t67.5 -67t98.5 -24q60 0 113.5 24t97.5 67t75 102.5t45 131.5zM454 685q63 0 110 -25.5t74.5 -71t35 -110t-7.5 -142.5
q-15 -74 -48 -137.5t-83 -111.5q-47 -48 -105 -73t-120 -25q-57 0 -102 25t-74 71q-31 48 -38.5 111.5t7.5 141.5q15 75 48.5 139t80.5 110t104 72t118 26zM462 783q2 9 8 15t15 6q8 0 13 -6t3 -15q-2 -8 -9 -13t-15 -5q-18 0 -15 18zM600 900l-3 -18h-194l3 18h194z" />
    <glyph glyph-name="odotaccentmacron" unicode="&#x231;" horiz-adv-x="520" 
d="M491 237q9 51 4 93t-24 72.5t-50.5 47.5t-73.5 17t-80.5 -17.5t-70 -48t-54.5 -72.5t-32 -92q-11 -55 -4 -97.5t27 -71.5t50.5 -43.5t66.5 -14.5q45 0 85 17t71.5 47.5t53 72t31.5 90.5zM351 488q45 0 80 -18.5t56.5 -51.5t28 -79t-3.5 -102q-11 -54 -36.5 -99.5
t-60.5 -78.5t-78.5 -52t-90.5 -19t-81 19.5t-54.5 53.5t-26 79.5t4.5 96.5q10 54 35.5 99.5t60.5 79.5t77.5 53t88.5 19zM358 589q2 9 8 15t15 6q8 0 13 -6t3 -15q-2 -8 -9 -13t-15 -5q-18 0 -15 18zM495 706l-3 -18h-194l3 18h194z" />
    <glyph glyph-name="Ymacron" unicode="&#x232;" horiz-adv-x="495" 
d="M606 674l-300 -381l-56 -293h-21l56 293l-136 381h24l128 -357l279 357h26zM502 760l-3 -18h-194l3 18h194z" />
    <glyph glyph-name="ymacron" unicode="&#x233;" horiz-adv-x="431" 
d="M-18 -200q18 7 41.5 21.5t50.5 39t56 60.5t59 87l7 11l-91 457h22l86 -428q16 27 41 69t53.5 89t56.5 94.5t50.5 86t37 63t14.5 26.5h24l-244 -410q-16 -26 -25 -41.5t-12 -20.5q-31 -54 -62 -92.5t-59.5 -65t-55 -42t-47.5 -24.5zM424 566l-3 -18h-194l3 18h194z" />
    <glyph glyph-name="uni0237" unicode="&#x237;" horiz-adv-x="211" 
d="M-70 -195q30 5 57 17.5t47 32.5q13 12 24 27t20 38t17.5 56t17.5 82l82 422h20l-89 -455q-13 -67 -30 -111.5t-52 -76.5q-30 -25 -62.5 -38t-51.5 -15v21z" />
    <glyph glyph-name="uni02B9" unicode="&#x2b9;" horiz-adv-x="173" 
d="M270 688q-29 -54 -55.5 -100.5t-54.5 -99.5q-8 0 -14 -2q23 53 43.5 98.5t43.5 97.5z" />
    <glyph glyph-name="uni02BA" unicode="&#x2ba;" horiz-adv-x="292" 
d="M270 688q-29 -54 -56 -100.5t-55 -99.5q-8 0 -14 -2q23 53 43.5 98.5t43.5 97.5zM391 688q-29 -54 -55 -100.5t-55 -99.5q-7 0 -13 -2q23 53 43.5 98.5t42.5 97.5z" />
    <glyph glyph-name="uni02BB" unicode="&#x2bb;" horiz-adv-x="173" 
d="M147 486q13 27 28.5 57t30.5 57.5t28.5 50t22.5 35.5q7 0 13 2q-10 -19 -21.5 -44t-23.5 -51.5t-23 -52.5t-18 -47z" />
    <glyph glyph-name="uni02BC" unicode="&#x2bc;" horiz-adv-x="173" 
d="M271 688q-13 -27 -28.5 -57t-31 -58t-29 -50.5t-21.5 -34.5q-7 0 -13 -2q10 19 22 44t24 51.5t22 53t18 47.5z" />
    <glyph glyph-name="uni02BD" unicode="&#x2bd;" horiz-adv-x="173" 
d="M221 682q-1 -22 -0.5 -49t2 -54t3.5 -51.5t5 -42.5l-13 3q-4 11 -8.5 33.5t-9 51t-8 59t-6.5 57.5z" />
    <glyph glyph-name="uni02BE" unicode="&#x2be;" horiz-adv-x="203" 
d="M245 569q3 15 2.5 32t-7.5 32t-22 25t-40 11l3 17q27 -1 45.5 -11t29 -26t13 -36.5t-1.5 -41.5q-5 -27 -18.5 -49t-31.5 -38t-39.5 -24.5t-42.5 -9.5l4 19q40 3 69 31t37 69z" />
    <glyph glyph-name="uni02BF" unicode="&#x2bf;" horiz-adv-x="203" 
d="M287 669q-26 -1 -44.5 -11t-31.5 -25t-20.5 -32t-10.5 -32q-8 -42 10 -70t58 -30l-4 -19q-20 1 -37.5 10.5t-30 25t-18 37t-0.5 48.5q4 21 15 41.5t27.5 36.5t39 26t50.5 11z" />
    <glyph glyph-name="circumflex" unicode="&#x2c6;" horiz-adv-x="300" 
d="M292 660l5.5 -9t13.5 -22.5t17 -29t17 -29t13.5 -22l5.5 -8.5h-24l-63 107l-109 -107h-21l119 120h26z" />
    <glyph glyph-name="caron" unicode="&#x2c7;" horiz-adv-x="300" 
d="M245 541l-74 136h25l64 -121l114 121h24l-127 -136h-26z" />
    <glyph glyph-name="uni02C8" unicode="&#x2c8;" horiz-adv-x="118" 
d="M177 556h-18l23 121h18z" />
    <glyph glyph-name="uni02C9" unicode="&#x2c9;" horiz-adv-x="300" 
d="M369 621l-3 -18h-194l3 18h194z" />
    <glyph glyph-name="uni02CA" unicode="&#x2ca;" horiz-adv-x="237" 
d="M310 677q-36 -32 -65.5 -60.5t-64.5 -60.5h-14l100 121h44z" />
    <glyph glyph-name="uni02CB" unicode="&#x2cb;" horiz-adv-x="237" 
d="M236 677q14 -31 27.5 -60t27.5 -61h-15q-21 31 -42 61t-41 60h43z" />
    <glyph glyph-name="uni02CC" unicode="&#x2cc;" horiz-adv-x="118" 
d="M41 -144h-18l23 120h18z" />
    <glyph glyph-name="uni02CD" unicode="&#x2cd;" horiz-adv-x="300" 
d="M233 -79l-4 -19h-194l4 19h194z" />
    <glyph glyph-name="uni02CE" unicode="&#x2ce;" horiz-adv-x="237" 
d="M100 -24q14 -31 27.5 -60t27.5 -60h-15q-22 30 -42.5 60t-40.5 60h43z" />
    <glyph glyph-name="uni02CF" unicode="&#x2cf;" horiz-adv-x="237" 
d="M170 -24q-36 -32 -66 -61t-64 -61l-22 1l115 121h37z" />
    <glyph glyph-name="breve" unicode="&#x2d8;" horiz-adv-x="300" 
d="M194 674q-2 -38 17 -59t56 -21q20 0 37 7t30.5 18.5t22.5 25.5t14 29h19q-14 -45 -47.5 -71t-79.5 -26q-28 0 -46 9.5t-27.5 24t-13 31.5t-1.5 32h19z" />
    <glyph glyph-name="dotaccent" unicode="&#x2d9;" horiz-adv-x="300" 
d="M252 609q2 9 8 15t15 6q8 0 13 -6t3 -15q-2 -8 -9 -13t-15 -5q-18 0 -15 18z" />
    <glyph glyph-name="ring" unicode="&#x2da;" horiz-adv-x="400" 
d="M404 622q-3 -18 -12.5 -33t-23 -26.5t-30 -18t-33.5 -6.5t-31 6.5t-23 18t-12.5 26.5t-0.5 33q7 35 36 59t64 24t54 -24t12 -59zM259 622q-5 -28 9.5 -45.5t40.5 -17.5q27 0 48.5 17.5t26.5 45.5q5 26 -9 44.5t-41 18.5q-26 0 -48 -18.5t-27 -44.5z" />
    <glyph glyph-name="ogonek" unicode="&#x2db;" horiz-adv-x="300" 
d="M184 0q-17 -11 -35 -25t-33 -29t-25.5 -30.5t-13.5 -29.5q-7 -31 7.5 -44.5t36.5 -13.5q10 0 22 1t24 4v-4.5t2 -8.5q-32 -12 -63 -12q-32 0 -48.5 17.5t-10.5 49.5q4 18 19 37.5t34 37t39.5 31t34.5 19.5h10z" />
    <glyph glyph-name="tilde" unicode="&#x2dc;" horiz-adv-x="301" 
d="M160 577q7 27 23.5 47.5t39.5 20.5q15 0 27 -6.5t22.5 -14t22.5 -13.5t27 -6q32 0 43 43h16q-7 -27 -21.5 -44t-40.5 -17q-15 0 -27 6t-23 13.5t-22.5 13.5t-26.5 6q-17 0 -26 -14.5t-17 -34.5h-17z" />
    <glyph glyph-name="hungarumlaut" unicode="&#x2dd;" horiz-adv-x="300" 
d="M326 677q-32 -29 -57.5 -57t-57.5 -57h-20l100 114h35zM454 677q-32 -29 -57.5 -57t-57.5 -57h-20l104 114h31z" />
    <glyph glyph-name="uni02EE" unicode="&#x2ee;" horiz-adv-x="292" 
d="M271 689q-13 -27 -29.5 -59.5t-33 -63.5t-30.5 -56t-23 -37q-7 0 -13 -2q10 19 23 46.5t25.5 57t23.5 58t19 49.5zM392 688q-12 -27 -28.5 -59.5t-33 -63t-30.5 -55.5t-23 -37q-6 0 -12 -2q10 19 22.5 46.5t25.5 57t24 58t18 49.5z" />
    <glyph glyph-name="gravecmb" unicode="&#x300;" 
d="M-108 677q14 -31 30.5 -67.5t29.5 -68.5h-16q-21 31 -41.5 68.5t-40.5 67.5h38z" />
    <glyph glyph-name="acutecmb" unicode="&#x301;" 
d="M-45 677q-5 -5 -16 -16.5t-25 -26t-29.5 -31t-28 -30t-21.5 -23t-10 -10.5l-16 1l113 136h33z" />
    <glyph glyph-name="circumflexcmb" unicode="&#x302;" 
d="M-49 677l67 -136h-29l-53 120l-102 -120h-27l117 136h27z" />
    <glyph glyph-name="tildecmb" unicode="&#x303;" horiz-adv-x="301" 
d="M-183 570q7 27 24 47.5t40 20.5q15 0 27 -6.5t22.5 -14t22.5 -13.5t27 -6q31 0 42 43h16q-7 -27 -22 -44t-40 -17q-15 0 -26.5 6t-22.5 13.5t-22.5 13.5t-26.5 6q-17 0 -26.5 -14.5t-17.5 -34.5h-17z" />
    <glyph glyph-name="macroncmb" unicode="&#x304;" 
d="M24 619l-4 -18h-228l4 18h228z" />
    <glyph glyph-name="brevecmb" unicode="&#x306;" 
d="M-145 674q-1 -33 18 -55.5t55 -22.5q42 0 68.5 23t34.5 55h20q-10 -45 -44.5 -72t-82.5 -27q-30 0 -48 11t-28 27t-12 33t0 28h19z" />
    <glyph glyph-name="dotaccentcmb" unicode="&#x307;" 
d="M-167 586q2 11 10.5 18.5t19.5 7.5t17 -7.5t4 -18.5q-5 -25 -30 -25q-11 0 -17 7t-4 18z" />
    <glyph glyph-name="dieresiscmb" unicode="&#x308;" 
d="M-172 617q2 9 9.5 15t15.5 6t12.5 -6t2.5 -15q-2 -8 -8.5 -13.5t-14.5 -5.5t-13.5 5.5t-3.5 13.5zM5 617q2 9 9.5 15t15.5 6t12.5 -6t2.5 -15q-2 -8 -8.5 -13.5t-14.5 -5.5t-13.5 5.5t-3.5 13.5z" />
    <glyph glyph-name="hookabovecmb" unicode="&#x309;" 
d="M-198 496q18 4 39 13t40.5 21.5t35 27t21.5 30.5q12 30 4.5 47.5t-26.5 22.5q-8 3 -25 3.5t-28 -0.5l3 16q17 2 33.5 2.5t33.5 -4.5q14 -4 22 -13.5t11 -23t0.5 -28.5t-9.5 -30q-8 -18 -26 -35t-40 -30.5t-45 -22.5t-41 -13z" />
    <glyph glyph-name="ringcmb" unicode="&#x30a;" 
d="M-106 621q-3 -18 -12.5 -33t-23 -26.5t-30 -18t-33.5 -6.5t-31 6.5t-23 18t-12.5 26.5t-0.5 33q7 35 35.5 59t63.5 24t54.5 -24t12.5 -59zM-251 621q-5 -28 9.5 -45.5t40.5 -17.5q27 0 48.5 17.5t26.5 45.5q5 26 -9.5 44.5t-41.5 18.5q-26 0 -47.5 -18.5t-26.5 -44.5z
" />
    <glyph glyph-name="hungarumlautcmb" unicode="&#x30b;" 
d="M-25 684q-35 -32 -69.5 -68.5t-69.5 -68.5h-19l121 137h37zM100 685q-35 -32 -69.5 -68.5t-69.5 -68.5h-19l121 137h37z" />
    <glyph glyph-name="caroncmb" unicode="&#x30c;" 
d="M-98 539l-67 137h30l53 -120q44 52 66 79t35 41h28q-28 -32 -59 -68.5t-59 -68.5h-27z" />
    <glyph glyph-name="uni030D" unicode="&#x30d;" 
d="M-146 556h-18l23 121h18z" />
    <glyph glyph-name="uni030E" unicode="&#x30e;" 
d="M-197 556h-19l23 121h19zM-94 556h-19l23 121h19z" />
    <glyph glyph-name="doublegravecmb" unicode="&#x30f;" 
d="M-112 677q15 -31 33 -60.5t30 -56.5h-18q-26 39 -40.5 60.5t-22 32.5t-10.5 15.5t-6 8.5h34zM-264 677q2 -6 10.5 -22.5t18 -35t18.5 -35.5t12 -24h-19q0 1 -8 14.5t-19.5 31.5t-24 37.5t-21.5 33.5h33z" />
    <glyph glyph-name="invertedbrevecmb" unicode="&#x311;" 
d="M-110 576q5 18 15 35.5t25 31.5t36 22.5t48 8.5q47 0 70 -26.5t18 -71.5h-18q4 33 -14 55t-61 22q-36 0 -63.5 -21t-38.5 -56h-17z" />
    <glyph glyph-name="uni0312" unicode="&#x312;" 
d="M-215 483q13 27 29.5 58t32.5 59t30.5 51t22.5 35l21 2q-9 -17 -23 -42.5t-29 -53t-28 -55t-21 -48.5z" />
    <glyph glyph-name="uni0313" unicode="&#x313;" 
d="M-88 688q-12 -27 -27.5 -57t-31 -58t-29 -50.5t-22.5 -34.5q-6 0 -12 -2q10 19 22 44t23.5 51.5t22 53t17.5 47.5z" />
    <glyph glyph-name="uni0314" unicode="&#x314;" 
d="M-137 682q-1 -22 -1 -49t1.5 -54t3.5 -51.5t5 -42.5l-12 3q-4 11 -8.5 33.5t-9 51t-8.5 59t-6 57.5z" />
    <glyph glyph-name="uni0316" unicode="&#x316;" 
d="M-288 -55q14 -31 26.5 -60t26.5 -60h-15q-21 30 -41.5 60t-40.5 60h44z" />
    <glyph glyph-name="uni0317" unicode="&#x317;" 
d="M-210 -50q-35 -32 -66.5 -62.5t-65.5 -61.5h-19q28 33 52 62t51 62h48z" />
    <glyph glyph-name="horncmb" unicode="&#x31b;" 
d="M-198 608q16 -29 37 -53t50 -24q31 -1 48.5 16t22.5 40q2 10 3 21.5t-1 22.5l12 4q2 -13 2 -28.5t-3 -30.5q-5 -30 -26.5 -50t-53.5 -20q-18 0 -34.5 9.5t-30.5 24t-23.5 30.5t-12.5 29z" />
    <glyph glyph-name="uni031C" unicode="&#x31c;" 
d="M-211 -58h-8l-2 -9zM-219 -58q-25 -2 -43.5 -12t-31.5 -24.5t-20.5 -32t-10.5 -32.5q-8 -40 11 -67.5t56 -32.5l-3 -18q-21 1 -39.5 10t-30.5 24.5t-16.5 37t0.5 48.5q4 22 14.5 42.5t27.5 36.5t39.5 26t50.5 11z" />
    <glyph glyph-name="dotbelowcmb" unicode="&#x323;" 
d="M-160 -139q-9 0 -13.5 7t-2.5 17t9.5 17t17.5 7t14 -7t2 -17q-2 -11 -9.5 -17.5t-17.5 -6.5z" />
    <glyph glyph-name="dieresisbelowcmb" unicode="&#x324;" 
d="M-319 -123q2 13 12 21.5t22 8.5t19.5 -8.5t5.5 -21.5q-2 -11 -13 -19.5t-23 -8.5t-18.5 8.5t-4.5 19.5zM-146 -123q2 13 12 21.5t22 8.5t19.5 -8.5t5.5 -21.5q-2 -11 -13 -19.5t-23 -8.5t-18.5 8.5t-4.5 19.5z" />
    <glyph glyph-name="ringbelowcmb" unicode="&#x325;" 
d="M-264 -176q-3 -18 -12.5 -33t-23 -26.5t-30 -18t-34.5 -6.5q-17 0 -31 6.5t-23 18t-12.5 26.5t-0.5 33q7 35 35.5 59t63.5 24t55 -24t13 -59zM-416 -176q-5 -29 10.5 -49t44.5 -20t53 20t29 49q5 28 -10.5 48.5t-44.5 20.5t-53 -20.5t-29 -48.5z" />
    <glyph glyph-name="commabelowcmb" unicode="&#x326;" 
d="M-207 -286q9 17 22.5 43t27.5 54.5t26.5 57t20.5 51.5l32 8q-13 -28 -29 -60.5t-32 -63.5t-30 -55.5t-22 -35.5z" />
    <glyph glyph-name="cedillacmb" unicode="&#x327;" 
d="M-184 2l-43 -55q26 -5 40 -23.5t9 -41.5q-8 -37 -34 -51t-61 -14q-24 0 -48 11l10 19q11 -5 21.5 -7.5t24.5 -2.5q22 0 40 9t23 35q4 26 -12.5 36.5t-46.5 15.5l53 69h24z" />
    <glyph glyph-name="ogonekcmb" unicode="&#x328;" 
d="M-178 0q-18 -9 -38.5 -24t-38 -32t-29.5 -34.5t-13 -33.5q-2 -31 12 -41.5t37 -10.5q9 0 20.5 1t22.5 5l3 -17q-13 -5 -29.5 -8t-30.5 -3q-30 0 -46.5 22t-10.5 54q3 18 16.5 37t30.5 36t36 30t34 19h24z" />
    <glyph glyph-name="uni0329" unicode="&#x329;" 
d="M-291 -170h-21l27 137h21z" />
    <glyph glyph-name="uni032C" unicode="&#x32c;" 
d="M-307 -174l-61 124h27l48 -109l93 109h25l-106 -124h-26z" />
    <glyph glyph-name="circumflexbelowcmb" unicode="&#x32d;" 
d="M-201 -93q16 -31 30 -60t29 -60h-24l-46 111l-94 -111h-22l102 120h25z" />
    <glyph glyph-name="brevebelowcmb" unicode="&#x32e;" 
d="M-297 -93q1 -37 21.5 -56t54.5 -19q40 0 66.5 24t37.5 51h17q-12 -42 -46.5 -69t-78.5 -27q-28 0 -46 9.5t-28 24t-13.5 31t-1.5 31.5h17z" />
    <glyph glyph-name="uni032F" unicode="&#x32f;" 
d="M-401 -153q5 18 15 36t25.5 32t37.5 23t50 9q46 0 71.5 -26.5t17.5 -73.5h-21q1 28 -16 51.5t-57 23.5q-33 0 -60.5 -23t-41.5 -52h-21z" />
    <glyph glyph-name="tildebelowcmb" unicode="&#x330;" 
d="M-326 -161q7 27 23.5 46t39.5 19q12 0 22 -4.5t25 -12.5l7 -4l6 -5h-1q10 -6 19.5 -9.5t24.5 -3.5q14 0 25 9.5t19 32.5h11q-7 -27 -22 -44.5t-41 -17.5q-13 0 -24 6.5t-25 14.5q-14 9 -24.5 14.5t-24.5 5.5q-17 0 -28 -13.5t-19 -33.5h-13z" />
    <glyph glyph-name="macronbelowcmb" unicode="&#x331;" 
d="M-127 -110l-4 -19h-216l4 19h216z" />
    <glyph glyph-name="uni0334" unicode="&#x334;" 
d="M-326 213q7 27 24 48t41 21q13 0 23.5 -5t24.5 -13l12 -8q10 -6 19.5 -9.5t23.5 -3.5q15 0 24.5 9t17.5 33h15q-8 -29 -23.5 -47.5t-42.5 -18.5q-13 0 -24.5 6t-24.5 15q-15 9 -25 14t-23 5q-17 0 -26.5 -12t-17.5 -34h-18z" />
    <glyph glyph-name="uni0335" unicode="&#x335;" 
d="M-102 264l-4 -22h-219l4 22h219z" />
    <glyph glyph-name="uni0338" unicode="&#x338;" 
d="M-441 -41l451 726h32l-453 -726h-30z" />
    <glyph glyph-name="uni0339" unicode="&#x339;" 
d="M-260 -159q3 15 2 32.5t-8.5 32t-22.5 24.5t-39 12l4 17q27 -1 45.5 -11t29 -26t13 -36.5t-1.5 -42.5q-5 -27 -18.5 -48.5t-31.5 -37t-39.5 -24.5t-42.5 -10l3 18q42 2 70.5 30t36.5 70zM-337 -58h9l-2 -9z" />
    <glyph glyph-name="gravetonecmb" unicode="&#x340;" 
d="M-108 677q14 -31 30.5 -67.5t29.5 -68.5h-16q-21 31 -41.5 68.5t-40.5 67.5h38z" />
    <glyph glyph-name="acutetonecmb" unicode="&#x341;" 
d="M-45 677q-5 -5 -16 -16.5t-25 -26t-29.5 -31t-28 -30t-21.5 -23t-10 -10.5l-16 1l113 136h33z" />
    <glyph glyph-name="koroniscmb" unicode="&#x343;" 
d="M-88 688q-12 -27 -27.5 -57t-31 -58t-29 -50.5t-22.5 -34.5q-6 0 -12 -2q10 19 22 44t23.5 51.5t22 53t17.5 47.5z" />
    <glyph glyph-name="dialytikatonoscmb" unicode="&#x344;" 
d="M-172 617q2 9 9.5 15t15.5 6t12.5 -6t2.5 -15q-2 -8 -8.5 -13.5t-14.5 -5.5t-13.5 5.5t-3.5 13.5zM5 617q2 9 9.5 15t15.5 6t12.5 -6t2.5 -15q-2 -8 -8.5 -13.5t-14.5 -5.5t-13.5 5.5t-3.5 13.5zM69 803q-5 -5 -16 -16.5t-25 -26t-29.5 -31t-28 -30t-21.5 -23t-10 -10.5
l-16 1l113 136h33z" />
    <glyph glyph-name="uni034F" unicode="&#x34f;" 
 />
    <glyph glyph-name="uni0351" unicode="&#x351;" 
d="M-69 669q-2 0 -4.5 -0.5t-4.5 -0.5l-1 -7zM-78 668q-24 -2 -42.5 -12t-31.5 -24.5t-21 -31.5t-11 -32q-8 -40 11.5 -67.5t55.5 -32.5l-3 -17q-21 1 -39 9.5t-30 24t-17 37t0 48.5q4 22 15 42.5t27.5 36.5t39 26t50.5 11z" />
    <glyph glyph-name="uni0357" unicode="&#x357;" 
d="M-119 568q3 15 2 32t-8.5 31.5t-22 24.5t-39.5 12l4 18q27 -1 45.5 -11t29 -26t13 -36.5t-1.5 -42.5q-11 -54 -49.5 -85.5t-82.5 -33.5l3 17q42 2 70.5 30t36.5 70zM-195 669q2 0 4 -0.5t4 -0.5l-1 -7z" />
    <glyph glyph-name="uni03BC" unicode="&#x3bc;" horiz-adv-x="519" 
d="M461 112q-6 -32 -10.5 -59t-7.5 -53h-16l15 109l-5 -10q-31 -55 -81 -82.5t-114 -27.5q-11 0 -29 3.5t-35.5 13t-32 26t-18.5 42.5l-2 5l-5 -27q-7 -32 -13.5 -64t-12.5 -64q-8 -32 -13.5 -61t-11.5 -62h-21l132 679h21l-56 -285q-7 -35 -6.5 -68t12.5 -59t37 -42t68 -16
q34 0 67 14.5t60 38t45 52t24 55.5l60 310h21z" />
    <glyph glyph-name="palochkacyrillic" unicode="&#x4c0;" horiz-adv-x="208" 
d="M218 674h21l-131 -674h-21z" />
    <glyph glyph-name="Aiecyrillic" unicode="&#x4d4;" horiz-adv-x="724" 
d="M8 0l221 333l226 341h350l-1 -1l-3 -19h-295l-27 -290h254l-4 -20h-249l-24 -324h243l-3 -20h-268l21 279h-233q-60 -93 -95 -146t-53.5 -81t-25 -37.5t-9.5 -14.5h-25zM448 298l36 361h-17l-235 -361h216z" />
    <glyph glyph-name="aiecyrillic" unicode="&#x4d5;" horiz-adv-x="739" 
d="M416 263q-14 -62 -10.5 -109.5t22 -80t50 -49t73.5 -16.5q50 0 80 8.5t46 16.5l2 -18q-23 -11 -57.5 -18t-79.5 -7q-29 0 -55 9t-46.5 27t-34 44.5t-17.5 60.5l-2 7q-18 -38 -42 -65.5t-52 -46t-58 -27.5t-60 -9q-34 0 -56.5 10.5t-35.5 27.5t-16.5 39.5t1.5 45.5
q17 82 95.5 127t230.5 41h5l7 36q3 14 3 39.5t-10.5 51t-35.5 44t-72 18.5q-32 0 -62 -10t-54 -24q-1 2 -1 6q-1 3 -1 7t-1 9q35 16 70 23.5t58 7.5q64 0 95.5 -37.5t32.5 -99.5l1 1q35 70 89.5 103.5t110.5 33.5q54 0 83 -24.5t41.5 -58t12 -68.5t-5.5 -57l-4 -20zM396 263
h-5q-40 1 -88.5 -2.5t-93 -18t-77.5 -44t-43 -79.5q-11 -57 16 -83.5t75 -26.5q31 0 59.5 9.5t52 26t41.5 37t30 43.5q5 9 9.5 27.5t6.5 29.5zM740 281q7 26 5.5 58.5t-14.5 61.5t-39 49t-68 20t-76.5 -18.5t-61 -46.5t-43.5 -61t-24 -63h318h3z" />
    <glyph glyph-name="Aringbelow" unicode="&#x1e00;" horiz-adv-x="574" 
d="M33 0l376 674h11l115 -674h-24l-44 251h-272l-141 -251h-21zM207 272h259l-61 354zM346 -140q-3 -18 -12.5 -33t-23 -26.5t-30 -18t-33.5 -6.5t-31 6.5t-23 18t-12.5 26.5t-0.5 33q7 35 36 59t64 24t54 -24t12 -59zM201 -140q-5 -28 9.5 -45.5t40.5 -17.5q27 0 48.5 17.5
t26.5 45.5q5 26 -9 44.5t-41 18.5q-26 0 -48 -18.5t-27 -44.5z" />
    <glyph glyph-name="aringbelow" unicode="&#x1e01;" horiz-adv-x="446" 
d="M334 0q0 10 3.5 34t8.5 50q-4 -4 -7.5 -8.5t-5.5 -6.5q-41 -46 -82.5 -61t-74.5 -15q-28 0 -51 7t-39 22.5t-22.5 39.5t0.5 58q7 36 26.5 67t55.5 54t89.5 36.5t128.5 13.5h20l6 33q3 15 4.5 40t-7.5 49t-30.5 41t-65.5 17q-29 0 -61 -10t-65 -30l-8 16q35 23 70 33.5
t67 10.5q39 0 63 -12.5t37.5 -32t17.5 -42t3.5 -42t-3 -34t-3.5 -16.5l-20 -106q-2 -7 -7 -33t-11 -58.5t-10.5 -64.5t-4.5 -50h-22zM320 79q8 9 14 17t11.5 20.5t10 32t10.5 49.5l14 72q0 -1 -1 -1t-1 1q-34 2 -80.5 -2t-90 -19t-78 -45.5t-44.5 -83.5q-6 -28 -0.5 -48.5
t19 -33.5t33.5 -19t43 -6q12 0 28 2.5t34.5 9.5t38 20t39.5 34zM262 -151q-3 -18 -12.5 -33t-23 -26.5t-30 -18t-33.5 -6.5t-31 6.5t-23 18t-12.5 26.5t-0.5 33q7 35 36 59t64 24t54 -24t12 -59zM117 -151q-5 -28 9.5 -45.5t40.5 -17.5q27 0 48.5 17.5t26.5 45.5
q5 26 -9 44.5t-41 18.5q-26 0 -48 -18.5t-27 -44.5z" />
    <glyph glyph-name="Bdotaccent" unicode="&#x1e02;" horiz-adv-x="496" 
d="M213 666q30 5 58.5 9t58.5 4q95 0 139.5 -39t28.5 -124q-5 -25 -19.5 -51t-36.5 -47.5t-50 -37t-60 -20.5q46 -9 73 -28t41.5 -43t17 -51t-2.5 -52q-19 -94 -93 -142.5t-195 -48.5q-22 0 -43.5 1.5t-45.5 3.5zM105 20q17 -2 34.5 -3t35.5 -1q107 0 176.5 40t87.5 130
q14 73 -28 115t-131 48h-111zM173 370h111q35 0 67.5 11.5t58.5 31t44 46t24 57.5q14 75 -25.5 108.5t-127.5 33.5q-26 0 -50 -3t-47 -6zM401 777q2 9 8 15t15 6q8 0 13 -6t3 -15q-2 -8 -9 -13t-15 -5q-18 0 -15 18z" />
    <glyph glyph-name="bdotaccent" unicode="&#x1e03;" horiz-adv-x="540" 
d="M275 10q41 0 77.5 17t66 47t50.5 71t30 90q10 52 6 94.5t-21.5 73t-48.5 47t-75 16.5q-39 0 -72.5 -16t-60 -41t-44 -55.5t-22.5 -59.5l-22 -112q-6 -32 -1 -63t22 -55t45.5 -39t69.5 -15zM121 95q-6 -29 -11 -53.5t-10 -41.5h-21q5 17 11.5 46t12.5 58t10.5 51t4.5 23
l103 531h20l-64 -333q12 18 30.5 38t42 36.5t53.5 27t67 10.5q46 0 79 -18.5t52.5 -52.5t24.5 -80t-6 -102q-10 -52 -33 -97t-56 -78t-74 -52t-86 -19q-64 0 -99.5 31t-50.5 75zM427 807q2 9 8 15t15 6q8 0 13 -6t3 -15q-2 -8 -9 -13t-15 -5q-18 0 -15 18z" />
    <glyph glyph-name="Bdotbelow" unicode="&#x1e04;" horiz-adv-x="496" 
d="M213 666q30 5 58.5 9t58.5 4q95 0 139.5 -39t28.5 -124q-5 -25 -19.5 -51t-36.5 -47.5t-50 -37t-60 -20.5q46 -9 73 -28t41.5 -43t17 -51t-2.5 -52q-19 -94 -93 -142.5t-195 -48.5q-22 0 -43.5 1.5t-45.5 3.5zM105 20q17 -2 34.5 -3t35.5 -1q107 0 176.5 40t87.5 130
q14 73 -28 115t-131 48h-111zM173 370h111q35 0 67.5 11.5t58.5 31t44 46t24 57.5q14 75 -25.5 108.5t-127.5 33.5q-26 0 -50 -3t-47 -6zM234 -86q2 9 8 15t15 6q8 0 13 -6t3 -15q-2 -8 -9 -13t-15 -5q-18 0 -15 18z" />
    <glyph glyph-name="bdotbelow" unicode="&#x1e05;" horiz-adv-x="540" 
d="M275 10q41 0 77.5 17t66 47t50.5 71t30 90q10 52 6 94.5t-21.5 73t-48.5 47t-75 16.5q-39 0 -72.5 -16t-60 -41t-44 -55.5t-22.5 -59.5l-22 -112q-6 -32 -1 -63t22 -55t45.5 -39t69.5 -15zM121 95q-6 -29 -11 -53.5t-10 -41.5h-21q5 17 11.5 46t12.5 58t10.5 51t4.5 23
l103 531h20l-64 -333q12 18 30.5 38t42 36.5t53.5 27t67 10.5q46 0 79 -18.5t52.5 -52.5t24.5 -80t-6 -102q-10 -52 -33 -97t-56 -78t-74 -52t-86 -19q-64 0 -99.5 31t-50.5 75zM252 -92q2 9 8 15t15 6q8 0 13 -6t3 -15q-2 -8 -9 -13t-15 -5q-18 0 -15 18z" />
    <glyph glyph-name="Blinebelow" unicode="&#x1e06;" horiz-adv-x="496" 
d="M213 666q30 5 58.5 9t58.5 4q95 0 139.5 -39t28.5 -124q-5 -25 -19.5 -51t-36.5 -47.5t-50 -37t-60 -20.5q46 -9 73 -28t41.5 -43t17 -51t-2.5 -52q-19 -94 -93 -142.5t-195 -48.5q-22 0 -43.5 1.5t-45.5 3.5zM105 20q17 -2 34.5 -3t35.5 -1q107 0 176.5 40t87.5 130
q14 73 -28 115t-131 48h-111zM173 370h111q35 0 67.5 11.5t58.5 31t44 46t24 57.5q14 75 -25.5 108.5t-127.5 33.5q-26 0 -50 -3t-47 -6zM355 -57l-3 -18h-194l3 18h194z" />
    <glyph glyph-name="blinebelow" unicode="&#x1e07;" horiz-adv-x="540" 
d="M275 10q41 0 77.5 17t66 47t50.5 71t30 90q10 52 6 94.5t-21.5 73t-48.5 47t-75 16.5q-39 0 -72.5 -16t-60 -41t-44 -55.5t-22.5 -59.5l-22 -112q-6 -32 -1 -63t22 -55t45.5 -39t69.5 -15zM121 95q-6 -29 -11 -53.5t-10 -41.5h-21q5 17 11.5 46t12.5 58t10.5 51t4.5 23
l103 531h20l-64 -333q12 18 30.5 38t42 36.5t53.5 27t67 10.5q46 0 79 -18.5t52.5 -52.5t24.5 -80t-6 -102q-10 -52 -33 -97t-56 -78t-74 -52t-86 -19q-64 0 -99.5 31t-50.5 75zM373 -63l-3 -18h-194l3 18h194z" />
    <glyph glyph-name="Ccedillaacute" unicode="&#x1e08;" horiz-adv-x="566" 
d="M504 871q-35 -32 -69.5 -68.5t-69.5 -68.5h-19l121 137h37zM517 21q-37 -15 -83 -23.5t-92 -8.5q-70 2 -122.5 26t-83.5 68.5t-40 108.5t7 146q15 78 51 142t88.5 109.5t119.5 70.5t144 25q36 0 68.5 -6.5t61.5 -23.5l-11 -20q-28 14 -61 21t-59 7q-72 0 -135 -21.5
t-112.5 -63t-84 -102t-49.5 -138.5q-14 -75 -7 -135t36 -103t77.5 -66t116.5 -23q45 0 89 8t78 22zM346 4l-43 -55q26 -5 40 -23.5t9 -41.5q-8 -37 -34 -51t-61 -14q-24 0 -48 11l10 19q11 -5 21.5 -7.5t24.5 -2.5q22 0 40 9t23 35q4 26 -12.5 36.5t-46.5 15.5l53 69h24z
" />
    <glyph glyph-name="ccedillaacute" unicode="&#x1e09;" horiz-adv-x="435" 
d="M409 678q-35 -32 -69.5 -68.5t-69.5 -68.5h-19l121 137h37z" />
    <glyph glyph-name="Ddotaccent" unicode="&#x1e0a;" horiz-adv-x="632" 
d="M213 664q25 5 50 8t48 4.5t44 2t37 0.5q153 0 220 -86t35 -251q-17 -85 -55.5 -149t-92.5 -108q-65 -53 -139 -71t-160 -18q-23 0 -54 1t-62 3zM386 658q-42 0 -79.5 -2.5t-76.5 -9.5l-121 -625q11 -1 25.5 -2t28 -1.5t24.5 -0.5h17q81 0 151 16.5t133 66.5
q52 41 88 105.5t50 136.5q31 158 -33 237t-207 79zM471 777q2 9 8 15t15 6q8 0 13 -6t3 -15q-2 -8 -9 -13t-15 -5q-18 0 -15 18z" />
    <glyph glyph-name="ddotaccent" unicode="&#x1e0b;" horiz-adv-x="532" 
d="M417 0q1 17 5.5 43t10.5 55q-33 -48 -84 -78.5t-107 -30.5q-37 0 -70 16t-55.5 47t-31 77.5t2.5 106.5q11 54 36 100t59 79.5t75.5 53t85.5 19.5q56 0 93 -28t52 -70l62 319h20l-103 -531q0 -1 -4.5 -23t-9.5 -51t-9.5 -58t-5.5 -46h-22zM246 10q38 0 72 15.5t61.5 40
t45.5 56.5t25 65l25 127q5 27 -2 54t-24.5 49t-45 36t-63.5 14q-37 0 -74 -15.5t-69 -45.5q-34 -32 -56 -76t-32 -94q-9 -49 -3.5 -90.5t23.5 -71.5t48 -47t69 -17zM389 807q2 9 8 15t15 6q8 0 13 -6t3 -15q-2 -8 -9 -13t-15 -5q-18 0 -15 18z" />
    <glyph glyph-name="Ddotbelow" unicode="&#x1e0c;" horiz-adv-x="632" 
d="M213 664q25 5 50 8t48 4.5t44 2t37 0.5q153 0 220 -86t35 -251q-17 -85 -55.5 -149t-92.5 -108q-65 -53 -139 -71t-160 -18q-23 0 -54 1t-62 3zM386 658q-42 0 -79.5 -2.5t-76.5 -9.5l-121 -625q11 -1 25.5 -2t28 -1.5t24.5 -0.5h17q81 0 151 16.5t133 66.5
q52 41 88 105.5t50 136.5q31 158 -33 237t-207 79zM303 -86q2 9 8 15t15 6q8 0 13 -6t3 -15q-2 -8 -9 -13t-15 -5q-18 0 -15 18z" />
    <glyph glyph-name="ddotbelow" unicode="&#x1e0d;" horiz-adv-x="532" 
d="M417 0q1 17 5.5 43t10.5 55q-33 -48 -84 -78.5t-107 -30.5q-37 0 -70 16t-55.5 47t-31 77.5t2.5 106.5q11 54 36 100t59 79.5t75.5 53t85.5 19.5q56 0 93 -28t52 -70l62 319h20l-103 -531q0 -1 -4.5 -23t-9.5 -51t-9.5 -58t-5.5 -46h-22zM246 10q38 0 72 15.5t61.5 40
t45.5 56.5t25 65l25 127q5 27 -2 54t-24.5 49t-45 36t-63.5 14q-37 0 -74 -15.5t-69 -45.5q-34 -32 -56 -76t-32 -94q-9 -49 -3.5 -90.5t23.5 -71.5t48 -47t69 -17zM215 -92q2 9 8 15t15 6q8 0 13 -6t3 -15q-2 -8 -9 -13t-15 -5q-18 0 -15 18z" />
    <glyph glyph-name="Dlinebelow" unicode="&#x1e0e;" horiz-adv-x="632" 
d="M213 664q25 5 50 8t48 4.5t44 2t37 0.5q153 0 220 -86t35 -251q-17 -85 -55.5 -149t-92.5 -108q-65 -53 -139 -71t-160 -18q-23 0 -54 1t-62 3zM386 658q-42 0 -79.5 -2.5t-76.5 -9.5l-121 -625q11 -1 25.5 -2t28 -1.5t24.5 -0.5h17q81 0 151 16.5t133 66.5
q52 41 88 105.5t50 136.5q31 158 -33 237t-207 79zM424 -57l-3 -18h-194l3 18h194z" />
    <glyph glyph-name="dlinebelow" unicode="&#x1e0f;" horiz-adv-x="532" 
d="M417 0q1 17 5.5 43t10.5 55q-33 -48 -84 -78.5t-107 -30.5q-37 0 -70 16t-55.5 47t-31 77.5t2.5 106.5q11 54 36 100t59 79.5t75.5 53t85.5 19.5q56 0 93 -28t52 -70l62 319h20l-103 -531q0 -1 -4.5 -23t-9.5 -51t-9.5 -58t-5.5 -46h-22zM246 10q38 0 72 15.5t61.5 40
t45.5 56.5t25 65l25 127q5 27 -2 54t-24.5 49t-45 36t-63.5 14q-37 0 -74 -15.5t-69 -45.5q-34 -32 -56 -76t-32 -94q-9 -49 -3.5 -90.5t23.5 -71.5t48 -47t69 -17zM336 -63l-3 -18h-194l3 18h194z" />
    <glyph glyph-name="Dcommaaccent" unicode="&#x1e10;" horiz-adv-x="632" 
d="M213 664q25 5 50 8t48 4.5t44 2t37 0.5q153 0 220 -86t35 -251q-17 -85 -55.5 -149t-92.5 -108q-65 -53 -139 -71t-160 -18q-23 0 -54 1t-62 3zM386 658q-42 0 -79.5 -2.5t-76.5 -9.5l-121 -625q11 -1 25.5 -2t28 -1.5t24.5 -0.5h17q81 0 151 16.5t133 66.5
q52 41 88 105.5t50 136.5q31 158 -33 237t-207 79zM247 -271q9 17 22.5 43t27.5 54.5t26.5 57t20.5 51.5l32 8q-13 -28 -29 -60.5t-32 -63.5t-30 -55.5t-22 -35.5z" />
    <glyph glyph-name="dcommaaccent" unicode="&#x1e11;" horiz-adv-x="532" 
d="M417 0q1 17 5.5 43t10.5 55q-33 -48 -84 -78.5t-107 -30.5q-37 0 -70 16t-55.5 47t-31 77.5t2.5 106.5q11 54 36 100t59 79.5t75.5 53t85.5 19.5q56 0 93 -28t52 -70l62 319h20l-103 -531q0 -1 -4.5 -23t-9.5 -51t-9.5 -58t-5.5 -46h-22zM246 10q38 0 72 15.5t61.5 40
t45.5 56.5t25 65l25 127q5 27 -2 54t-24.5 49t-45 36t-63.5 14q-37 0 -74 -15.5t-69 -45.5q-34 -32 -56 -76t-32 -94q-9 -49 -3.5 -90.5t23.5 -71.5t48 -47t69 -17zM158 -277q9 17 22.5 43t27.5 54.5t26.5 57t20.5 51.5l32 8q-13 -28 -29 -60.5t-32 -63.5t-30 -55.5
t-22 -35.5z" />
    <glyph glyph-name="Dcircumflexbelow" unicode="&#x1e12;" horiz-adv-x="632" 
d="M213 664q25 5 50 8t48 4.5t44 2t37 0.5q153 0 220 -86t35 -251q-17 -85 -55.5 -149t-92.5 -108q-65 -53 -139 -71t-160 -18q-23 0 -54 1t-62 3zM386 658q-42 0 -79.5 -2.5t-76.5 -9.5l-121 -625q11 -1 25.5 -2t28 -1.5t24.5 -0.5h17q81 0 151 16.5t133 66.5
q52 41 88 105.5t50 136.5q31 158 -33 237t-207 79zM336 -72l5.5 -9t13.5 -22.5t17 -29t17 -29t13.5 -22l5.5 -8.5h-24l-63 107l-109 -107h-21l119 120h26z" />
    <glyph glyph-name="dcircumflexbelow" unicode="&#x1e13;" horiz-adv-x="532" 
d="M417 0q1 17 5.5 43t10.5 55q-33 -48 -84 -78.5t-107 -30.5q-37 0 -70 16t-55.5 47t-31 77.5t2.5 106.5q11 54 36 100t59 79.5t75.5 53t85.5 19.5q56 0 93 -28t52 -70l62 319h20l-103 -531q0 -1 -4.5 -23t-9.5 -51t-9.5 -58t-5.5 -46h-22zM246 10q38 0 72 15.5t61.5 40
t45.5 56.5t25 65l25 127q5 27 -2 54t-24.5 49t-45 36t-63.5 14q-37 0 -74 -15.5t-69 -45.5q-34 -32 -56 -76t-32 -94q-9 -49 -3.5 -90.5t23.5 -71.5t48 -47t69 -17zM248 -78l5.5 -9t13.5 -22.5t17 -29t17 -29t13.5 -22l5.5 -8.5h-24l-63 107l-109 -107h-21l119 120h26z" />
    <glyph glyph-name="Emacrongrave" unicode="&#x1e14;" horiz-adv-x="456" 
d="M411 21l-4 -21h-323l131 674h307l-5 -21h-286l-55 -286h270l-4 -21h-270l-63 -325h302zM497 760l-3 -18h-194l3 18h194zM413 949q14 -31 34 -68.5t34 -69.5h-20l-9 16t-22 38t-27.5 45.5t-24.5 38.5h35z" />
    <glyph glyph-name="emacrongrave" unicode="&#x1e15;" horiz-adv-x="474" 
d="M397 19q-33 -16 -68.5 -23t-74.5 -7q-49 1 -85 19t-57.5 50t-27.5 77.5t5 102.5q10 54 34.5 100t58.5 79t75.5 52t86.5 20q42 0 67.5 -15t40.5 -35t21 -42q7 -21 8 -60t-7 -81h-361l-3 -18q-22 -112 22 -170t141 -58q32 0 64 8t58 22zM339 468q-36 0 -70 -14t-63 -39
t-51 -60t-35 -77l337 -2q2 28 2.5 46.5t-0.5 27.5q-4 51 -35 84.5t-85 33.5zM447 577l-3 -18h-194l3 18h194zM364 766q14 -31 34 -68.5t34 -69.5h-20l-9 16t-22 38t-27.5 45.5t-24.5 38.5h35z" />
    <glyph glyph-name="Emacronacute" unicode="&#x1e16;" horiz-adv-x="456" 
d="M411 21l-4 -21h-323l131 674h307l-5 -21h-286l-55 -286h270l-4 -21h-270l-63 -325h302zM497 760l-3 -18h-194l3 18h194zM489 949q-35 -32 -69.5 -68.5t-69.5 -68.5h-19l121 137h37z" />
    <glyph glyph-name="emacronacute" unicode="&#x1e17;" horiz-adv-x="474" 
d="M397 19q-33 -16 -68.5 -23t-74.5 -7q-49 1 -85 19t-57.5 50t-27.5 77.5t5 102.5q10 54 34.5 100t58.5 79t75.5 52t86.5 20q42 0 67.5 -15t40.5 -35t21 -42q7 -21 8 -60t-7 -81h-361l-3 -18q-22 -112 22 -170t141 -58q32 0 64 8t58 22zM339 468q-36 0 -70 -14t-63 -39
t-51 -60t-35 -77l337 -2q2 28 2.5 46.5t-0.5 27.5q-4 51 -35 84.5t-85 33.5zM447 577l-3 -18h-194l3 18h194zM440 766q-35 -32 -69.5 -68.5t-69.5 -68.5h-19l121 137h37z" />
    <glyph glyph-name="Ecircumflexbelow" unicode="&#x1e18;" horiz-adv-x="456" 
d="M411 21l-4 -21h-323l131 674h307l-5 -21h-286l-55 -286h270l-4 -21h-270l-63 -325h302zM252 -67l5.5 -9t13.5 -22.5t17 -29t17 -29t13.5 -22l5.5 -8.5h-24l-63 107l-109 -107h-21l119 120h26z" />
    <glyph glyph-name="ecircumflexbelow" unicode="&#x1e19;" horiz-adv-x="474" 
d="M397 19q-33 -16 -68.5 -23t-74.5 -7q-49 1 -85 19t-57.5 50t-27.5 77.5t5 102.5q10 54 34.5 100t58.5 79t75.5 52t86.5 20q42 0 67.5 -15t40.5 -35t21 -42q7 -21 8 -60t-7 -81h-361l-3 -18q-22 -112 22 -170t141 -58q32 0 64 8t58 22zM339 468q-36 0 -70 -14t-63 -39
t-51 -60t-35 -77l337 -2q2 28 2.5 46.5t-0.5 27.5q-4 51 -35 84.5t-85 33.5zM236 -77l5.5 -9t13.5 -22.5t17 -29t17 -29t13.5 -22l5.5 -8.5h-24l-63 107l-109 -107h-21l119 120h26z" />
    <glyph glyph-name="Etildebelow" unicode="&#x1e1a;" horiz-adv-x="456" 
d="M411 21l-4 -21h-323l131 674h307l-5 -21h-286l-55 -286h270l-4 -21h-270l-63 -325h302zM127 -122q7 27 23.5 47.5t39.5 20.5q15 0 27 -6.5t22.5 -14t22.5 -13.5t27 -6q32 0 43 43h16q-7 -27 -21.5 -44t-40.5 -17q-15 0 -27 6t-23 13.5t-22.5 13.5t-26.5 6
q-17 0 -26 -14.5t-17 -34.5h-17z" />
    <glyph glyph-name="etildebelow" unicode="&#x1e1b;" horiz-adv-x="474" 
d="M397 19q-33 -16 -68.5 -23t-74.5 -7q-49 1 -85 19t-57.5 50t-27.5 77.5t5 102.5q10 54 34.5 100t58.5 79t75.5 52t86.5 20q42 0 67.5 -15t40.5 -35t21 -42q7 -21 8 -60t-7 -81h-361l-3 -18q-22 -112 22 -170t141 -58q32 0 64 8t58 22zM339 468q-36 0 -70 -14t-63 -39
t-51 -60t-35 -77l337 -2q2 28 2.5 46.5t-0.5 27.5q-4 51 -35 84.5t-85 33.5zM111 -132q7 27 23.5 47.5t39.5 20.5q15 0 27 -6.5t22.5 -14t22.5 -13.5t27 -6q32 0 43 43h16q-7 -27 -21.5 -44t-40.5 -17q-15 0 -27 6t-23 13.5t-22.5 13.5t-26.5 6q-17 0 -26 -14.5t-17 -34.5
h-17z" />
    </font>
</defs>
</svg>
